<svg width="376" height="527" viewBox="0 0 376 527" fill="none" xmlns="http://www.w3.org/2000/svg">
<rect width="376" height="527" rx="4" fill="#85D8D3"/>
<rect x="94" y="132" width="188" height="263" rx="4" fill="#F5F0E8"/>
<rect x="100.5" y="140.5" width="175" height="250" rx="2.5" fill="#F5F0E8" stroke="#85D8D3" stroke-linecap="round"/>
<rect x="102.5" y="142.5" width="171" height="246" rx="2.5" fill="#F5F0E8" stroke="#85D8D3" stroke-linecap="round"/>
<path d="M208.891 252.8C195.661 242.965 191.097 235.094 188.004 229C184.907 235.094 180.348 242.965 167.118 252.8C144.556 269.569 165.792 292.971 184.465 280.091C183.249 288.084 179.097 293.912 174.879 296.423V299.004H201.129V296.423C196.912 293.912 192.76 288.084 191.544 280.091C210.216 292.971 231.452 269.569 208.891 252.8V252.8Z" fill="#85D8D3"/>
<path d="M125.767 192.14C121.798 189.19 120.429 186.828 119.501 185C118.572 186.828 117.204 189.19 113.235 192.14C106.467 197.171 112.838 204.191 118.439 200.327C118.075 202.725 116.829 204.474 115.564 205.227V206.001H123.439V205.227C122.174 204.474 120.928 202.725 120.563 200.327C126.165 204.191 132.536 197.171 125.767 192.14V192.14Z" fill="#85D8D3"/>
<path d="M125.776 178H113.32V176.452C113.92 176.188 114.52 175.96 115.12 175.768C115.744 175.552 116.368 175.372 116.992 175.228V158.704L117.136 156.58C116.464 156.796 115.768 156.94 115.048 157.012C114.328 157.084 113.584 157.108 112.816 157.084L112.636 155.752C113.908 155.416 115.288 154.96 116.776 154.384C118.288 153.808 119.68 153.136 120.952 152.368H122.176V175.228C122.776 175.372 123.376 175.552 123.976 175.768C124.576 175.96 125.176 176.188 125.776 176.452V178Z" fill="#85D8D3"/>
<path d="M250.233 334.86C254.202 337.81 255.571 340.172 256.499 342C257.428 340.172 258.796 337.81 262.765 334.86C269.533 329.829 263.162 322.809 257.561 326.673C257.925 324.275 259.171 322.526 260.436 321.773V320.999H252.561V321.773C253.826 322.526 255.072 324.275 255.437 326.673C249.835 322.809 243.464 329.829 250.233 334.86V334.86Z" fill="#85D8D3"/>
<path d="M250.224 349H262.68V350.548C262.08 350.812 261.48 351.04 260.88 351.232C260.256 351.448 259.632 351.628 259.008 351.772V368.296L258.864 370.42C259.536 370.204 260.232 370.06 260.952 369.988C261.672 369.916 262.416 369.892 263.184 369.916L263.364 371.248C262.092 371.584 260.712 372.04 259.224 372.616C257.712 373.192 256.32 373.864 255.048 374.632H253.824V351.772C253.224 351.628 252.624 351.448 252.024 351.232C251.424 351.04 250.824 350.812 250.224 350.548V349Z" fill="#85D8D3"/>
</svg>
