<svg width="150" height="151" viewBox="0 0 150 151" fill="none" xmlns="http://www.w3.org/2000/svg">
<path d="M115.256 58.5343C106.613 58.5343 98.8406 62.1343 93.3094 68.0125C90.9656 70.4968 86.8969 73.45 82.5 76.0375C84.5625 68.1437 91.0969 58.2062 95.625 53.8468C98.6051 50.9728 100.972 47.5248 102.583 43.711C104.195 39.8971 105.017 35.7964 105 31.6562C105 14.8281 91.6031 1.16873 75 0.990601C58.3969 1.16873 45 14.8187 45 31.6562C45 40.3937 48.5625 48.2593 54.375 53.8468C58.9125 58.2062 65.4375 68.1437 67.5 76.0375C63.1031 73.4406 59.0344 70.4968 56.6906 68.0125C53.8785 65.0114 50.4788 62.6212 46.7031 60.9906C42.9274 59.36 38.8565 58.5239 34.7438 58.5343C17.9906 58.5343 4.40625 72.25 4.40625 89.2C4.40625 106.15 17.9813 119.866 34.7438 119.866C43.3969 119.866 51.1594 116.153 56.6906 110.275C59.1563 107.659 63.4969 104.397 68.1563 101.687C67.7156 123.325 57.3844 139.216 46.8656 145.469V151H103.116V145.469C92.5969 139.206 82.2656 123.316 81.825 101.687C86.4938 104.397 90.8344 107.659 93.2906 110.275C96.0975 113.291 99.4937 115.698 103.269 117.348C107.044 118.997 111.118 119.854 115.238 119.866C131.991 119.866 145.575 106.141 145.575 89.2C145.575 72.2593 132 58.5343 115.238 58.5343H115.256Z" fill="black"/>
</svg>
