<svg width="150" height="164" viewBox="0 0 150 164" fill="none" xmlns="http://www.w3.org/2000/svg">
<path d="M37.5 10.2273C58.2188 10.2273 75 28.1762 75 50.3182C75 28.1762 91.7812 10.2273 112.5 10.2273C133.219 10.2273 150 28.1762 150 50.3182C150 83.6898 119.681 95.4614 78.675 148.582C78.2235 149.165 77.6608 149.634 77.0261 149.956C76.3913 150.277 75.6999 150.444 75 150.444C74.3001 150.444 73.6087 150.277 72.9739 149.956C72.3392 149.634 71.7765 149.165 71.325 148.582C30.3187 95.4614 0 83.6898 0 50.3182C0 28.1762 16.7812 10.2273 37.5 10.2273Z" fill="#E70C02"/>
</svg>
