<svg width="188" height="263" viewBox="0 0 188 263" fill="none" xmlns="http://www.w3.org/2000/svg">
<rect width="188" height="263" rx="4" fill="#F5F0E8"/>
<rect x="6.5" y="6.5" width="175" height="250" rx="2.5" fill="#F5F0E8" stroke="#E70C02" stroke-linecap="round"/>
<rect x="8.5" y="8.5" width="171" height="246" rx="2.5" fill="#F5F0E8" stroke="#E70C02" stroke-linecap="round"/>
<path d="M156.224 217H168.68V218.548C168.08 218.812 167.48 219.04 166.88 219.232C166.256 219.448 165.632 219.628 165.008 219.772V236.296L164.864 238.42C165.536 238.204 166.232 238.06 166.952 237.988C167.672 237.916 168.416 237.892 169.184 237.916L169.364 239.248C168.092 239.584 166.712 240.04 165.224 240.616C163.712 241.192 162.32 241.864 161.048 242.632H159.824V219.772C159.224 219.628 158.624 219.448 158.024 219.232C157.424 219.04 156.824 218.812 156.224 218.548V217Z" fill="#E70C02"/>
<path d="M167.25 212.688C164.626 212.688 162.5 210.384 162.5 207.543C162.5 210.384 160.374 212.688 157.75 212.688C155.126 212.688 153 210.384 153 207.543C153 203.26 156.84 201.749 162.035 194.932C162.092 194.857 162.163 194.797 162.243 194.756C162.324 194.714 162.411 194.693 162.5 194.693C162.589 194.693 162.676 194.714 162.757 194.756C162.837 194.797 162.908 194.857 162.965 194.932C168.16 201.749 172 203.26 172 207.543C172 210.384 169.874 212.688 167.25 212.688Z" fill="#E70C02"/>
<path d="M31.776 46H19.32V44.452C19.92 44.188 20.52 43.96 21.12 43.768C21.744 43.552 22.368 43.372 22.992 43.228V26.704L23.136 24.58C22.464 24.796 21.768 24.94 21.048 25.012C20.328 25.084 19.584 25.108 18.816 25.084L18.636 23.752C19.908 23.416 21.288 22.96 22.776 22.384C24.288 21.808 25.68 21.136 26.952 20.368H28.176V43.228C28.776 43.372 29.376 43.552 29.976 43.768C30.576 43.96 31.176 44.188 31.776 44.452V46Z" fill="#E70C02"/>
<path d="M20.75 50.3125C23.3744 50.3125 25.5 52.6159 25.5 55.4575C25.5 52.6159 27.6256 50.3125 30.25 50.3125C32.8744 50.3125 35 52.6159 35 55.4575C35 59.7402 31.1596 61.2509 25.9655 68.068C25.9083 68.1429 25.837 68.203 25.7566 68.2443C25.6762 68.2856 25.5887 68.307 25.5 68.307C25.4113 68.307 25.3238 68.2856 25.2434 68.2443C25.163 68.203 25.0917 68.1429 25.0345 68.068C19.8404 61.2509 16 59.7402 16 55.4575C16 52.6159 18.1256 50.3125 20.75 50.3125Z" fill="#E70C02"/>
<path d="M76.5 97.7727C86.1688 97.7727 94 106.149 94 116.482C94 106.149 101.831 97.7727 111.5 97.7727C121.169 97.7727 129 106.149 129 116.482C129 132.055 114.851 137.549 95.715 162.338C95.5043 162.61 95.2417 162.829 94.9455 162.979C94.6493 163.129 94.3266 163.207 94 163.207C93.6734 163.207 93.3507 163.129 93.0545 162.979C92.7583 162.829 92.4957 162.61 92.285 162.338C73.1487 137.549 59 132.055 59 116.482C59 106.149 66.8312 97.7727 76.5 97.7727Z" fill="#E70C02"/>
</svg>
