<svg width="188" height="263" viewBox="0 0 188 263" fill="none" xmlns="http://www.w3.org/2000/svg">
<rect width="188" height="263" rx="4" fill="#F5F0E8"/>
<rect x="6.5" y="6.5" width="175" height="250" rx="2.5" fill="#F5F0E8" stroke="black" stroke-linecap="round"/>
<rect x="8.5" y="8.5" width="171" height="246" rx="2.5" fill="#F5F0E8" stroke="black" stroke-linecap="round"/>
<path d="M101.82 55.8904C100.033 55.8904 98.4271 56.6344 97.2839 57.8492C96.7996 58.3627 95.9587 58.973 95.05 59.5077C95.4762 57.8764 96.8267 55.8226 97.7625 54.9217C98.3784 54.3277 98.8676 53.6151 99.2006 52.8269C99.5336 52.0387 99.7035 51.1913 99.7 50.3356C99.7 46.8578 96.9313 44.0349 93.5 43.998C90.0687 44.0349 87.3 46.8559 87.3 50.3356C87.3 52.1414 88.0362 53.7669 89.2375 54.9217C90.1752 55.8226 91.5237 57.8764 91.95 59.5077C91.0413 58.971 90.2004 58.3627 89.7161 57.8492C89.1349 57.229 88.4323 56.735 87.652 56.398C86.8716 56.0611 86.0303 55.8883 85.1804 55.8904C81.7181 55.8904 78.9106 58.725 78.9106 62.228C78.9106 65.731 81.7161 68.5655 85.1804 68.5655C86.9687 68.5655 88.5729 67.7983 89.7161 66.5835C90.2256 66.0429 91.1227 65.3687 92.0856 64.8087C91.9946 69.2805 89.8594 72.5645 87.6856 73.8569V75H99.3106V73.8569C97.1367 72.5626 95.0016 69.2785 94.9105 64.8087C95.8754 65.3687 96.7724 66.0429 97.2801 66.5835C97.8601 67.2067 98.562 67.7042 99.3422 68.0452C100.122 68.3861 100.964 68.5632 101.816 68.5655C105.278 68.5655 108.085 65.729 108.085 62.228C108.085 58.7269 105.28 55.8904 101.816 55.8904H101.82Z" fill="black"/>
<path d="M85.1804 207.11C86.9668 207.11 88.5729 206.366 89.7161 205.151C90.2004 204.637 91.0413 204.027 91.95 203.492C91.5238 205.124 90.1733 207.177 89.2375 208.078C88.6216 208.672 88.1324 209.385 87.7994 210.173C87.4664 210.961 87.2965 211.809 87.3 212.664C87.3 216.142 90.0687 218.965 93.5 219.002C96.9313 218.965 99.7 216.144 99.7 212.664C99.7 210.859 98.9638 209.233 97.7625 208.078C96.8248 207.177 95.4763 205.124 95.05 203.492C95.9587 204.029 96.7996 204.637 97.2839 205.151C97.8651 205.771 98.5677 206.265 99.348 206.602C100.128 206.939 100.97 207.112 101.82 207.11C105.282 207.11 108.089 204.275 108.089 200.772C108.089 197.269 105.284 194.434 101.82 194.434C100.031 194.434 98.4271 195.202 97.2839 196.417C96.7744 196.957 95.8773 197.631 94.9144 198.191C95.0054 193.72 97.1406 190.435 99.3144 189.143V188H87.6894V189.143C89.8633 190.437 91.9984 193.721 92.0895 198.191C91.1246 197.631 90.2276 196.957 89.7199 196.417C89.1399 195.793 88.438 195.296 87.6578 194.955C86.8776 194.614 86.0357 194.437 85.1843 194.434C81.7219 194.434 78.9145 197.271 78.9145 200.772C78.9145 204.273 81.72 207.11 85.1843 207.11H85.1804Z" fill="black"/>
<path d="M31.1359 61.0548C29.9258 61.0548 28.8377 61.5588 28.0633 62.3817C27.7352 62.7295 27.1656 63.143 26.55 63.5052C26.8388 62.4001 27.7536 61.0088 28.3875 60.3985C28.8047 59.9962 29.1361 59.5134 29.3617 58.9795C29.5873 58.4456 29.7024 57.8715 29.7 57.2918C29.7 54.9359 27.8244 53.0236 25.5 52.9987C23.1756 53.0236 21.3 54.9346 21.3 57.2918C21.3 58.5151 21.7988 59.6163 22.6125 60.3985C23.2478 61.0088 24.1613 62.4001 24.45 63.5052C23.8344 63.1417 23.2648 62.7295 22.9367 62.3817C22.543 61.9616 22.067 61.6269 21.5384 61.3987C21.0098 61.1704 20.4399 61.0533 19.8641 61.0548C17.5187 61.0548 15.6169 62.975 15.6169 65.348C15.6169 67.721 17.5174 69.6412 19.8641 69.6412C21.0756 69.6412 22.1623 69.1214 22.9367 68.2985C23.2819 67.9323 23.8896 67.4755 24.5419 67.0962C24.4802 70.1255 23.0338 72.3502 21.5612 73.2256V74H29.4362V73.2256C27.9636 72.3488 26.5172 70.1242 26.4555 67.0962C27.1091 67.4755 27.7168 67.9323 28.0607 68.2985C28.4537 68.7207 28.9291 69.0577 29.4576 69.2887C29.9862 69.5196 30.5565 69.6396 31.1333 69.6412C33.4787 69.6412 35.3805 67.7197 35.3805 65.348C35.3805 62.9763 33.48 61.0548 31.1333 61.0548H31.1359Z" fill="black"/>
<path d="M20.076 28.792H18.852C18.708 28.432 18.54 28.012 18.348 27.532C18.18 27.052 18 26.548 17.808 26.02C17.616 25.492 17.436 24.976 17.268 24.472C17.1 23.944 16.968 23.464 16.872 23.032C17.712 22.312 18.78 21.688 20.076 21.16C21.396 20.632 22.992 20.368 24.864 20.368C26.184 20.368 27.324 20.536 28.284 20.872C29.244 21.208 30.036 21.676 30.66 22.276C31.308 22.876 31.776 23.572 32.064 24.364C32.376 25.156 32.532 26.008 32.532 26.92C32.532 28.384 32.196 29.776 31.524 31.096C30.852 32.392 30.024 33.616 29.04 34.768C28.056 35.896 27 36.952 25.872 37.936C24.744 38.896 23.724 39.772 22.812 40.564L20.94 41.824V41.968L23.136 41.752H29.328L31.092 37.72H32.316C32.388 38.296 32.46 38.968 32.532 39.736C32.628 40.504 32.712 41.284 32.784 42.076C32.856 42.844 32.916 43.588 32.964 44.308C33.012 45.004 33.036 45.568 33.036 46H16.548V43.696C17.172 43.144 17.88 42.508 18.672 41.788C19.464 41.044 20.268 40.24 21.084 39.376C21.9 38.488 22.704 37.552 23.496 36.568C24.288 35.584 24.996 34.588 25.62 33.58C26.244 32.548 26.736 31.504 27.096 30.448C27.48 29.392 27.672 28.36 27.672 27.352C27.672 26.032 27.312 24.964 26.592 24.148C25.896 23.308 24.9 22.888 23.604 22.888C23.196 22.888 22.824 22.912 22.488 22.96C22.176 23.008 21.816 23.092 21.408 23.212L20.076 28.792Z" fill="black"/>
<path d="M156.864 201.945C158.074 201.945 159.162 201.441 159.937 200.618C160.265 200.27 160.834 199.857 161.45 199.495C161.161 200.6 160.246 201.991 159.612 202.601C159.195 203.004 158.864 203.487 158.638 204.02C158.413 204.554 158.298 205.129 158.3 205.708C158.3 208.064 160.176 209.976 162.5 210.001C164.824 209.976 166.7 208.065 166.7 205.708C166.7 204.485 166.201 203.384 165.387 202.601C164.752 201.991 163.839 200.6 163.55 199.495C164.166 199.858 164.735 200.27 165.063 200.618C165.457 201.038 165.933 201.373 166.462 201.601C166.99 201.83 167.56 201.947 168.136 201.945C170.481 201.945 172.383 200.025 172.383 197.652C172.383 195.279 170.483 193.359 168.136 193.359C166.924 193.359 165.838 193.879 165.063 194.702C164.718 195.068 164.11 195.524 163.458 195.904C163.52 192.875 164.966 190.65 166.439 189.774V189H158.564V189.774C160.036 190.651 161.483 192.876 161.544 195.904C160.891 195.524 160.283 195.068 159.939 194.702C159.546 194.279 159.071 193.942 158.542 193.711C158.014 193.48 157.444 193.36 156.867 193.359C154.521 193.359 152.619 195.28 152.619 197.652C152.619 200.024 154.52 201.945 156.867 201.945H156.864Z" fill="black"/>
<path d="M167.924 234.208H169.148C169.292 234.568 169.46 234.988 169.652 235.468C169.82 235.948 170 236.452 170.192 236.98C170.384 237.508 170.564 238.024 170.732 238.528C170.9 239.056 171.032 239.536 171.128 239.968C170.288 240.688 169.22 241.312 167.924 241.84C166.604 242.368 165.008 242.632 163.136 242.632C161.816 242.632 160.676 242.464 159.716 242.128C158.756 241.792 157.964 241.324 157.34 240.724C156.692 240.124 156.224 239.428 155.936 238.636C155.624 237.844 155.468 236.992 155.468 236.08C155.468 234.616 155.804 233.224 156.476 231.904C157.148 230.608 157.976 229.384 158.96 228.232C159.944 227.104 161 226.048 162.128 225.064C163.256 224.104 164.276 223.228 165.188 222.436L167.06 221.176V221.032L164.864 221.248H158.672L156.908 225.28H155.684C155.612 224.704 155.54 224.032 155.468 223.264C155.372 222.496 155.288 221.716 155.216 220.924C155.144 220.156 155.084 219.412 155.036 218.692C154.988 217.996 154.964 217.432 154.964 217H171.452V219.304C170.828 219.856 170.12 220.492 169.328 221.212C168.536 221.956 167.732 222.76 166.916 223.624C166.1 224.512 165.296 225.448 164.504 226.432C163.712 227.416 163.004 228.412 162.38 229.42C161.756 230.452 161.264 231.496 160.904 232.552C160.52 233.608 160.328 234.64 160.328 235.648C160.328 236.968 160.688 238.036 161.408 238.852C162.104 239.692 163.1 240.112 164.396 240.112C164.804 240.112 165.176 240.088 165.512 240.04C165.824 239.992 166.184 239.908 166.592 239.788L167.924 234.208Z" fill="black"/>
</svg>
