<svg width="188" height="263" viewBox="0 0 188 263" fill="none" xmlns="http://www.w3.org/2000/svg">
<rect width="188" height="263" rx="4" fill="#F5F0E8"/>
<rect x="6.5" y="6.5" width="175" height="250" rx="2.5" fill="#F5F0E8" stroke="black" stroke-linecap="round"/>
<rect x="8.5" y="8.5" width="171" height="246" rx="2.5" fill="#F5F0E8" stroke="black" stroke-linecap="round"/>
<path d="M24.252 44.092C24.804 44.092 25.344 43.972 25.872 43.732C26.4 43.468 26.868 43.108 27.276 42.652C27.708 42.196 28.044 41.656 28.284 41.032C28.548 40.408 28.68 39.736 28.68 39.016C28.68 38.2 28.536 37.504 28.248 36.928C27.984 36.328 27.624 35.836 27.168 35.452C26.736 35.068 26.232 34.792 25.656 34.624C25.08 34.432 24.504 34.336 23.928 34.336H21.84V32.896L27.24 25.84L28.464 24.58V24.436L26.52 24.652H21.084L19.68 28.324H18.456C18.336 27.82 18.204 27.22 18.06 26.524C17.94 25.828 17.82 25.132 17.7 24.436C17.604 23.74 17.52 23.068 17.448 22.42C17.4 21.772 17.376 21.232 17.376 20.8H33.072V22.564L26.844 30.16L25.296 31.744V31.816L26.52 31.564C27.648 31.612 28.656 31.828 29.544 32.212C30.456 32.572 31.212 33.076 31.812 33.724C32.436 34.348 32.904 35.08 33.216 35.92C33.552 36.76 33.72 37.684 33.72 38.692C33.72 39.892 33.456 40.972 32.928 41.932C32.424 42.892 31.74 43.708 30.876 44.38C30.012 45.052 29.004 45.568 27.852 45.928C26.7 46.264 25.488 46.432 24.216 46.432C23.496 46.432 22.776 46.372 22.056 46.252C21.336 46.156 20.652 46.012 20.004 45.82C19.38 45.628 18.804 45.4 18.276 45.136C17.772 44.872 17.34 44.584 16.98 44.272L18.312 40.528H19.356C19.5 40.696 19.692 40.924 19.932 41.212C20.196 41.476 20.46 41.764 20.724 42.076C21.012 42.388 21.288 42.7 21.552 43.012C21.816 43.324 22.044 43.588 22.236 43.804C22.476 43.852 22.74 43.912 23.028 43.984C23.34 44.056 23.748 44.092 24.252 44.092Z" fill="black"/>
<path d="M31.1359 61.0548C29.9258 61.0548 28.8377 61.5588 28.0633 62.3817C27.7352 62.7295 27.1656 63.143 26.55 63.5052C26.8388 62.4001 27.7536 61.0088 28.3875 60.3985C28.8047 59.9962 29.1361 59.5134 29.3617 58.9795C29.5873 58.4456 29.7024 57.8715 29.7 57.2918C29.7 54.9359 27.8244 53.0236 25.5 52.9987C23.1756 53.0236 21.3 54.9346 21.3 57.2918C21.3 58.5151 21.7988 59.6163 22.6125 60.3985C23.2478 61.0088 24.1613 62.4001 24.45 63.5052C23.8344 63.1417 23.2648 62.7295 22.9367 62.3817C22.543 61.9616 22.067 61.6269 21.5384 61.3987C21.0098 61.1704 20.4399 61.0533 19.8641 61.0548C17.5187 61.0548 15.6169 62.975 15.6169 65.348C15.6169 67.721 17.5174 69.6412 19.8641 69.6412C21.0756 69.6412 22.1623 69.1214 22.9367 68.2985C23.2819 67.9323 23.8896 67.4755 24.5419 67.0962C24.4802 70.1255 23.0338 72.3502 21.5612 73.2256V74H29.4362V73.2256C27.9636 72.3488 26.5172 70.1242 26.4555 67.0962C27.1091 67.4755 27.7168 67.9323 28.0607 68.2985C28.4537 68.7207 28.9291 69.0577 29.4576 69.2887C29.9862 69.5196 30.5565 69.6396 31.1333 69.6412C33.4787 69.6412 35.3805 67.7197 35.3805 65.348C35.3805 62.9763 33.48 61.0548 31.1333 61.0548H31.1359Z" fill="black"/>
<path d="M156.864 201.945C158.074 201.945 159.162 201.441 159.937 200.618C160.265 200.27 160.834 199.857 161.45 199.495C161.161 200.6 160.246 201.991 159.612 202.601C159.195 203.004 158.864 203.487 158.638 204.02C158.413 204.554 158.298 205.129 158.3 205.708C158.3 208.064 160.176 209.976 162.5 210.001C164.824 209.976 166.7 208.065 166.7 205.708C166.7 204.485 166.201 203.384 165.387 202.601C164.752 201.991 163.839 200.6 163.55 199.495C164.166 199.858 164.735 200.27 165.063 200.618C165.457 201.038 165.933 201.373 166.462 201.601C166.99 201.83 167.56 201.947 168.136 201.945C170.481 201.945 172.383 200.025 172.383 197.652C172.383 195.279 170.483 193.359 168.136 193.359C166.924 193.359 165.838 193.879 165.063 194.702C164.718 195.068 164.11 195.524 163.458 195.904C163.52 192.875 164.966 190.65 166.439 189.774V189H158.564V189.774C160.036 190.651 161.483 192.876 161.544 195.904C160.891 195.524 160.283 195.068 159.939 194.702C159.546 194.279 159.071 193.942 158.542 193.711C158.014 193.48 157.444 193.36 156.867 193.359C154.521 193.359 152.619 195.28 152.619 197.652C152.619 200.024 154.52 201.945 156.867 201.945H156.864Z" fill="black"/>
<path d="M163.748 218.908C163.196 218.908 162.656 219.028 162.128 219.268C161.6 219.532 161.132 219.892 160.724 220.348C160.292 220.804 159.956 221.344 159.716 221.968C159.452 222.592 159.32 223.264 159.32 223.984C159.32 224.8 159.464 225.496 159.752 226.072C160.016 226.672 160.376 227.164 160.832 227.548C161.264 227.932 161.768 228.208 162.344 228.376C162.92 228.568 163.496 228.664 164.072 228.664H166.16V230.104L160.76 237.16L159.536 238.42V238.564L161.48 238.348H166.916L168.32 234.676H169.544C169.664 235.18 169.796 235.78 169.94 236.476C170.06 237.172 170.18 237.868 170.3 238.564C170.396 239.26 170.48 239.932 170.552 240.58C170.6 241.228 170.624 241.768 170.624 242.2H154.928V240.436L161.156 232.84L162.704 231.256V231.184L161.48 231.436C160.352 231.388 159.344 231.172 158.456 230.788C157.544 230.428 156.788 229.924 156.188 229.276C155.564 228.652 155.096 227.92 154.784 227.08C154.448 226.24 154.28 225.316 154.28 224.308C154.28 223.108 154.544 222.028 155.072 221.068C155.576 220.108 156.26 219.292 157.124 218.62C157.988 217.948 158.996 217.432 160.148 217.072C161.3 216.736 162.512 216.568 163.784 216.568C164.504 216.568 165.224 216.628 165.944 216.748C166.664 216.844 167.348 216.988 167.996 217.18C168.62 217.372 169.196 217.6 169.724 217.864C170.228 218.128 170.66 218.416 171.02 218.728L169.688 222.472H168.644C168.5 222.304 168.308 222.076 168.068 221.788C167.804 221.524 167.54 221.236 167.276 220.924C166.988 220.612 166.712 220.3 166.448 219.988C166.184 219.676 165.956 219.412 165.764 219.196C165.524 219.148 165.26 219.088 164.972 219.016C164.66 218.944 164.252 218.908 163.748 218.908Z" fill="black"/>
<path d="M85.1804 207.11C86.9668 207.11 88.5729 206.366 89.7161 205.151C90.2004 204.637 91.0413 204.027 91.95 203.492C91.5238 205.124 90.1733 207.177 89.2375 208.078C88.6216 208.672 88.1324 209.385 87.7994 210.173C87.4664 210.961 87.2965 211.809 87.3 212.664C87.3 216.142 90.0687 218.965 93.5 219.002C96.9313 218.965 99.7 216.144 99.7 212.664C99.7 210.859 98.9638 209.233 97.7625 208.078C96.8248 207.177 95.4763 205.124 95.05 203.492C95.9587 204.029 96.7996 204.637 97.2839 205.151C97.8651 205.771 98.5677 206.265 99.348 206.602C100.128 206.939 100.97 207.112 101.82 207.11C105.282 207.11 108.089 204.275 108.089 200.772C108.089 197.269 105.284 194.434 101.82 194.434C100.031 194.434 98.4271 195.202 97.2839 196.417C96.7744 196.957 95.8773 197.631 94.9144 198.191C95.0054 193.72 97.1406 190.435 99.3144 189.143V188H87.6894V189.143C89.8633 190.437 91.9984 193.721 92.0895 198.191C91.1246 197.631 90.2276 196.957 89.7199 196.417C89.1399 195.793 88.438 195.296 87.6578 194.955C86.8776 194.614 86.0357 194.437 85.1843 194.434C81.7219 194.434 78.9145 197.271 78.9145 200.772C78.9145 204.273 81.72 207.11 85.1843 207.11H85.1804Z" fill="black"/>
<path d="M101.82 55.8904C100.033 55.8904 98.4271 56.6344 97.2839 57.8492C96.7996 58.3627 95.9587 58.973 95.05 59.5077C95.4762 57.8764 96.8267 55.8226 97.7625 54.9217C98.3784 54.3277 98.8676 53.6151 99.2006 52.8269C99.5336 52.0387 99.7035 51.1913 99.7 50.3356C99.7 46.8578 96.9313 44.0349 93.5 43.998C90.0687 44.0349 87.3 46.8559 87.3 50.3356C87.3 52.1414 88.0362 53.7669 89.2375 54.9217C90.1752 55.8226 91.5237 57.8764 91.95 59.5077C91.0413 58.971 90.2004 58.3627 89.7161 57.8492C89.1349 57.229 88.4323 56.735 87.652 56.398C86.8717 56.0611 86.0303 55.8883 85.1804 55.8904C81.7181 55.8904 78.9106 58.725 78.9106 62.228C78.9106 65.731 81.7161 68.5655 85.1804 68.5655C86.9687 68.5655 88.5729 67.7983 89.7161 66.5835C90.2256 66.0429 91.1227 65.3687 92.0856 64.8087C91.9946 69.2805 89.8594 72.5645 87.6856 73.8569V75H99.3106V73.8569C97.1367 72.5626 95.0016 69.2785 94.9105 64.8087C95.8754 65.3687 96.7724 66.0429 97.2801 66.5835C97.8601 67.2067 98.562 67.7042 99.3422 68.0452C100.122 68.3861 100.964 68.5632 101.816 68.5655C105.278 68.5655 108.085 65.729 108.085 62.228C108.085 58.7269 105.28 55.8904 101.816 55.8904H101.82Z" fill="black"/>
<path d="M101.82 127.89C100.033 127.89 98.4271 128.634 97.2839 129.849C96.7996 130.363 95.9587 130.973 95.05 131.508C95.4762 129.876 96.8267 127.823 97.7625 126.922C98.3784 126.328 98.8676 125.615 99.2006 124.827C99.5336 124.039 99.7035 123.191 99.7 122.336C99.7 118.858 96.9313 116.035 93.5 115.998C90.0687 116.035 87.3 118.856 87.3 122.336C87.3 124.141 88.0362 125.767 89.2375 126.922C90.1752 127.823 91.5237 129.876 91.95 131.508C91.0413 130.971 90.2004 130.363 89.7161 129.849C89.1349 129.229 88.4323 128.735 87.652 128.398C86.8717 128.061 86.0303 127.888 85.1804 127.89C81.7181 127.89 78.9106 130.725 78.9106 134.228C78.9106 137.731 81.7161 140.566 85.1804 140.566C86.9687 140.566 88.5729 139.798 89.7161 138.583C90.2256 138.043 91.1227 137.369 92.0856 136.809C91.9946 141.28 89.8594 144.565 87.6856 145.857V147H99.3106V145.857C97.1367 144.563 95.0016 141.279 94.9105 136.809C95.8754 137.369 96.7724 138.043 97.2801 138.583C97.8601 139.207 98.562 139.704 99.3422 140.045C100.122 140.386 100.964 140.563 101.816 140.566C105.278 140.566 108.085 137.729 108.085 134.228C108.085 130.727 105.28 127.89 101.816 127.89H101.82Z" fill="black"/>
</svg>
