<svg width="188" height="263" viewBox="0 0 188 263" fill="none" xmlns="http://www.w3.org/2000/svg">
<rect width="188" height="263" rx="4" fill="#F5F0E8"/>
<rect x="6.5" y="6.5" width="175" height="250" rx="2.5" fill="#F5F0E8" stroke="black" stroke-linecap="round"/>
<rect x="8.5" y="8.5" width="171" height="246" rx="2.5" fill="#F5F0E8" stroke="black" stroke-linecap="round"/>
<path d="M129.82 55.8904C128.033 55.8904 126.427 56.6344 125.284 57.8492C124.8 58.3627 123.959 58.973 123.05 59.5077C123.476 57.8764 124.827 55.8226 125.763 54.9217C126.378 54.3277 126.868 53.6151 127.201 52.8269C127.534 52.0387 127.703 51.1913 127.7 50.3356C127.7 46.8578 124.931 44.0349 121.5 43.998C118.069 44.0349 115.3 46.8559 115.3 50.3356C115.3 52.1414 116.036 53.7669 117.238 54.9217C118.175 55.8226 119.524 57.8764 119.95 59.5077C119.041 58.971 118.2 58.3627 117.716 57.8492C117.135 57.229 116.432 56.735 115.652 56.398C114.872 56.0611 114.03 55.8883 113.18 55.8904C109.718 55.8904 106.911 58.725 106.911 62.228C106.911 65.731 109.716 68.5655 113.18 68.5655C114.969 68.5655 116.573 67.7983 117.716 66.5835C118.226 66.0429 119.123 65.3687 120.086 64.8087C119.995 69.2805 117.859 72.5645 115.686 73.8569V75H127.311V73.8569C125.137 72.5626 123.002 69.2785 122.911 64.8087C123.875 65.3687 124.772 66.0429 125.28 66.5835C125.86 67.2067 126.562 67.7042 127.342 68.0452C128.122 68.3861 128.964 68.5632 129.816 68.5655C133.278 68.5655 136.086 65.729 136.086 62.228C136.086 58.7269 133.28 55.8904 129.816 55.8904H129.82Z" fill="black"/>
<path d="M72.8196 55.8904C71.0332 55.8904 69.4271 56.6344 68.2839 57.8492C67.7996 58.3627 66.9587 58.973 66.05 59.5077C66.4762 57.8764 67.8267 55.8226 68.7625 54.9217C69.3784 54.3277 69.8676 53.6151 70.2006 52.8269C70.5336 52.0387 70.7035 51.1913 70.7 50.3356C70.7 46.8578 67.9313 44.0349 64.5 43.998C61.0687 44.0349 58.3 46.8559 58.3 50.3356C58.3 52.1414 59.0362 53.7669 60.2375 54.9217C61.1752 55.8226 62.5237 57.8764 62.95 59.5077C62.0413 58.971 61.2004 58.3627 60.7161 57.8492C60.1349 57.229 59.4323 56.735 58.652 56.398C57.8717 56.0611 57.0303 55.8883 56.1804 55.8904C52.7181 55.8904 49.9106 58.725 49.9106 62.228C49.9106 65.731 52.7161 68.5655 56.1804 68.5655C57.9687 68.5655 59.5729 67.7983 60.7161 66.5835C61.2256 66.0429 62.1227 65.3687 63.0856 64.8087C62.9946 69.2805 60.8594 72.5645 58.6856 73.8569V75H70.3106V73.8569C68.1367 72.5626 66.0016 69.2785 65.9105 64.8087C66.8754 65.3687 67.7724 66.0429 68.2801 66.5835C68.8601 67.2067 69.562 67.7042 70.3422 68.0452C71.1224 68.3861 71.9643 68.5632 72.8157 68.5655C76.2781 68.5655 79.0855 65.729 79.0855 62.228C79.0855 58.7269 76.28 55.8904 72.8157 55.8904H72.8196Z" fill="black"/>
<path d="M56.1804 207.11C57.9667 207.11 59.5729 206.366 60.7161 205.151C61.2004 204.637 62.0413 204.027 62.95 203.492C62.5237 205.124 61.1733 207.177 60.2375 208.078C59.6216 208.672 59.1324 209.385 58.7994 210.173C58.4664 210.961 58.2965 211.809 58.3 212.664C58.3 216.142 61.0687 218.965 64.5 219.002C67.9313 218.965 70.7 216.144 70.7 212.664C70.7 210.859 69.9637 209.233 68.7625 208.078C67.8247 207.177 66.4762 205.124 66.05 203.492C66.9587 204.029 67.7996 204.637 68.2839 205.151C68.8651 205.771 69.5677 206.265 70.348 206.602C71.1283 206.939 71.9697 207.112 72.8196 207.11C76.2819 207.11 79.0894 204.275 79.0894 200.772C79.0894 197.269 76.2839 194.434 72.8196 194.434C71.0313 194.434 69.4271 195.202 68.2839 196.417C67.7744 196.957 66.8773 197.631 65.9144 198.191C66.0054 193.72 68.1406 190.435 70.3144 189.143V188H58.6894V189.143C60.8633 190.437 62.9984 193.721 63.0895 198.191C62.1246 197.631 61.2276 196.957 60.7199 196.417C60.1398 195.793 59.438 195.296 58.6578 194.955C57.8776 194.614 57.0357 194.437 56.1842 194.434C52.7219 194.434 49.9145 197.271 49.9145 200.772C49.9145 204.273 52.72 207.11 56.1842 207.11H56.1804Z" fill="black"/>
<path d="M113.18 207.11C114.967 207.11 116.573 206.366 117.716 205.151C118.2 204.637 119.041 204.027 119.95 203.492C119.524 205.124 118.173 207.177 117.237 208.078C116.622 208.672 116.132 209.385 115.799 210.173C115.466 210.961 115.297 211.809 115.3 212.664C115.3 216.142 118.069 218.965 121.5 219.002C124.931 218.965 127.7 216.144 127.7 212.664C127.7 210.859 126.964 209.233 125.762 208.078C124.825 207.177 123.476 205.124 123.05 203.492C123.959 204.029 124.8 204.637 125.284 205.151C125.865 205.771 126.568 206.265 127.348 206.602C128.128 206.939 128.97 207.112 129.82 207.11C133.282 207.11 136.089 204.275 136.089 200.772C136.089 197.269 133.284 194.434 129.82 194.434C128.031 194.434 126.427 195.202 125.284 196.417C124.774 196.957 123.877 197.631 122.914 198.191C123.005 193.72 125.141 190.435 127.314 189.143V188H115.689V189.143C117.863 190.437 119.998 193.721 120.089 198.191C119.125 197.631 118.228 196.957 117.72 196.417C117.14 195.793 116.438 195.296 115.658 194.955C114.878 194.614 114.036 194.437 113.184 194.434C109.722 194.434 106.914 197.271 106.914 200.772C106.914 204.273 109.72 207.11 113.184 207.11H113.18Z" fill="black"/>
<path d="M31.1359 61.0548C29.9258 61.0548 28.8377 61.5588 28.0633 62.3817C27.7352 62.7295 27.1656 63.143 26.55 63.5052C26.8388 62.4001 27.7536 61.0088 28.3875 60.3985C28.8047 59.9962 29.1361 59.5134 29.3617 58.9795C29.5873 58.4456 29.7023 57.8715 29.7 57.2918C29.7 54.9359 27.8244 53.0236 25.5 52.9987C23.1756 53.0236 21.3 54.9346 21.3 57.2918C21.3 58.5151 21.7988 59.6163 22.6125 60.3985C23.2478 61.0088 24.1613 62.4001 24.45 63.5052C23.8344 63.1417 23.2648 62.7295 22.9367 62.3817C22.543 61.9616 22.067 61.6269 21.5384 61.3987C21.0098 61.1704 20.4399 61.0533 19.8641 61.0548C17.5187 61.0548 15.6169 62.975 15.6169 65.348C15.6169 67.721 17.5174 69.6412 19.8641 69.6412C21.0756 69.6412 22.1623 69.1214 22.9367 68.2985C23.2819 67.9323 23.8896 67.4755 24.5419 67.0962C24.4802 70.1255 23.0338 72.3502 21.5612 73.2256V74H29.4362V73.2256C27.9636 72.3488 26.5172 70.1242 26.4555 67.0962C27.1091 67.4755 27.7168 67.9323 28.0607 68.2985C28.4537 68.7207 28.9291 69.0577 29.4576 69.2887C29.9862 69.5196 30.5565 69.6396 31.1333 69.6412C33.4787 69.6412 35.3805 67.7197 35.3805 65.348C35.3805 62.9763 33.48 61.0548 31.1333 61.0548H31.1359Z" fill="black"/>
<path d="M33.468 46H22.344V44.452C23.52 44.044 24.624 43.756 25.656 43.588V39.52H15V37.9L28.788 20.368H30.732V37.18H35.16V39.52H30.732V43.588C31.668 43.78 32.58 44.068 33.468 44.452V46ZM25.656 29.512L26.016 26.992H25.908L24.54 29.512L19.32 36.244L17.88 37.432L20.436 37.18H25.656V29.512Z" fill="black"/>
<path d="M156.864 201.945C158.074 201.945 159.162 201.441 159.937 200.618C160.265 200.27 160.834 199.857 161.45 199.495C161.161 200.6 160.246 201.991 159.612 202.601C159.195 203.004 158.864 203.487 158.638 204.02C158.413 204.554 158.298 205.129 158.3 205.708C158.3 208.064 160.176 209.976 162.5 210.001C164.824 209.976 166.7 208.065 166.7 205.708C166.7 204.485 166.201 203.384 165.387 202.601C164.752 201.991 163.839 200.6 163.55 199.495C164.166 199.858 164.735 200.27 165.063 200.618C165.457 201.038 165.933 201.373 166.462 201.601C166.99 201.83 167.56 201.947 168.136 201.945C170.481 201.945 172.383 200.025 172.383 197.652C172.383 195.279 170.483 193.359 168.136 193.359C166.924 193.359 165.838 193.879 165.063 194.702C164.718 195.068 164.11 195.524 163.458 195.904C163.52 192.875 164.966 190.65 166.439 189.774V189H158.564V189.774C160.036 190.651 161.483 192.876 161.544 195.904C160.891 195.524 160.283 195.068 159.939 194.702C159.546 194.279 159.071 193.942 158.542 193.711C158.014 193.48 157.444 193.36 156.867 193.359C154.521 193.359 152.619 195.28 152.619 197.652C152.619 200.024 154.52 201.945 156.867 201.945H156.864Z" fill="black"/>
<path d="M154.532 217H165.656V218.548C164.48 218.956 163.376 219.244 162.344 219.412V223.48H173V225.1L159.212 242.632H157.268V225.82H152.84V223.48H157.268V219.412C156.332 219.22 155.42 218.932 154.532 218.548V217ZM162.344 233.488L161.984 236.008H162.092L163.46 233.488L168.68 226.756L170.12 225.568L167.564 225.82H162.344V233.488Z" fill="black"/>
</svg>
