<svg width="188" height="263" viewBox="0 0 188 263" fill="none" xmlns="http://www.w3.org/2000/svg">
<rect width="188" height="263" rx="4" fill="#F5F0E8"/>
<rect x="6.5" y="6.5" width="175" height="250" rx="2.5" fill="#F5F0E8" stroke="black" stroke-linecap="round"/>
<rect x="8.5" y="8.5" width="171" height="246" rx="2.5" fill="#F5F0E8" stroke="black" stroke-linecap="round"/>
<path d="M72.8196 55.8904C71.0332 55.8904 69.4271 56.6344 68.2839 57.8492C67.7996 58.3627 66.9587 58.973 66.05 59.5077C66.4762 57.8764 67.8267 55.8226 68.7625 54.9217C69.3784 54.3277 69.8676 53.6151 70.2006 52.8269C70.5336 52.0387 70.7035 51.1913 70.7 50.3356C70.7 46.8578 67.9313 44.0349 64.5 43.998C61.0687 44.0349 58.3 46.8559 58.3 50.3356C58.3 52.1414 59.0362 53.7669 60.2375 54.9217C61.1752 55.8226 62.5237 57.8764 62.95 59.5077C62.0413 58.971 61.2004 58.3627 60.7161 57.8492C60.1349 57.229 59.4323 56.735 58.652 56.398C57.8716 56.0611 57.0303 55.8883 56.1804 55.8904C52.7181 55.8904 49.9106 58.725 49.9106 62.228C49.9106 65.731 52.7161 68.5655 56.1804 68.5655C57.9687 68.5655 59.5729 67.7983 60.7161 66.5835C61.2256 66.0429 62.1227 65.3687 63.0856 64.8087C62.9946 69.2805 60.8594 72.5645 58.6856 73.8569V75H70.3106V73.8569C68.1367 72.5626 66.0016 69.2785 65.9105 64.8087C66.8754 65.3687 67.7724 66.0429 68.2801 66.5835C68.8601 67.2067 69.562 67.7042 70.3422 68.0452C71.1224 68.3861 71.9643 68.5632 72.8157 68.5655C76.2781 68.5655 79.0855 65.729 79.0855 62.228C79.0855 58.7269 76.28 55.8904 72.8157 55.8904H72.8196Z" fill="black"/>
<path d="M102.82 127.89C101.033 127.89 99.4271 128.634 98.2839 129.849C97.7996 130.363 96.9587 130.973 96.05 131.508C96.4762 129.876 97.8267 127.823 98.7625 126.922C99.3784 126.328 99.8676 125.615 100.201 124.827C100.534 124.039 100.703 123.191 100.7 122.336C100.7 118.858 97.9313 116.035 94.5 115.998C91.0687 116.035 88.3 118.856 88.3 122.336C88.3 124.141 89.0362 125.767 90.2375 126.922C91.1752 127.823 92.5237 129.876 92.95 131.508C92.0413 130.971 91.2004 130.363 90.7161 129.849C90.1349 129.229 89.4323 128.735 88.652 128.398C87.8716 128.061 87.0303 127.888 86.1804 127.89C82.7181 127.89 79.9106 130.725 79.9106 134.228C79.9106 137.731 82.7161 140.566 86.1804 140.566C87.9687 140.566 89.5729 139.798 90.7161 138.583C91.2256 138.043 92.1227 137.369 93.0856 136.809C92.9946 141.28 90.8594 144.565 88.6856 145.857V147H100.311V145.857C98.1367 144.563 96.0016 141.279 95.9105 136.809C96.8754 137.369 97.7724 138.043 98.2801 138.583C98.8601 139.207 99.562 139.704 100.342 140.045C101.122 140.386 101.964 140.563 102.816 140.566C106.278 140.566 109.085 137.729 109.085 134.228C109.085 130.727 106.28 127.89 102.816 127.89H102.82Z" fill="black"/>
<path d="M131.82 55.8904C130.033 55.8904 128.427 56.6344 127.284 57.8492C126.8 58.3627 125.959 58.973 125.05 59.5077C125.476 57.8764 126.827 55.8226 127.762 54.9217C128.378 54.3277 128.868 53.6151 129.201 52.8269C129.534 52.0387 129.703 51.1913 129.7 50.3356C129.7 46.8578 126.931 44.0349 123.5 43.998C120.069 44.0349 117.3 46.8559 117.3 50.3356C117.3 52.1414 118.036 53.7669 119.237 54.9217C120.175 55.8226 121.524 57.8764 121.95 59.5077C121.041 58.971 120.2 58.3627 119.716 57.8492C119.135 57.229 118.432 56.735 117.652 56.398C116.872 56.0611 116.03 55.8883 115.18 55.8904C111.718 55.8904 108.911 58.725 108.911 62.228C108.911 65.731 111.716 68.5655 115.18 68.5655C116.969 68.5655 118.573 67.7983 119.716 66.5835C120.226 66.0429 121.123 65.3687 122.086 64.8087C121.995 69.2805 119.859 72.5645 117.686 73.8569V75H129.311V73.8569C127.137 72.5626 125.002 69.2785 124.91 64.8087C125.875 65.3687 126.772 66.0429 127.28 66.5835C127.86 67.2067 128.562 67.7042 129.342 68.0452C130.122 68.3861 130.964 68.5632 131.816 68.5655C135.278 68.5655 138.085 65.729 138.085 62.228C138.085 58.7269 135.28 55.8904 131.816 55.8904H131.82Z" fill="black"/>
<path d="M115.18 207.11C116.967 207.11 118.573 206.366 119.716 205.151C120.2 204.637 121.041 204.027 121.95 203.492C121.524 205.124 120.173 207.177 119.238 208.078C118.622 208.672 118.132 209.385 117.799 210.173C117.466 210.961 117.297 211.809 117.3 212.664C117.3 216.142 120.069 218.965 123.5 219.002C126.931 218.965 129.7 216.144 129.7 212.664C129.7 210.859 128.964 209.233 127.763 208.078C126.825 207.177 125.476 205.124 125.05 203.492C125.959 204.029 126.8 204.637 127.284 205.151C127.865 205.771 128.568 206.265 129.348 206.602C130.128 206.939 130.97 207.112 131.82 207.11C135.282 207.11 138.089 204.275 138.089 200.772C138.089 197.269 135.284 194.434 131.82 194.434C130.031 194.434 128.427 195.202 127.284 196.417C126.774 196.957 125.877 197.631 124.914 198.191C125.005 193.72 127.141 190.435 129.314 189.143V188H117.689V189.143C119.863 190.437 121.998 193.721 122.09 198.191C121.125 197.631 120.228 196.957 119.72 196.417C119.14 195.793 118.438 195.296 117.658 194.955C116.878 194.614 116.036 194.437 115.184 194.434C111.722 194.434 108.915 197.271 108.915 200.772C108.915 204.273 111.72 207.11 115.184 207.11H115.18Z" fill="black"/>
<path d="M56.1804 207.11C57.9668 207.11 59.5729 206.366 60.7161 205.151C61.2004 204.637 62.0413 204.027 62.95 203.492C62.5238 205.124 61.1733 207.177 60.2375 208.078C59.6216 208.672 59.1324 209.385 58.7994 210.173C58.4664 210.961 58.2965 211.809 58.3 212.664C58.3 216.142 61.0687 218.965 64.5 219.002C67.9313 218.965 70.7 216.144 70.7 212.664C70.7 210.859 69.9638 209.233 68.7625 208.078C67.8248 207.177 66.4763 205.124 66.05 203.492C66.9587 204.029 67.7996 204.637 68.2839 205.151C68.8651 205.771 69.5677 206.265 70.348 206.602C71.1284 206.939 71.9697 207.112 72.8196 207.11C76.2819 207.11 79.0894 204.275 79.0894 200.772C79.0894 197.269 76.2839 194.434 72.8196 194.434C71.0313 194.434 69.4271 195.202 68.2839 196.417C67.7744 196.957 66.8773 197.631 65.9144 198.191C66.0054 193.72 68.1406 190.435 70.3144 189.143V188H58.6894V189.143C60.8633 190.437 62.9984 193.721 63.0895 198.191C62.1246 197.631 61.2276 196.957 60.7199 196.417C60.1399 195.793 59.438 195.296 58.6578 194.955C57.8776 194.614 57.0357 194.437 56.1843 194.434C52.7219 194.434 49.9145 197.271 49.9145 200.772C49.9145 204.273 52.72 207.11 56.1843 207.11H56.1804Z" fill="black"/>
<path d="M31.1359 61.0548C29.9258 61.0548 28.8377 61.5588 28.0633 62.3817C27.7352 62.7295 27.1656 63.143 26.55 63.5052C26.8388 62.4001 27.7536 61.0088 28.3875 60.3985C28.8047 59.9962 29.1361 59.5134 29.3617 58.9795C29.5873 58.4456 29.7024 57.8715 29.7 57.2918C29.7 54.9359 27.8244 53.0236 25.5 52.9987C23.1756 53.0236 21.3 54.9346 21.3 57.2918C21.3 58.5151 21.7988 59.6163 22.6125 60.3985C23.2478 61.0088 24.1613 62.4001 24.45 63.5052C23.8344 63.1417 23.2648 62.7295 22.9367 62.3817C22.543 61.9616 22.067 61.6269 21.5384 61.3987C21.0098 61.1704 20.4399 61.0533 19.8641 61.0548C17.5187 61.0548 15.6169 62.975 15.6169 65.348C15.6169 67.721 17.5174 69.6412 19.8641 69.6412C21.0756 69.6412 22.1623 69.1214 22.9367 68.2985C23.2819 67.9323 23.8896 67.4755 24.5419 67.0962C24.4802 70.1255 23.0338 72.3502 21.5612 73.2256V74H29.4362V73.2256C27.9636 72.3488 26.5172 70.1242 26.4555 67.0962C27.1091 67.4755 27.7168 67.9323 28.0607 68.2985C28.4537 68.7207 28.9291 69.0577 29.4576 69.2887C29.9862 69.5196 30.5565 69.6396 31.1333 69.6412C33.4787 69.6412 35.3805 67.7197 35.3805 65.348C35.3805 62.9763 33.48 61.0548 31.1333 61.0548H31.1359Z" fill="black"/>
<path d="M31.38 18.82H32.604C32.604 19.18 32.592 19.648 32.568 20.224C32.544 20.8 32.496 21.388 32.424 21.988C32.352 22.588 32.268 23.164 32.172 23.716C32.076 24.244 31.98 24.652 31.884 24.94H22.02L21.372 30.088H24.36C25.656 30.088 26.832 30.268 27.888 30.628C28.944 30.964 29.844 31.468 30.588 32.14C31.332 32.788 31.908 33.592 32.316 34.552C32.724 35.488 32.928 36.568 32.928 37.792C32.928 39.16 32.664 40.384 32.136 41.464C31.632 42.52 30.936 43.42 30.048 44.164C29.16 44.884 28.116 45.448 26.916 45.856C25.716 46.24 24.42 46.432 23.028 46.432C21.636 46.432 20.364 46.216 19.212 45.784C18.06 45.328 17.136 44.824 16.44 44.272L17.952 40.708H18.996C19.164 40.876 19.356 41.092 19.572 41.356C19.788 41.62 20.016 41.896 20.256 42.184C20.496 42.472 20.724 42.76 20.94 43.048C21.156 43.336 21.348 43.588 21.516 43.804C21.756 43.9 21.972 43.972 22.164 44.02C22.38 44.068 22.656 44.092 22.992 44.092C23.712 44.092 24.384 43.972 25.008 43.732C25.632 43.468 26.16 43.108 26.592 42.652C27.048 42.196 27.408 41.656 27.672 41.032C27.936 40.384 28.068 39.676 28.068 38.908C28.068 38.068 27.9 37.336 27.564 36.712C27.252 36.064 26.82 35.536 26.268 35.128C25.716 34.72 25.068 34.42 24.324 34.228C23.58 34.012 22.8 33.904 21.984 33.904L18.852 33.94L20.292 20.8H29.688L31.38 18.82Z" fill="black"/>
<path d="M156.864 201.945C158.074 201.945 159.162 201.441 159.937 200.618C160.265 200.27 160.834 199.857 161.45 199.495C161.161 200.6 160.246 201.991 159.612 202.601C159.195 203.004 158.864 203.487 158.638 204.02C158.413 204.554 158.298 205.129 158.3 205.708C158.3 208.064 160.176 209.976 162.5 210.001C164.824 209.976 166.7 208.065 166.7 205.708C166.7 204.485 166.201 203.384 165.387 202.601C164.752 201.991 163.839 200.6 163.55 199.495C164.166 199.858 164.735 200.27 165.063 200.618C165.457 201.038 165.933 201.373 166.462 201.601C166.99 201.83 167.56 201.947 168.136 201.945C170.481 201.945 172.383 200.025 172.383 197.652C172.383 195.279 170.483 193.359 168.136 193.359C166.924 193.359 165.838 193.879 165.063 194.702C164.718 195.068 164.11 195.524 163.458 195.904C163.52 192.875 164.966 190.65 166.439 189.774V189H158.564V189.774C160.036 190.651 161.483 192.876 161.544 195.904C160.891 195.524 160.283 195.068 159.939 194.702C159.546 194.279 159.071 193.942 158.542 193.711C158.014 193.48 157.444 193.36 156.867 193.359C154.521 193.359 152.619 195.28 152.619 197.652C152.619 200.024 154.52 201.945 156.867 201.945H156.864Z" fill="black"/>
<path d="M156.62 244.18H155.396C155.396 243.82 155.408 243.352 155.432 242.776C155.456 242.2 155.504 241.612 155.576 241.012C155.648 240.412 155.732 239.836 155.828 239.284C155.924 238.756 156.02 238.348 156.116 238.06H165.98L166.628 232.912H163.64C162.344 232.912 161.168 232.732 160.112 232.372C159.056 232.036 158.156 231.532 157.412 230.86C156.668 230.212 156.092 229.408 155.684 228.448C155.276 227.512 155.072 226.432 155.072 225.208C155.072 223.84 155.336 222.616 155.864 221.536C156.368 220.48 157.064 219.58 157.952 218.836C158.84 218.116 159.884 217.552 161.084 217.144C162.284 216.76 163.58 216.568 164.972 216.568C166.364 216.568 167.636 216.784 168.788 217.216C169.94 217.672 170.864 218.176 171.56 218.728L170.048 222.292H169.004C168.836 222.124 168.644 221.908 168.428 221.644C168.212 221.38 167.984 221.104 167.744 220.816C167.504 220.528 167.276 220.24 167.06 219.952C166.844 219.664 166.652 219.412 166.484 219.196C166.244 219.1 166.028 219.028 165.836 218.98C165.62 218.932 165.344 218.908 165.008 218.908C164.288 218.908 163.616 219.028 162.992 219.268C162.368 219.532 161.84 219.892 161.408 220.348C160.952 220.804 160.592 221.344 160.328 221.968C160.064 222.616 159.932 223.324 159.932 224.092C159.932 224.932 160.1 225.664 160.436 226.288C160.748 226.936 161.18 227.464 161.732 227.872C162.284 228.28 162.932 228.58 163.676 228.772C164.42 228.988 165.2 229.096 166.016 229.096L169.148 229.06L167.708 242.2H158.312L156.62 244.18Z" fill="black"/>
</svg>
