<svg width="188" height="263" viewBox="0 0 188 263" fill="none" xmlns="http://www.w3.org/2000/svg">
<rect width="188" height="263" rx="4" fill="#F5F0E8"/>
<rect x="6.5" y="6.5" width="175" height="250" rx="2.5" fill="#F5F0E8" stroke="black" stroke-linecap="round"/>
<rect x="8.5" y="8.5" width="171" height="246" rx="2.5" fill="#F5F0E8" stroke="black" stroke-linecap="round"/>
<path d="M72.8196 55.8904C71.0333 55.8904 69.4271 56.6344 68.284 57.8492C67.7996 58.3627 66.9587 58.973 66.05 59.5077C66.4763 57.8764 67.8267 55.8226 68.7625 54.9217C69.3784 54.3277 69.8676 53.6151 70.2006 52.8269C70.5336 52.0387 70.7035 51.1913 70.7 50.3356C70.7 46.8578 67.9313 44.0349 64.5 43.998C61.0687 44.0349 58.3 46.8559 58.3 50.3356C58.3 52.1414 59.0363 53.7669 60.2375 54.9217C61.1753 55.8226 62.5238 57.8764 62.95 59.5077C62.0413 58.971 61.2005 58.3627 60.7161 57.8492C60.1349 57.229 59.4323 56.735 58.652 56.398C57.8717 56.0611 57.0304 55.8883 56.1804 55.8904C52.7181 55.8904 49.9106 58.725 49.9106 62.228C49.9106 65.731 52.7161 68.5655 56.1804 68.5655C57.9687 68.5655 59.573 67.7983 60.7161 66.5835C61.2256 66.0429 62.1227 65.3687 63.0856 64.8087C62.9946 69.2805 60.8595 72.5645 58.6856 73.8569V75H70.3106V73.8569C68.1367 72.5626 66.0016 69.2785 65.9105 64.8087C66.8754 65.3687 67.7725 66.0429 68.2801 66.5835C68.8602 67.2067 69.5621 67.7042 70.3422 68.0452C71.1224 68.3861 71.9643 68.5632 72.8158 68.5655C76.2781 68.5655 79.0855 65.729 79.0855 62.228C79.0855 58.7269 76.28 55.8904 72.8158 55.8904H72.8196Z" fill="black"/>
<path d="M131.82 55.8904C130.033 55.8904 128.427 56.6344 127.284 57.8492C126.8 58.3627 125.959 58.973 125.05 59.5077C125.476 57.8764 126.827 55.8226 127.763 54.9217C128.378 54.3277 128.868 53.6151 129.201 52.8269C129.534 52.0387 129.703 51.1913 129.7 50.3356C129.7 46.8578 126.931 44.0349 123.5 43.998C120.069 44.0349 117.3 46.8559 117.3 50.3356C117.3 52.1414 118.036 53.7669 119.238 54.9217C120.175 55.8226 121.524 57.8764 121.95 59.5077C121.041 58.971 120.2 58.3627 119.716 57.8492C119.135 57.229 118.432 56.735 117.652 56.398C116.872 56.0611 116.03 55.8883 115.18 55.8904C111.718 55.8904 108.911 58.725 108.911 62.228C108.911 65.731 111.716 68.5655 115.18 68.5655C116.969 68.5655 118.573 67.7983 119.716 66.5835C120.226 66.0429 121.123 65.3687 122.086 64.8087C121.995 69.2805 119.859 72.5645 117.686 73.8569V75H129.311V73.8569C127.137 72.5626 125.002 69.2785 124.911 64.8087C125.875 65.3687 126.772 66.0429 127.28 66.5835C127.86 67.2067 128.562 67.7042 129.342 68.0452C130.122 68.3861 130.964 68.5632 131.816 68.5655C135.278 68.5655 138.086 65.729 138.086 62.228C138.086 58.7269 135.28 55.8904 131.816 55.8904H131.82Z" fill="black"/>
<path d="M56.1804 207.11C57.9667 207.11 59.5729 206.366 60.716 205.151C61.2004 204.637 62.0413 204.027 62.95 203.492C62.5237 205.124 61.1733 207.177 60.2375 208.078C59.6216 208.672 59.1324 209.385 58.7994 210.173C58.4664 210.961 58.2965 211.809 58.3 212.664C58.3 216.142 61.0687 218.965 64.5 219.002C67.9313 218.965 70.7 216.144 70.7 212.664C70.7 210.859 69.9637 209.233 68.7625 208.078C67.8247 207.177 66.4762 205.124 66.05 203.492C66.9587 204.029 67.7995 204.637 68.2839 205.151C68.8651 205.771 69.5677 206.265 70.348 206.602C71.1283 206.939 71.9696 207.112 72.8196 207.11C76.2819 207.11 79.0894 204.275 79.0894 200.772C79.0894 197.269 76.2839 194.434 72.8196 194.434C71.0313 194.434 69.427 195.202 68.2839 196.417C67.7744 196.957 66.8773 197.631 65.9144 198.191C66.0054 193.72 68.1405 190.435 70.3144 189.143V188H58.6894V189.143C60.8633 190.437 62.9984 193.721 63.0895 198.191C62.1246 197.631 61.2275 196.957 60.7199 196.417C60.1398 195.793 59.4379 195.296 58.6578 194.955C57.8776 194.614 57.0357 194.437 56.1842 194.434C52.7219 194.434 49.9145 197.271 49.9145 200.772C49.9145 204.273 52.72 207.11 56.1842 207.11H56.1804Z" fill="black"/>
<path d="M115.18 207.11C116.967 207.11 118.573 206.366 119.716 205.151C120.2 204.637 121.041 204.027 121.95 203.492C121.524 205.124 120.173 207.177 119.237 208.078C118.622 208.672 118.132 209.385 117.799 210.173C117.466 210.961 117.297 211.809 117.3 212.664C117.3 216.142 120.069 218.965 123.5 219.002C126.931 218.965 129.7 216.144 129.7 212.664C129.7 210.859 128.964 209.233 127.762 208.078C126.825 207.177 125.476 205.124 125.05 203.492C125.959 204.029 126.8 204.637 127.284 205.151C127.865 205.771 128.568 206.265 129.348 206.602C130.128 206.939 130.97 207.112 131.82 207.11C135.282 207.11 138.089 204.275 138.089 200.772C138.089 197.269 135.284 194.434 131.82 194.434C130.031 194.434 128.427 195.202 127.284 196.417C126.774 196.957 125.877 197.631 124.914 198.191C125.005 193.72 127.141 190.435 129.314 189.143V188H117.689V189.143C119.863 190.437 121.998 193.721 122.089 198.191C121.125 197.631 120.228 196.957 119.72 196.417C119.14 195.793 118.438 195.296 117.658 194.955C116.878 194.614 116.036 194.437 115.184 194.434C111.722 194.434 108.914 197.271 108.914 200.772C108.914 204.273 111.72 207.11 115.184 207.11H115.18Z" fill="black"/>
<path d="M131.82 127.89C130.033 127.89 128.427 128.634 127.284 129.849C126.8 130.363 125.959 130.973 125.05 131.508C125.476 129.876 126.827 127.823 127.763 126.922C128.378 126.328 128.868 125.615 129.201 124.827C129.534 124.039 129.703 123.191 129.7 122.336C129.7 118.858 126.931 116.035 123.5 115.998C120.069 116.035 117.3 118.856 117.3 122.336C117.3 124.141 118.036 125.767 119.238 126.922C120.175 127.823 121.524 129.876 121.95 131.508C121.041 130.971 120.2 130.363 119.716 129.849C119.135 129.229 118.432 128.735 117.652 128.398C116.872 128.061 116.03 127.888 115.18 127.89C111.718 127.89 108.911 130.725 108.911 134.228C108.911 137.731 111.716 140.566 115.18 140.566C116.969 140.566 118.573 139.798 119.716 138.583C120.226 138.043 121.123 137.369 122.086 136.809C121.995 141.28 119.859 144.565 117.686 145.857V147H129.311V145.857C127.137 144.563 125.002 141.279 124.911 136.809C125.875 137.369 126.772 138.043 127.28 138.583C127.86 139.207 128.562 139.704 129.342 140.045C130.122 140.386 130.964 140.563 131.816 140.566C135.278 140.566 138.086 137.729 138.086 134.228C138.086 130.727 135.28 127.89 131.816 127.89H131.82Z" fill="black"/>
<path d="M72.8196 127.89C71.0333 127.89 69.4271 128.634 68.284 129.849C67.7996 130.363 66.9587 130.973 66.05 131.508C66.4763 129.876 67.8267 127.823 68.7625 126.922C69.3784 126.328 69.8676 125.615 70.2006 124.827C70.5336 124.039 70.7035 123.191 70.7 122.336C70.7 118.858 67.9313 116.035 64.5 115.998C61.0687 116.035 58.3 118.856 58.3 122.336C58.3 124.141 59.0363 125.767 60.2375 126.922C61.1753 127.823 62.5238 129.876 62.95 131.508C62.0413 130.971 61.2005 130.363 60.7161 129.849C60.1349 129.229 59.4323 128.735 58.652 128.398C57.8717 128.061 57.0304 127.888 56.1804 127.89C52.7181 127.89 49.9106 130.725 49.9106 134.228C49.9106 137.731 52.7161 140.566 56.1804 140.566C57.9687 140.566 59.573 139.798 60.7161 138.583C61.2256 138.043 62.1227 137.369 63.0856 136.809C62.9946 141.28 60.8595 144.565 58.6856 145.857V147H70.3106V145.857C68.1367 144.563 66.0016 141.279 65.9105 136.809C66.8754 137.369 67.7725 138.043 68.2801 138.583C68.8602 139.207 69.5621 139.704 70.3422 140.045C71.1224 140.386 71.9643 140.563 72.8158 140.566C76.2781 140.566 79.0855 137.729 79.0855 134.228C79.0855 130.727 76.28 127.89 72.8158 127.89H72.8196Z" fill="black"/>
<path d="M31.1359 61.0548C29.9258 61.0548 28.8377 61.5588 28.0633 62.3817C27.7352 62.7295 27.1656 63.143 26.55 63.5052C26.8388 62.4001 27.7536 61.0088 28.3875 60.3985C28.8047 59.9962 29.1361 59.5134 29.3617 58.9795C29.5873 58.4456 29.7024 57.8715 29.7 57.2918C29.7 54.9359 27.8244 53.0236 25.5 52.9987C23.1756 53.0236 21.3 54.9346 21.3 57.2918C21.3 58.5151 21.7988 59.6163 22.6125 60.3985C23.2478 61.0088 24.1613 62.4001 24.45 63.5052C23.8344 63.1417 23.2648 62.7295 22.9367 62.3817C22.543 61.9616 22.067 61.6269 21.5384 61.3987C21.0098 61.1704 20.4399 61.0533 19.8641 61.0548C17.5187 61.0548 15.6169 62.975 15.6169 65.348C15.6169 67.721 17.5174 69.6412 19.8641 69.6412C21.0756 69.6412 22.1623 69.1214 22.9367 68.2985C23.2819 67.9323 23.8896 67.4755 24.5419 67.0962C24.4802 70.1255 23.0338 72.3502 21.5612 73.2256V74H29.4362V73.2256C27.9636 72.3488 26.5172 70.1242 26.4555 67.0962C27.1091 67.4755 27.7168 67.9323 28.0607 68.2985C28.4537 68.7207 28.9291 69.0577 29.4576 69.2887C29.9862 69.5196 30.5565 69.6396 31.1333 69.6412C33.4787 69.6412 35.3805 67.7197 35.3805 65.348C35.3805 62.9763 33.48 61.0548 31.1333 61.0548H31.1359Z" fill="black"/>
<path d="M34.296 38.26C34.296 39.508 34.056 40.636 33.576 41.644C33.12 42.652 32.496 43.516 31.704 44.236C30.912 44.932 29.976 45.472 28.896 45.856C27.84 46.24 26.712 46.432 25.512 46.432C24.024 46.432 22.704 46.204 21.552 45.748C20.424 45.268 19.476 44.608 18.708 43.768C17.94 42.928 17.352 41.932 16.944 40.78C16.56 39.628 16.368 38.368 16.368 37C16.368 34.744 16.764 32.68 17.556 30.808C18.348 28.936 19.416 27.28 20.76 25.84C22.104 24.4 23.664 23.2 25.44 22.24C27.24 21.28 29.148 20.584 31.164 20.152L31.704 21.7C30.408 22.108 29.208 22.66 28.104 23.356C27 24.052 26.016 24.904 25.152 25.912C24.312 26.896 23.616 28.024 23.064 29.296C22.536 30.544 22.2 31.924 22.056 33.436C22.248 33.124 22.488 32.824 22.776 32.536C23.088 32.224 23.46 31.948 23.892 31.708C24.324 31.444 24.816 31.24 25.368 31.096C25.944 30.928 26.592 30.844 27.312 30.844C28.296 30.844 29.208 31 30.048 31.312C30.912 31.624 31.656 32.092 32.28 32.716C32.904 33.34 33.396 34.12 33.756 35.056C34.116 35.968 34.296 37.036 34.296 38.26ZM28.896 38.692C28.896 35.14 27.708 33.364 25.332 33.364C24.516 33.364 23.82 33.58 23.244 34.012C22.668 34.42 22.248 34.9 21.984 35.452C21.912 35.788 21.852 36.184 21.804 36.64C21.78 37.072 21.768 37.492 21.768 37.9C21.768 38.716 21.84 39.508 21.984 40.276C22.128 41.02 22.356 41.692 22.668 42.292C22.98 42.868 23.376 43.336 23.856 43.696C24.36 44.056 24.96 44.236 25.656 44.236C26.256 44.236 26.76 44.092 27.168 43.804C27.576 43.492 27.9 43.084 28.14 42.58C28.404 42.076 28.596 41.488 28.716 40.816C28.836 40.144 28.896 39.436 28.896 38.692Z" fill="black"/>
<path d="M156.864 201.945C158.074 201.945 159.162 201.441 159.937 200.618C160.265 200.27 160.834 199.857 161.45 199.495C161.161 200.6 160.246 201.991 159.612 202.601C159.195 203.004 158.864 203.487 158.638 204.02C158.413 204.554 158.298 205.129 158.3 205.708C158.3 208.064 160.176 209.976 162.5 210.001C164.824 209.976 166.7 208.065 166.7 205.708C166.7 204.485 166.201 203.384 165.387 202.601C164.752 201.991 163.839 200.6 163.55 199.495C164.166 199.858 164.735 200.27 165.063 200.618C165.457 201.038 165.933 201.373 166.462 201.601C166.99 201.83 167.56 201.947 168.136 201.945C170.481 201.945 172.383 200.025 172.383 197.652C172.383 195.279 170.483 193.359 168.136 193.359C166.924 193.359 165.838 193.879 165.063 194.702C164.718 195.068 164.11 195.524 163.458 195.904C163.52 192.875 164.966 190.65 166.439 189.774V189H158.564V189.774C160.036 190.651 161.483 192.876 161.544 195.904C160.891 195.524 160.283 195.068 159.939 194.702C159.546 194.279 159.071 193.942 158.542 193.711C158.014 193.48 157.444 193.36 156.867 193.359C154.521 193.359 152.619 195.28 152.619 197.652C152.619 200.024 154.52 201.945 156.867 201.945H156.864Z" fill="black"/>
<path d="M153.704 224.74C153.704 223.492 153.944 222.364 154.424 221.356C154.88 220.348 155.504 219.484 156.296 218.764C157.088 218.068 158.024 217.528 159.104 217.144C160.16 216.76 161.288 216.568 162.488 216.568C163.976 216.568 165.296 216.796 166.448 217.252C167.576 217.732 168.524 218.392 169.292 219.232C170.06 220.072 170.648 221.068 171.056 222.22C171.44 223.372 171.632 224.632 171.632 226C171.632 228.256 171.236 230.32 170.444 232.192C169.652 234.064 168.584 235.72 167.24 237.16C165.896 238.6 164.336 239.8 162.56 240.76C160.76 241.72 158.852 242.416 156.836 242.848L156.296 241.3C157.592 240.892 158.792 240.34 159.896 239.644C161 238.948 161.984 238.096 162.848 237.088C163.688 236.104 164.384 234.976 164.936 233.704C165.464 232.456 165.8 231.076 165.944 229.564C165.752 229.876 165.512 230.176 165.224 230.464C164.912 230.776 164.54 231.052 164.108 231.292C163.676 231.556 163.184 231.76 162.632 231.904C162.056 232.072 161.408 232.156 160.688 232.156C159.704 232.156 158.792 232 157.952 231.688C157.088 231.376 156.344 230.908 155.72 230.284C155.096 229.66 154.604 228.88 154.244 227.944C153.884 227.032 153.704 225.964 153.704 224.74ZM159.104 224.308C159.104 227.86 160.292 229.636 162.668 229.636C163.484 229.636 164.18 229.42 164.756 228.988C165.332 228.58 165.752 228.1 166.016 227.548C166.088 227.212 166.148 226.816 166.196 226.36C166.22 225.928 166.232 225.508 166.232 225.1C166.232 224.284 166.16 223.492 166.016 222.724C165.872 221.98 165.644 221.308 165.332 220.708C165.02 220.132 164.624 219.664 164.144 219.304C163.64 218.944 163.04 218.764 162.344 218.764C161.744 218.764 161.24 218.908 160.832 219.196C160.424 219.508 160.1 219.916 159.86 220.42C159.596 220.924 159.404 221.512 159.284 222.184C159.164 222.856 159.104 223.564 159.104 224.308Z" fill="black"/>
</svg>
