<svg width="188" height="263" viewBox="0 0 188 263" fill="none" xmlns="http://www.w3.org/2000/svg">
<rect width="188" height="263" rx="4" fill="#F5F0E8"/>
<rect x="6.5" y="6.5" width="175" height="250" rx="2.5" fill="#F5F0E8" stroke="black" stroke-linecap="round"/>
<rect x="8.5" y="8.5" width="171" height="246" rx="2.5" fill="#F5F0E8" stroke="black" stroke-linecap="round"/>
<path d="M21.8315 18H31.0715V19.14C30.7515 19.34 30.3915 19.52 29.9915 19.68C29.5915 19.84 29.1915 19.95 28.7915 20.01V35.37C28.7915 37.01 28.5415 38.35 28.0415 39.39C27.5615 40.45 26.9815 41.28 26.3015 41.88C25.6415 42.5 24.9615 42.95 24.2615 43.23C23.5615 43.51 22.9915 43.7 22.5515 43.8L21.9815 43.02C22.2815 42.78 22.5715 42.47 22.8515 42.09C23.1315 41.73 23.3715 41.26 23.5715 40.68C23.7915 40.1 23.9615 39.4 24.0815 38.58C24.2215 37.74 24.2915 36.73 24.2915 35.55V20.01C23.8515 19.91 23.4115 19.8 22.9715 19.68C22.5515 19.54 22.1715 19.36 21.8315 19.14V18Z" fill="black"/>
<path d="M32.1358 58.0548C30.9257 58.0548 29.8376 58.5588 29.0633 59.3817C28.7351 59.7295 28.1655 60.143 27.5499 60.5052C27.8387 59.4001 28.7535 58.0088 29.3874 57.3985C29.8047 56.9962 30.1361 56.5134 30.3616 55.9795C30.5872 55.4456 30.7023 54.8715 30.6999 54.2918C30.6999 51.9359 28.8244 50.0236 26.4999 49.9987C24.1755 50.0236 22.2999 51.9346 22.2999 54.2918C22.2999 55.5151 22.7987 56.6163 23.6124 57.3985C24.2477 58.0088 25.1612 59.4001 25.4499 60.5052C24.8344 60.1417 24.2648 59.7295 23.9366 59.3817C23.5429 58.9616 23.067 58.6269 22.5384 58.3987C22.0098 58.1704 21.4399 58.0533 20.8641 58.0548C18.5186 58.0548 16.6168 59.975 16.6168 62.348C16.6168 64.721 18.5173 66.6412 20.8641 66.6412C22.0755 66.6412 23.1623 66.1214 23.9366 65.2985C24.2818 64.9323 24.8895 64.4755 25.5418 64.0962C25.4801 67.1255 24.0338 69.3502 22.5611 70.2256V71H30.4361V70.2256C28.9635 69.3488 27.5171 67.1242 27.4554 64.0962C28.1091 64.4755 28.7168 64.9323 29.0606 65.2985C29.4536 65.7207 29.9291 66.0577 30.4576 66.2887C30.9861 66.5196 31.5564 66.6396 32.1332 66.6412C34.4786 66.6412 36.3804 64.7197 36.3804 62.348C36.3804 59.9763 34.4799 58.0548 32.1332 58.0548H32.1358Z" fill="black"/>
<path d="M167.169 245H157.929V243.86C158.249 243.66 158.609 243.48 159.009 243.32C159.409 243.16 159.809 243.05 160.209 242.99V227.63C160.209 225.99 160.459 224.65 160.959 223.61C161.439 222.55 162.019 221.72 162.699 221.12C163.359 220.5 164.039 220.05 164.739 219.77C165.439 219.49 166.009 219.3 166.449 219.2L167.019 219.98C166.719 220.22 166.429 220.53 166.149 220.91C165.869 221.27 165.629 221.74 165.429 222.32C165.209 222.9 165.039 223.6 164.919 224.42C164.779 225.26 164.709 226.27 164.709 227.45V242.99C165.149 243.09 165.589 243.2 166.029 243.32C166.449 243.46 166.829 243.64 167.169 243.86V245Z" fill="black"/>
<path d="M156.864 204.945C158.074 204.945 159.162 204.441 159.937 203.618C160.265 203.27 160.834 202.857 161.45 202.495C161.161 203.6 160.246 204.991 159.613 205.601C159.195 206.004 158.864 206.487 158.638 207.02C158.413 207.554 158.298 208.129 158.3 208.708C158.3 211.064 160.176 212.976 162.5 213.001C164.824 212.976 166.7 211.065 166.7 208.708C166.7 207.485 166.201 206.384 165.388 205.601C164.752 204.991 163.839 203.6 163.55 202.495C164.166 202.858 164.735 203.27 165.063 203.618C165.457 204.038 165.933 204.373 166.462 204.601C166.99 204.83 167.56 204.947 168.136 204.945C170.481 204.945 172.383 203.025 172.383 200.652C172.383 198.279 170.483 196.359 168.136 196.359C166.924 196.359 165.838 196.879 165.063 197.702C164.718 198.068 164.11 198.524 163.458 198.904C163.52 195.875 164.966 193.65 166.439 192.774V192H158.564V192.774C160.036 193.651 161.483 195.876 161.545 198.904C160.891 198.524 160.283 198.068 159.939 197.702C159.546 197.279 159.071 196.942 158.542 196.711C158.014 196.48 157.444 196.36 156.867 196.359C154.521 196.359 152.62 198.28 152.62 200.652C152.62 203.024 154.52 204.945 156.867 204.945H156.864Z" fill="black"/>
<path d="M86.7191 88H102.119V89.9C101.586 90.2333 100.986 90.5333 100.319 90.8C99.6525 91.0667 98.9858 91.25 98.3191 91.35V116.95C98.3191 119.683 97.9025 121.917 97.0691 123.65C96.2691 125.417 95.3025 126.8 94.1691 127.8C93.0691 128.833 91.9358 129.583 90.7691 130.05C89.6025 130.517 88.6525 130.833 87.9191 131L86.9691 129.7C87.4691 129.3 87.9525 128.783 88.4191 128.15C88.8858 127.55 89.2858 126.767 89.6191 125.8C89.9858 124.833 90.2691 123.667 90.4691 122.3C90.7025 120.9 90.8191 119.217 90.8191 117.25V91.35C90.0858 91.1833 89.3525 91 88.6191 90.8C87.9191 90.5667 87.2858 90.2667 86.7191 89.9V88Z" fill="black"/>
<path d="M106.882 161.411C104.116 161.411 101.629 162.563 99.859 164.444C99.109 165.239 97.807 166.184 96.4 167.012C97.06 164.486 99.151 161.306 100.6 159.911C101.554 158.991 102.311 157.888 102.827 156.668C103.342 155.447 103.605 154.135 103.6 152.81C103.6 147.425 99.313 143.054 94 142.997C88.687 143.054 84.4 147.422 84.4 152.81C84.4 155.606 85.54 158.123 87.4 159.911C88.852 161.306 90.94 164.486 91.6 167.012C90.193 166.181 88.891 165.239 88.141 164.444C87.2411 163.484 86.1532 162.719 84.945 162.197C83.7368 161.675 82.4341 161.408 81.118 161.411C75.757 161.411 71.41 165.8 71.41 171.224C71.41 176.648 75.754 181.037 81.118 181.037C83.887 181.037 86.371 179.849 88.141 177.968C88.93 177.131 90.319 176.087 91.81 175.22C91.669 182.144 88.363 187.229 84.997 189.23V191H102.997V189.23C99.631 187.226 96.325 182.141 96.184 175.22C97.678 176.087 99.067 177.131 99.853 177.968C100.751 178.933 101.838 179.703 103.046 180.231C104.254 180.759 105.558 181.033 106.876 181.037C112.237 181.037 116.584 176.645 116.584 171.224C116.584 165.803 112.24 161.411 106.876 161.411H106.882Z" fill="black"/>
</svg>
