<svg width="188" height="263" viewBox="0 0 188 263" fill="none" xmlns="http://www.w3.org/2000/svg">
<rect width="188" height="263" rx="4" fill="#F5F0E8"/>
<rect x="6.5" y="6.5" width="175" height="250" rx="2.5" fill="#F5F0E8" stroke="black" stroke-linecap="round"/>
<rect x="8.5" y="8.5" width="171" height="246" rx="2.5" fill="#F5F0E8" stroke="black" stroke-linecap="round"/>
<path d="M26.8206 18H34.8606V19.14C34.5206 19.36 34.1306 19.55 33.6906 19.71C33.2506 19.85 32.8506 19.95 32.4906 20.01L26.7906 27.24C27.2506 27.88 27.7906 28.61 28.4106 29.43C29.0306 30.23 29.6906 31.07 30.3906 31.95C31.0906 32.81 31.8106 33.69 32.5506 34.59C33.2906 35.47 34.0106 36.31 34.7106 37.11L36.1506 37.98V39H30.9306L29.7306 38.16C29.2506 37.56 28.7406 36.9 28.2006 36.18C27.6806 35.44 27.1606 34.68 26.6406 33.9C26.1206 33.1 25.6106 32.3 25.1106 31.5C24.6106 30.7 24.1406 29.92 23.7006 29.16H22.4106V36.99C22.8506 37.07 23.2506 37.19 23.6106 37.35C23.9706 37.51 24.2806 37.68 24.5406 37.86V39H15.4506V37.86C15.8506 37.66 16.2606 37.49 16.6806 37.35C17.1006 37.19 17.5106 37.07 17.9106 36.99V20.01C17.4506 19.95 17.0006 19.84 16.5606 19.68C16.1406 19.52 15.7706 19.34 15.4506 19.14V18H24.5406V19.14C24.2806 19.3 23.9606 19.46 23.5806 19.62C23.2206 19.78 22.8306 19.91 22.4106 20.01V27.63L24.1806 27.21L29.0106 20.01C28.6106 19.93 28.2106 19.81 27.8106 19.65C27.4306 19.47 27.1006 19.3 26.8206 19.14V18Z" fill="black"/>
<path d="M32.1358 56.0548C30.9257 56.0548 29.8376 56.5588 29.0633 57.3817C28.7351 57.7295 28.1655 58.143 27.5499 58.5052C27.8387 57.4001 28.7535 56.0088 29.3874 55.3985C29.8047 54.9962 30.1361 54.5134 30.3616 53.9795C30.5872 53.4456 30.7023 52.8715 30.6999 52.2918C30.6999 49.9359 28.8244 48.0236 26.4999 47.9987C24.1755 48.0236 22.2999 49.9346 22.2999 52.2918C22.2999 53.5151 22.7987 54.6163 23.6124 55.3985C24.2477 56.0088 25.1612 57.4001 25.4499 58.5052C24.8344 58.1417 24.2648 57.7295 23.9366 57.3817C23.5429 56.9616 23.067 56.6269 22.5384 56.3987C22.0098 56.1704 21.4399 56.0533 20.8641 56.0548C18.5186 56.0548 16.6168 57.975 16.6168 60.348C16.6168 62.721 18.5173 64.6412 20.8641 64.6412C22.0755 64.6412 23.1623 64.1214 23.9366 63.2985C24.2818 62.9323 24.8895 62.4755 25.5418 62.0962C25.4801 65.1255 24.0338 67.3502 22.5611 68.2256V69H30.4361V68.2256C28.9635 67.3488 27.5171 65.1242 27.4554 62.0962C28.1091 62.4755 28.7168 62.9323 29.0606 63.2985C29.4536 63.7207 29.9291 64.0577 30.4576 64.2887C30.9861 64.5196 31.5564 64.6396 32.1332 64.6412C34.4786 64.6412 36.3804 62.7197 36.3804 60.348C36.3804 57.9763 34.4799 56.0548 32.1332 56.0548H32.1358Z" fill="black"/>
<path d="M161.179 245H153.139V243.86C153.479 243.64 153.869 243.45 154.309 243.29C154.749 243.15 155.149 243.05 155.509 242.99L161.209 235.76C160.749 235.12 160.209 234.39 159.589 233.57C158.969 232.77 158.309 231.93 157.609 231.05C156.909 230.19 156.189 229.31 155.449 228.41C154.709 227.53 153.989 226.69 153.289 225.89L151.849 225.02V224H157.069L158.269 224.84C158.749 225.44 159.259 226.1 159.799 226.82C160.319 227.56 160.839 228.32 161.359 229.1C161.879 229.9 162.389 230.7 162.889 231.5C163.389 232.3 163.859 233.08 164.299 233.84H165.589V226.01C165.149 225.93 164.749 225.81 164.389 225.65C164.029 225.49 163.719 225.32 163.459 225.14V224H172.549V225.14C172.149 225.34 171.739 225.51 171.319 225.65C170.899 225.81 170.489 225.93 170.089 226.01V242.99C170.549 243.05 170.999 243.16 171.439 243.32C171.859 243.48 172.229 243.66 172.549 243.86V245H163.459V243.86C163.719 243.7 164.039 243.54 164.419 243.38C164.779 243.22 165.169 243.09 165.589 242.99V235.37L163.819 235.79L158.989 242.99C159.389 243.07 159.789 243.19 160.189 243.35C160.569 243.53 160.899 243.7 161.179 243.86V245Z" fill="black"/>
<path d="M155.864 206.945C157.074 206.945 158.162 206.441 158.937 205.618C159.265 205.27 159.834 204.857 160.45 204.495C160.161 205.6 159.246 206.991 158.613 207.601C158.195 208.004 157.864 208.487 157.638 209.02C157.413 209.554 157.298 210.129 157.3 210.708C157.3 213.064 159.176 214.976 161.5 215.001C163.824 214.976 165.7 213.065 165.7 210.708C165.7 209.485 165.201 208.384 164.388 207.601C163.752 206.991 162.839 205.6 162.55 204.495C163.166 204.858 163.735 205.27 164.063 205.618C164.457 206.038 164.933 206.373 165.462 206.601C165.99 206.83 166.56 206.947 167.136 206.945C169.481 206.945 171.383 205.025 171.383 202.652C171.383 200.279 169.483 198.359 167.136 198.359C165.924 198.359 164.838 198.879 164.063 199.702C163.718 200.068 163.11 200.524 162.458 200.904C162.52 197.875 163.966 195.65 165.439 194.774V194H157.564V194.774C159.036 195.651 160.483 197.876 160.545 200.904C159.891 200.524 159.283 200.068 158.939 199.702C158.546 199.279 158.071 198.942 157.542 198.711C157.014 198.48 156.444 198.36 155.867 198.359C153.521 198.359 151.62 200.28 151.62 202.652C151.62 205.024 153.52 206.945 155.867 206.945H155.864Z" fill="black"/>
<path d="M109 53.5C110.326 53.5 111.598 54.0268 112.536 54.9645C113.473 55.9021 114 57.1739 114 58.5C114 60.525 112.75 62.25 111.075 63.05L106.5 78.875V91H81.5V78.875L76.925 63.05C75.25 62.25 74 60.525 74 58.5C74 57.1739 74.5268 55.9021 75.4645 54.9645C76.4021 54.0268 77.6739 53.5 79 53.5C80.3261 53.5 81.5979 54.0268 82.5355 54.9645C83.4732 55.9021 84 57.1739 84 58.5C84 59.75 83.55 60.875 82.75 61.75L89.75 69.375L91.075 60.05C89.825 59.15 89 57.675 89 56C89 54.6739 89.5268 53.4021 90.4645 52.4645C91.4021 51.5268 92.6739 51 94 51C95.3261 51 96.5979 51.5268 97.5355 52.4645C98.4732 53.4021 99 54.6739 99 56C99 57.675 98.175 59.15 96.925 60.05L98.25 69.375L105.175 61.725C104.415 60.8223 103.999 59.68 104 58.5C104 57.1739 104.527 55.9021 105.464 54.9645C106.402 54.0268 107.674 53.5 109 53.5V53.5ZM76.5 96H111.5V101H76.5V96Z" fill="black"/>
<path d="M94.95 115H108.35V116.9C107.783 117.267 107.133 117.583 106.4 117.85C105.667 118.083 105 118.25 104.4 118.35L94.9 130.4C95.6667 131.467 96.5667 132.683 97.6 134.05C98.6333 135.383 99.7333 136.783 100.9 138.25C102.067 139.683 103.267 141.15 104.5 142.65C105.733 144.117 106.933 145.517 108.1 146.85L110.5 148.3V150H101.8L99.8 148.6C99 147.6 98.15 146.5 97.25 145.3C96.3833 144.067 95.5167 142.8 94.65 141.5C93.7833 140.167 92.9333 138.833 92.1 137.5C91.2667 136.167 90.4833 134.867 89.75 133.6H87.6V146.65C88.3333 146.783 89 146.983 89.6 147.25C90.2 147.517 90.7167 147.8 91.15 148.1V150H76V148.1C76.6667 147.767 77.35 147.483 78.05 147.25C78.75 146.983 79.4333 146.783 80.1 146.65V118.35C79.3333 118.25 78.5833 118.067 77.85 117.8C77.15 117.533 76.5333 117.233 76 116.9V115H91.15V116.9C90.7167 117.167 90.1833 117.433 89.55 117.7C88.95 117.967 88.3 118.183 87.6 118.35V131.05L90.55 130.35L98.6 118.35C97.9333 118.217 97.2667 118.017 96.6 117.75C95.9667 117.45 95.4167 117.167 94.95 116.9V115Z" fill="black"/>
<path d="M106.882 188.411C104.116 188.411 101.629 189.563 99.859 191.444C99.109 192.239 97.807 193.184 96.4 194.012C97.06 191.486 99.151 188.306 100.6 186.911C101.554 185.991 102.311 184.888 102.827 183.668C103.342 182.447 103.605 181.135 103.6 179.81C103.6 174.425 99.313 170.054 94 169.997C88.687 170.054 84.4 174.422 84.4 179.81C84.4 182.606 85.54 185.123 87.4 186.911C88.852 188.306 90.94 191.486 91.6 194.012C90.193 193.181 88.891 192.239 88.141 191.444C87.2411 190.484 86.1532 189.719 84.945 189.197C83.7368 188.675 82.4341 188.408 81.118 188.411C75.757 188.411 71.41 192.8 71.41 198.224C71.41 203.648 75.754 208.037 81.118 208.037C83.887 208.037 86.371 206.849 88.141 204.968C88.93 204.131 90.319 203.087 91.81 202.22C91.669 209.144 88.363 214.229 84.997 216.23V218H102.997V216.23C99.631 214.226 96.325 209.141 96.184 202.22C97.678 203.087 99.067 204.131 99.853 204.968C100.751 205.933 101.838 206.703 103.046 207.231C104.254 207.759 105.558 208.033 106.876 208.037C112.237 208.037 116.584 203.645 116.584 198.224C116.584 192.803 112.24 188.411 106.876 188.411H106.882Z" fill="black"/>
</svg>
