<svg width="188" height="263" viewBox="0 0 188 263" fill="none" xmlns="http://www.w3.org/2000/svg">
<rect width="188" height="263" rx="4" fill="#F5F0E8"/>
<rect x="6.5" y="6.5" width="175" height="250" rx="2.5" fill="#F5F0E8" stroke="black" stroke-linecap="round"/>
<rect x="8.5" y="8.5" width="171" height="246" rx="2.5" fill="#F5F0E8" stroke="black" stroke-linecap="round"/>
<path d="M72.8196 55.8904C71.0333 55.8904 69.4271 56.6344 68.284 57.8492C67.7996 58.3627 66.9587 58.973 66.05 59.5077C66.4763 57.8764 67.8267 55.8226 68.7625 54.9217C69.3784 54.3277 69.8676 53.6151 70.2006 52.8269C70.5336 52.0387 70.7035 51.1913 70.7 50.3356C70.7 46.8578 67.9313 44.0349 64.5 43.998C61.0687 44.0349 58.3 46.8559 58.3 50.3356C58.3 52.1414 59.0363 53.7669 60.2375 54.9217C61.1753 55.8226 62.5238 57.8764 62.95 59.5077C62.0413 58.971 61.2005 58.3627 60.7161 57.8492C60.1349 57.229 59.4323 56.735 58.652 56.398C57.8717 56.0611 57.0304 55.8883 56.1804 55.8904C52.7181 55.8904 49.9106 58.725 49.9106 62.228C49.9106 65.731 52.7161 68.5655 56.1804 68.5655C57.9687 68.5655 59.573 67.7983 60.7161 66.5835C61.2256 66.0429 62.1227 65.3687 63.0856 64.8087C62.9946 69.2805 60.8595 72.5645 58.6856 73.8569V75H70.3106V73.8569C68.1367 72.5626 66.0016 69.2785 65.9105 64.8087C66.8754 65.3687 67.7725 66.0429 68.2801 66.5835C68.8602 67.2067 69.5621 67.7042 70.3422 68.0452C71.1224 68.3861 71.9643 68.5632 72.8158 68.5655C76.2781 68.5655 79.0855 65.729 79.0855 62.228C79.0855 58.7269 76.28 55.8904 72.8158 55.8904H72.8196Z" fill="black"/>
<path d="M131.82 55.8904C130.033 55.8904 128.427 56.6344 127.284 57.8492C126.8 58.3627 125.959 58.973 125.05 59.5077C125.476 57.8764 126.827 55.8226 127.763 54.9217C128.378 54.3277 128.868 53.6151 129.201 52.8269C129.534 52.0387 129.703 51.1913 129.7 50.3356C129.7 46.8578 126.931 44.0349 123.5 43.998C120.069 44.0349 117.3 46.8559 117.3 50.3356C117.3 52.1414 118.036 53.7669 119.238 54.9217C120.175 55.8226 121.524 57.8764 121.95 59.5077C121.041 58.971 120.2 58.3627 119.716 57.8492C119.135 57.229 118.432 56.735 117.652 56.398C116.872 56.0611 116.03 55.8883 115.18 55.8904C111.718 55.8904 108.911 58.725 108.911 62.228C108.911 65.731 111.716 68.5655 115.18 68.5655C116.969 68.5655 118.573 67.7983 119.716 66.5835C120.226 66.0429 121.123 65.3687 122.086 64.8087C121.995 69.2805 119.859 72.5645 117.686 73.8569V75H129.311V73.8569C127.137 72.5626 125.002 69.2785 124.911 64.8087C125.875 65.3687 126.772 66.0429 127.28 66.5835C127.86 67.2067 128.562 67.7042 129.342 68.0452C130.122 68.3861 130.964 68.5632 131.816 68.5655C135.278 68.5655 138.086 65.729 138.086 62.228C138.086 58.7269 135.28 55.8904 131.816 55.8904H131.82Z" fill="black"/>
<path d="M72.8196 137.89C71.0333 137.89 69.4271 138.634 68.284 139.849C67.7996 140.363 66.9587 140.973 66.05 141.508C66.4763 139.876 67.8267 137.823 68.7625 136.922C69.3784 136.328 69.8676 135.615 70.2006 134.827C70.5336 134.039 70.7035 133.191 70.7 132.336C70.7 128.858 67.9313 126.035 64.5 125.998C61.0687 126.035 58.3 128.856 58.3 132.336C58.3 134.141 59.0363 135.767 60.2375 136.922C61.1753 137.823 62.5238 139.876 62.95 141.508C62.0413 140.971 61.2005 140.363 60.7161 139.849C60.1349 139.229 59.4323 138.735 58.652 138.398C57.8717 138.061 57.0304 137.888 56.1804 137.89C52.7181 137.89 49.9106 140.725 49.9106 144.228C49.9106 147.731 52.7161 150.566 56.1804 150.566C57.9687 150.566 59.573 149.798 60.7161 148.583C61.2256 148.043 62.1227 147.369 63.0856 146.809C62.9946 151.28 60.8595 154.565 58.6856 155.857V157H70.3106V155.857C68.1367 154.563 66.0016 151.279 65.9105 146.809C66.8754 147.369 67.7725 148.043 68.2801 148.583C68.8602 149.207 69.5621 149.704 70.3422 150.045C71.1224 150.386 71.9643 150.563 72.8158 150.566C76.2781 150.566 79.0855 147.729 79.0855 144.228C79.0855 140.727 76.28 137.89 72.8158 137.89H72.8196Z" fill="black"/>
<path d="M102.82 95.8904C101.033 95.8904 99.4271 96.6344 98.284 97.8492C97.7996 98.3627 96.9587 98.973 96.05 99.5077C96.4763 97.8764 97.8267 95.8226 98.7625 94.9217C99.3784 94.3277 99.8676 93.6151 100.201 92.8269C100.534 92.0387 100.703 91.1913 100.7 90.3356C100.7 86.8578 97.9313 84.0349 94.5 83.998C91.0687 84.0349 88.3 86.8559 88.3 90.3356C88.3 92.1414 89.0363 93.7669 90.2375 94.9217C91.1753 95.8226 92.5238 97.8764 92.95 99.5077C92.0413 98.971 91.2005 98.3627 90.7161 97.8492C90.1349 97.229 89.4323 96.735 88.652 96.398C87.8717 96.0611 87.0304 95.8883 86.1804 95.8904C82.7181 95.8904 79.9106 98.725 79.9106 102.228C79.9106 105.731 82.7161 108.566 86.1804 108.566C87.9687 108.566 89.573 107.798 90.7161 106.583C91.2256 106.043 92.1227 105.369 93.0856 104.809C92.9946 109.28 90.8595 112.565 88.6856 113.857V115H100.311V113.857C98.1367 112.563 96.0016 109.279 95.9105 104.809C96.8754 105.369 97.7725 106.043 98.2801 106.583C98.8602 107.207 99.5621 107.704 100.342 108.045C101.122 108.386 101.964 108.563 102.816 108.566C106.278 108.566 109.086 105.729 109.086 102.228C109.086 98.7269 106.28 95.8904 102.816 95.8904H102.82Z" fill="black"/>
<path d="M131.82 137.89C130.033 137.89 128.427 138.634 127.284 139.849C126.8 140.363 125.959 140.973 125.05 141.508C125.476 139.876 126.827 137.823 127.763 136.922C128.378 136.328 128.868 135.615 129.201 134.827C129.534 134.039 129.703 133.191 129.7 132.336C129.7 128.858 126.931 126.035 123.5 125.998C120.069 126.035 117.3 128.856 117.3 132.336C117.3 134.141 118.036 135.767 119.238 136.922C120.175 137.823 121.524 139.876 121.95 141.508C121.041 140.971 120.2 140.363 119.716 139.849C119.135 139.229 118.432 138.735 117.652 138.398C116.872 138.061 116.03 137.888 115.18 137.89C111.718 137.89 108.911 140.725 108.911 144.228C108.911 147.731 111.716 150.566 115.18 150.566C116.969 150.566 118.573 149.798 119.716 148.583C120.226 148.043 121.123 147.369 122.086 146.809C121.995 151.28 119.859 154.565 117.686 155.857V157H129.311V155.857C127.137 154.563 125.002 151.279 124.911 146.809C125.875 147.369 126.772 148.043 127.28 148.583C127.86 149.207 128.562 149.704 129.342 150.045C130.122 150.386 130.964 150.563 131.816 150.566C135.278 150.566 138.086 147.729 138.086 144.228C138.086 140.727 135.28 137.89 131.816 137.89H131.82Z" fill="black"/>
<path d="M56.1804 207.11C57.9667 207.11 59.5729 206.366 60.716 205.151C61.2004 204.637 62.0413 204.027 62.95 203.492C62.5237 205.124 61.1733 207.177 60.2375 208.078C59.6216 208.672 59.1324 209.385 58.7994 210.173C58.4664 210.961 58.2965 211.809 58.3 212.664C58.3 216.142 61.0687 218.965 64.5 219.002C67.9313 218.965 70.7 216.144 70.7 212.664C70.7 210.859 69.9637 209.233 68.7625 208.078C67.8247 207.177 66.4762 205.124 66.05 203.492C66.9587 204.029 67.7995 204.637 68.2839 205.151C68.8651 205.771 69.5677 206.265 70.348 206.602C71.1283 206.939 71.9696 207.112 72.8196 207.11C76.2819 207.11 79.0894 204.275 79.0894 200.772C79.0894 197.269 76.2839 194.434 72.8196 194.434C71.0313 194.434 69.427 195.202 68.2839 196.417C67.7744 196.957 66.8773 197.631 65.9144 198.191C66.0054 193.72 68.1405 190.435 70.3144 189.143V188H58.6894V189.143C60.8633 190.437 62.9984 193.721 63.0895 198.191C62.1246 197.631 61.2275 196.957 60.7199 196.417C60.1398 195.793 59.4379 195.296 58.6578 194.955C57.8776 194.614 57.0357 194.437 56.1842 194.434C52.7219 194.434 49.9145 197.271 49.9145 200.772C49.9145 204.273 52.72 207.11 56.1842 207.11H56.1804Z" fill="black"/>
<path d="M115.18 207.11C116.967 207.11 118.573 206.366 119.716 205.151C120.2 204.637 121.041 204.027 121.95 203.492C121.524 205.124 120.173 207.177 119.237 208.078C118.622 208.672 118.132 209.385 117.799 210.173C117.466 210.961 117.297 211.809 117.3 212.664C117.3 216.142 120.069 218.965 123.5 219.002C126.931 218.965 129.7 216.144 129.7 212.664C129.7 210.859 128.964 209.233 127.762 208.078C126.825 207.177 125.476 205.124 125.05 203.492C125.959 204.029 126.8 204.637 127.284 205.151C127.865 205.771 128.568 206.265 129.348 206.602C130.128 206.939 130.97 207.112 131.82 207.11C135.282 207.11 138.089 204.275 138.089 200.772C138.089 197.269 135.284 194.434 131.82 194.434C130.031 194.434 128.427 195.202 127.284 196.417C126.774 196.957 125.877 197.631 124.914 198.191C125.005 193.72 127.141 190.435 129.314 189.143V188H117.689V189.143C119.863 190.437 121.998 193.721 122.089 198.191C121.125 197.631 120.228 196.957 119.72 196.417C119.14 195.793 118.438 195.296 117.658 194.955C116.878 194.614 116.036 194.437 115.184 194.434C111.722 194.434 108.914 197.271 108.914 200.772C108.914 204.273 111.72 207.11 115.184 207.11H115.18Z" fill="black"/>
<path d="M31.1359 61.0548C29.9258 61.0548 28.8377 61.5588 28.0633 62.3817C27.7352 62.7295 27.1656 63.143 26.55 63.5052C26.8388 62.4001 27.7536 61.0088 28.3875 60.3985C28.8047 59.9962 29.1361 59.5134 29.3617 58.9795C29.5873 58.4456 29.7024 57.8715 29.7 57.2918C29.7 54.9359 27.8244 53.0236 25.5 52.9987C23.1756 53.0236 21.3 54.9346 21.3 57.2918C21.3 58.5151 21.7988 59.6163 22.6125 60.3985C23.2478 61.0088 24.1613 62.4001 24.45 63.5052C23.8344 63.1417 23.2648 62.7295 22.9367 62.3817C22.543 61.9616 22.067 61.6269 21.5384 61.3987C21.0098 61.1704 20.4399 61.0533 19.8641 61.0548C17.5187 61.0548 15.6169 62.975 15.6169 65.348C15.6169 67.721 17.5174 69.6412 19.8641 69.6412C21.0756 69.6412 22.1623 69.1214 22.9367 68.2985C23.2819 67.9323 23.8896 67.4755 24.5419 67.0962C24.4802 70.1255 23.0338 72.3502 21.5612 73.2256V74H29.4362V73.2256C27.9636 72.3488 26.5172 70.1242 26.4555 67.0962C27.1091 67.4755 27.7168 67.9323 28.0607 68.2985C28.4537 68.7207 28.9291 69.0577 29.4576 69.2887C29.9862 69.5196 30.5565 69.6396 31.1333 69.6412C33.4787 69.6412 35.3805 67.7197 35.3805 65.348C35.3805 62.9763 33.48 61.0548 31.1333 61.0548H31.1359Z" fill="black"/>
<path d="M19.212 28.684H17.988C17.868 28.18 17.748 27.568 17.628 26.848C17.508 26.104 17.388 25.36 17.268 24.616C17.172 23.872 17.088 23.164 17.016 22.492C16.944 21.796 16.908 21.232 16.908 20.8H33.756V22.492C32.46 24.508 31.368 26.404 30.48 28.18C29.592 29.956 28.848 31.756 28.248 33.58C27.648 35.404 27.144 37.312 26.736 39.304C26.352 41.296 26.016 43.528 25.728 46H20.616C21.48 42.52 22.596 39.208 23.964 36.064C25.332 32.92 26.952 29.752 28.824 26.56L30.156 24.832L28.356 25.012H20.616L19.212 28.684Z" fill="black"/>
<path d="M156.864 201.945C158.074 201.945 159.162 201.441 159.937 200.618C160.265 200.27 160.834 199.857 161.45 199.495C161.161 200.6 160.246 201.991 159.612 202.601C159.195 203.004 158.864 203.487 158.638 204.02C158.413 204.554 158.298 205.129 158.3 205.708C158.3 208.064 160.176 209.976 162.5 210.001C164.824 209.976 166.7 208.065 166.7 205.708C166.7 204.485 166.201 203.384 165.387 202.601C164.752 201.991 163.839 200.6 163.55 199.495C164.166 199.858 164.735 200.27 165.063 200.618C165.457 201.038 165.933 201.373 166.462 201.601C166.99 201.83 167.56 201.947 168.136 201.945C170.481 201.945 172.383 200.025 172.383 197.652C172.383 195.279 170.483 193.359 168.136 193.359C166.924 193.359 165.838 193.879 165.063 194.702C164.718 195.068 164.11 195.524 163.458 195.904C163.52 192.875 164.966 190.65 166.439 189.774V189H158.564V189.774C160.036 190.651 161.483 192.876 161.544 195.904C160.891 195.524 160.283 195.068 159.939 194.702C159.546 194.279 159.071 193.942 158.542 193.711C158.014 193.48 157.444 193.36 156.867 193.359C154.521 193.359 152.619 195.28 152.619 197.652C152.619 200.024 154.52 201.945 156.867 201.945H156.864Z" fill="black"/>
<path d="M168.788 234.316H170.012C170.132 234.82 170.252 235.432 170.372 236.152C170.492 236.896 170.612 237.64 170.732 238.384C170.828 239.128 170.912 239.836 170.984 240.508C171.056 241.204 171.092 241.768 171.092 242.2H154.244V240.508C155.54 238.492 156.632 236.596 157.52 234.82C158.408 233.044 159.152 231.244 159.752 229.42C160.352 227.596 160.856 225.688 161.264 223.696C161.648 221.704 161.984 219.472 162.272 217H167.384C166.52 220.48 165.404 223.792 164.036 226.936C162.668 230.08 161.048 233.248 159.176 236.44L157.844 238.168L159.644 237.988H167.384L168.788 234.316Z" fill="black"/>
</svg>
