<svg width="188" height="263" viewBox="0 0 188 263" fill="none" xmlns="http://www.w3.org/2000/svg">
<rect width="188" height="263" rx="4" fill="#F5F0E8"/>
<rect x="6.5" y="6.5" width="175" height="250" rx="2.5" fill="#F5F0E8" stroke="#E70C02" stroke-linecap="round"/>
<rect x="8.5" y="8.5" width="171" height="246" rx="2.5" fill="#F5F0E8" stroke="#E70C02" stroke-linecap="round"/>
<path d="M163.748 218.908C163.196 218.908 162.656 219.028 162.128 219.268C161.6 219.532 161.132 219.892 160.724 220.348C160.292 220.804 159.956 221.344 159.716 221.968C159.452 222.592 159.32 223.264 159.32 223.984C159.32 224.8 159.464 225.496 159.752 226.072C160.016 226.672 160.376 227.164 160.832 227.548C161.264 227.932 161.768 228.208 162.344 228.376C162.92 228.568 163.496 228.664 164.072 228.664H166.16V230.104L160.76 237.16L159.536 238.42V238.564L161.48 238.348H166.916L168.32 234.676H169.544C169.664 235.18 169.796 235.78 169.94 236.476C170.06 237.172 170.18 237.868 170.3 238.564C170.396 239.26 170.48 239.932 170.552 240.58C170.6 241.228 170.624 241.768 170.624 242.2H154.928V240.436L161.156 232.84L162.704 231.256V231.184L161.48 231.436C160.352 231.388 159.344 231.172 158.456 230.788C157.544 230.428 156.788 229.924 156.188 229.276C155.564 228.652 155.096 227.92 154.784 227.08C154.448 226.24 154.28 225.316 154.28 224.308C154.28 223.108 154.544 222.028 155.072 221.068C155.576 220.108 156.26 219.292 157.124 218.62C157.988 217.948 158.996 217.432 160.148 217.072C161.3 216.736 162.512 216.568 163.784 216.568C164.504 216.568 165.224 216.628 165.944 216.748C166.664 216.844 167.348 216.988 167.996 217.18C168.62 217.372 169.196 217.6 169.724 217.864C170.228 218.128 170.66 218.416 171.02 218.728L169.688 222.472H168.644C168.5 222.304 168.308 222.076 168.068 221.788C167.804 221.524 167.54 221.236 167.276 220.924C166.988 220.612 166.712 220.3 166.448 219.988C166.184 219.676 165.956 219.412 165.764 219.196C165.524 219.148 165.26 219.088 164.972 219.016C164.66 218.944 164.252 218.908 163.748 218.908Z" fill="#E70C02"/>
<path d="M167.25 212.688C164.626 212.688 162.5 210.384 162.5 207.543C162.5 210.384 160.374 212.688 157.75 212.688C155.126 212.688 153 210.384 153 207.543C153 203.26 156.84 201.749 162.035 194.932C162.092 194.857 162.163 194.797 162.243 194.756C162.324 194.714 162.411 194.693 162.5 194.693C162.589 194.693 162.676 194.714 162.757 194.756C162.837 194.797 162.908 194.857 162.965 194.932C168.16 201.749 172 203.26 172 207.543C172 210.384 169.874 212.688 167.25 212.688Z" fill="#E70C02"/>
<path d="M24.252 44.092C24.804 44.092 25.344 43.972 25.872 43.732C26.4 43.468 26.868 43.108 27.276 42.652C27.708 42.196 28.044 41.656 28.284 41.032C28.548 40.408 28.68 39.736 28.68 39.016C28.68 38.2 28.536 37.504 28.248 36.928C27.984 36.328 27.624 35.836 27.168 35.452C26.736 35.068 26.232 34.792 25.656 34.624C25.08 34.432 24.504 34.336 23.928 34.336H21.84V32.896L27.24 25.84L28.464 24.58V24.436L26.52 24.652H21.084L19.68 28.324H18.456C18.336 27.82 18.204 27.22 18.06 26.524C17.94 25.828 17.82 25.132 17.7 24.436C17.604 23.74 17.52 23.068 17.448 22.42C17.4 21.772 17.376 21.232 17.376 20.8H33.072V22.564L26.844 30.16L25.296 31.744V31.816L26.52 31.564C27.648 31.612 28.656 31.828 29.544 32.212C30.456 32.572 31.212 33.076 31.812 33.724C32.436 34.348 32.904 35.08 33.216 35.92C33.552 36.76 33.72 37.684 33.72 38.692C33.72 39.892 33.456 40.972 32.928 41.932C32.424 42.892 31.74 43.708 30.876 44.38C30.012 45.052 29.004 45.568 27.852 45.928C26.7 46.264 25.488 46.432 24.216 46.432C23.496 46.432 22.776 46.372 22.056 46.252C21.336 46.156 20.652 46.012 20.004 45.82C19.38 45.628 18.804 45.4 18.276 45.136C17.772 44.872 17.34 44.584 16.98 44.272L18.312 40.528H19.356C19.5 40.696 19.692 40.924 19.932 41.212C20.196 41.476 20.46 41.764 20.724 42.076C21.012 42.388 21.288 42.7 21.552 43.012C21.816 43.324 22.044 43.588 22.236 43.804C22.476 43.852 22.74 43.912 23.028 43.984C23.34 44.056 23.748 44.092 24.252 44.092Z" fill="#E70C02"/>
<path d="M20.75 50.3125C23.3744 50.3125 25.5 52.6159 25.5 55.4575C25.5 52.6159 27.6256 50.3125 30.25 50.3125C32.8744 50.3125 35 52.6159 35 55.4575C35 59.7402 31.1596 61.2509 25.9655 68.068C25.9083 68.1429 25.837 68.203 25.7566 68.2443C25.6762 68.2856 25.5887 68.307 25.5 68.307C25.4113 68.307 25.3238 68.2856 25.2434 68.2443C25.163 68.203 25.0917 68.1429 25.0345 68.068C19.8404 61.2509 16 59.7402 16 55.4575C16 52.6159 18.1256 50.3125 20.75 50.3125Z" fill="#E70C02"/>
<g clip-path="url(#clip0_8_250)">
<path d="M101.25 216.886C96.9681 216.886 93.5 213.177 93.5 208.601C93.5 213.177 90.0319 216.886 85.75 216.886C81.4681 216.886 78 213.177 78 208.601C78 201.704 84.2659 199.271 92.7405 188.293C92.8338 188.173 92.9501 188.076 93.0813 188.009C93.2125 187.943 93.3554 187.908 93.5 187.908C93.6446 187.908 93.7875 187.943 93.9187 188.009C94.0499 188.076 94.1662 188.173 94.2595 188.293C102.734 199.271 109 201.704 109 208.601C109 213.177 105.532 216.886 101.25 216.886Z" fill="#E70C02"/>
</g>
<path d="M85.75 118.114C90.0319 118.114 93.5 121.823 93.5 126.399C93.5 121.823 96.9681 118.114 101.25 118.114C105.532 118.114 109 121.823 109 126.399C109 133.296 102.734 135.729 94.2595 146.707C94.1662 146.827 94.0499 146.924 93.9187 146.991C93.7875 147.057 93.6446 147.092 93.5 147.092C93.3554 147.092 93.2125 147.057 93.0813 146.991C92.9501 146.924 92.8338 146.827 92.7405 146.707C84.2659 135.729 78 133.296 78 126.399C78 121.823 81.4681 118.114 85.75 118.114Z" fill="#E70C02"/>
<path d="M85.75 46.1136C90.0319 46.1136 93.5 49.8231 93.5 54.3991C93.5 49.8231 96.9681 46.1136 101.25 46.1136C105.532 46.1136 109 49.8231 109 54.3991C109 61.2959 102.734 63.7287 94.2595 74.7069C94.1662 74.8275 94.0499 74.9244 93.9187 74.9909C93.7875 75.0573 93.6446 75.0918 93.5 75.0918C93.3554 75.0918 93.2125 75.0573 93.0813 74.9909C92.9501 74.9244 92.8338 74.8275 92.7405 74.7069C84.2659 63.7287 78 61.2959 78 54.3991C78 49.8231 81.4681 46.1136 85.75 46.1136Z" fill="#E70C02"/>
<defs>
<clipPath id="clip0_8_250">
<rect width="31" height="33.8182" fill="white" transform="translate(109 219) rotate(-180)"/>
</clipPath>
</defs>
</svg>
