<svg width="188" height="263" viewBox="0 0 188 263" fill="none" xmlns="http://www.w3.org/2000/svg">
<rect width="188" height="263" rx="4" fill="#F5F0E8"/>
<rect x="6.5" y="6.5" width="175" height="250" rx="2.5" fill="#F5F0E8" stroke="black" stroke-linecap="round"/>
<rect x="8.5" y="8.5" width="171" height="246" rx="2.5" fill="#F5F0E8" stroke="black" stroke-linecap="round"/>
<path d="M110.555 124.233C106.463 124.233 102.785 125.937 100.166 128.719C99.0571 129.895 97.1312 131.293 95.05 132.518C96.0263 128.781 99.1192 124.078 101.263 122.014C102.673 120.654 103.794 119.022 104.556 117.217C105.319 115.411 105.708 113.47 105.7 111.511C105.7 103.545 99.3588 97.0799 91.5 96.9955C83.6412 97.0799 77.3 103.541 77.3 111.511C77.3 115.646 78.9863 119.369 81.7375 122.014C83.8853 124.078 86.9738 128.781 87.95 132.518C85.8688 131.289 83.9429 129.895 82.8336 128.719C81.5025 127.299 79.8933 126.167 78.1061 125.396C76.319 124.624 74.3921 124.228 72.4454 124.233C64.5156 124.233 58.0856 130.725 58.0856 138.748C58.0856 146.771 64.5111 153.263 72.4454 153.263C76.5412 153.263 80.2154 151.506 82.8336 148.723C84.0006 147.485 86.0552 145.941 88.2606 144.659C88.0521 154.9 83.1619 162.422 78.1831 165.382V168H104.808V165.382C99.8292 162.418 94.9391 154.896 94.7305 144.659C96.9404 145.941 98.9949 147.485 100.158 148.723C101.486 150.151 103.094 151.29 104.881 152.071C106.667 152.852 108.596 153.258 110.546 153.263C118.476 153.263 124.906 146.767 124.906 138.748C124.906 130.729 118.48 124.233 110.546 124.233H110.555Z" fill="black"/>
<path d="M31.1359 61.0548C29.9258 61.0548 28.8377 61.5588 28.0633 62.3817C27.7352 62.7295 27.1656 63.143 26.55 63.5052C26.8388 62.4001 27.7536 61.0088 28.3875 60.3985C28.8047 59.9962 29.1361 59.5134 29.3617 58.9795C29.5873 58.4456 29.7024 57.8715 29.7 57.2918C29.7 54.9359 27.8244 53.0236 25.5 52.9987C23.1756 53.0236 21.3 54.9346 21.3 57.2918C21.3 58.5151 21.7988 59.6163 22.6125 60.3985C23.2478 61.0088 24.1613 62.4001 24.45 63.5052C23.8344 63.1417 23.2648 62.7295 22.9367 62.3817C22.543 61.9616 22.067 61.6269 21.5384 61.3987C21.0098 61.1704 20.4399 61.0533 19.8641 61.0548C17.5187 61.0548 15.6169 62.975 15.6169 65.348C15.6169 67.721 17.5174 69.6412 19.8641 69.6412C21.0756 69.6412 22.1623 69.1214 22.9367 68.2985C23.2819 67.9323 23.8896 67.4755 24.5419 67.0962C24.4802 70.1255 23.0338 72.3502 21.5612 73.2256V74H29.4362V73.2256C27.9636 72.3488 26.5172 70.1242 26.4555 67.0962C27.1091 67.4755 27.7168 67.9323 28.0607 68.2985C28.4537 68.7207 28.9291 69.0577 29.4576 69.2887C29.9862 69.5196 30.5565 69.6396 31.1333 69.6412C33.4787 69.6412 35.3805 67.7197 35.3805 65.348C35.3805 62.9763 33.48 61.0548 31.1333 61.0548H31.1359Z" fill="black"/>
<path d="M31.776 46H19.32V44.452C19.92 44.188 20.52 43.96 21.12 43.768C21.744 43.552 22.368 43.372 22.992 43.228V26.704L23.136 24.58C22.464 24.796 21.768 24.94 21.048 25.012C20.328 25.084 19.584 25.108 18.816 25.084L18.636 23.752C19.908 23.416 21.288 22.96 22.776 22.384C24.288 21.808 25.68 21.136 26.952 20.368H28.176V43.228C28.776 43.372 29.376 43.552 29.976 43.768C30.576 43.96 31.176 44.188 31.776 44.452V46Z" fill="black"/>
<path d="M156.864 202.945C158.074 202.945 159.162 202.441 159.937 201.618C160.265 201.27 160.834 200.857 161.45 200.495C161.161 201.6 160.246 202.991 159.612 203.601C159.195 204.004 158.864 204.487 158.638 205.02C158.413 205.554 158.298 206.129 158.3 206.708C158.3 209.064 160.176 210.976 162.5 211.001C164.824 210.976 166.7 209.065 166.7 206.708C166.7 205.485 166.201 204.384 165.387 203.601C164.752 202.991 163.839 201.6 163.55 200.495C164.166 200.858 164.735 201.27 165.063 201.618C165.457 202.038 165.933 202.373 166.462 202.601C166.99 202.83 167.56 202.947 168.136 202.945C170.481 202.945 172.383 201.025 172.383 198.652C172.383 196.279 170.483 194.359 168.136 194.359C166.924 194.359 165.838 194.879 165.063 195.702C164.718 196.068 164.11 196.524 163.458 196.904C163.52 193.875 164.966 191.65 166.439 190.774V190H158.564V190.774C160.036 191.651 161.483 193.876 161.544 196.904C160.891 196.524 160.283 196.068 159.939 195.702C159.546 195.279 159.071 194.942 158.542 194.711C158.014 194.48 157.444 194.36 156.867 194.359C154.521 194.359 152.619 196.28 152.619 198.652C152.619 201.024 154.52 202.945 156.867 202.945H156.864Z" fill="black"/>
<path d="M156.224 217H168.68V218.548C168.08 218.812 167.48 219.04 166.88 219.232C166.256 219.448 165.632 219.628 165.008 219.772V236.296L164.864 238.42C165.536 238.204 166.232 238.06 166.952 237.988C167.672 237.916 168.416 237.892 169.184 237.916L169.364 239.248C168.092 239.584 166.712 240.04 165.224 240.616C163.712 241.192 162.32 241.864 161.048 242.632H159.824V219.772C159.224 219.628 158.624 219.448 158.024 219.232C157.424 219.04 156.824 218.812 156.224 218.548V217Z" fill="black"/>
</svg>
