<svg width="188" height="263" viewBox="0 0 188 263" fill="none" xmlns="http://www.w3.org/2000/svg">
<rect width="188" height="263" rx="4" fill="#F5F0E8"/>
<rect x="6.5" y="6.5" width="175" height="250" rx="2.5" fill="#F5F0E8" stroke="#E70C02" stroke-linecap="round"/>
<rect x="8.5" y="8.5" width="171" height="246" rx="2.5" fill="#F5F0E8" stroke="#E70C02" stroke-linecap="round"/>
<path d="M93.5 188L83.8125 203.5L93.5 219L103.188 203.5L93.5 188Z" fill="#E70C02"/>
<path d="M93.5 44L83.8125 59.5L93.5 75L103.188 59.5L93.5 44Z" fill="#E70C02"/>
<path d="M25.5 53L18.9375 63.5L25.5 74L32.0625 63.5L25.5 53Z" fill="#E70C02"/>
<path d="M20.076 28.792H18.852C18.708 28.432 18.54 28.012 18.348 27.532C18.18 27.052 18 26.548 17.808 26.02C17.616 25.492 17.436 24.976 17.268 24.472C17.1 23.944 16.968 23.464 16.872 23.032C17.712 22.312 18.78 21.688 20.076 21.16C21.396 20.632 22.992 20.368 24.864 20.368C26.184 20.368 27.324 20.536 28.284 20.872C29.244 21.208 30.036 21.676 30.66 22.276C31.308 22.876 31.776 23.572 32.064 24.364C32.376 25.156 32.532 26.008 32.532 26.92C32.532 28.384 32.196 29.776 31.524 31.096C30.852 32.392 30.024 33.616 29.04 34.768C28.056 35.896 27 36.952 25.872 37.936C24.744 38.896 23.724 39.772 22.812 40.564L20.94 41.824V41.968L23.136 41.752H29.328L31.092 37.72H32.316C32.388 38.296 32.46 38.968 32.532 39.736C32.628 40.504 32.712 41.284 32.784 42.076C32.856 42.844 32.916 43.588 32.964 44.308C33.012 45.004 33.036 45.568 33.036 46H16.548V43.696C17.172 43.144 17.88 42.508 18.672 41.788C19.464 41.044 20.268 40.24 21.084 39.376C21.9 38.488 22.704 37.552 23.496 36.568C24.288 35.584 24.996 34.588 25.62 33.58C26.244 32.548 26.736 31.504 27.096 30.448C27.48 29.392 27.672 28.36 27.672 27.352C27.672 26.032 27.312 24.964 26.592 24.148C25.896 23.308 24.9 22.888 23.604 22.888C23.196 22.888 22.824 22.912 22.488 22.96C22.176 23.008 21.816 23.092 21.408 23.212L20.076 28.792Z" fill="#E70C02"/>
<path d="M162.5 189L155.938 199.5L162.5 210L169.062 199.5L162.5 189Z" fill="#E70C02"/>
<path d="M167.924 234.208H169.148C169.292 234.568 169.46 234.988 169.652 235.468C169.82 235.948 170 236.452 170.192 236.98C170.384 237.508 170.564 238.024 170.732 238.528C170.9 239.056 171.032 239.536 171.128 239.968C170.288 240.688 169.22 241.312 167.924 241.84C166.604 242.368 165.008 242.632 163.136 242.632C161.816 242.632 160.676 242.464 159.716 242.128C158.756 241.792 157.964 241.324 157.34 240.724C156.692 240.124 156.224 239.428 155.936 238.636C155.624 237.844 155.468 236.992 155.468 236.08C155.468 234.616 155.804 233.224 156.476 231.904C157.148 230.608 157.976 229.384 158.96 228.232C159.944 227.104 161 226.048 162.128 225.064C163.256 224.104 164.276 223.228 165.188 222.436L167.06 221.176V221.032L164.864 221.248H158.672L156.908 225.28H155.684C155.612 224.704 155.54 224.032 155.468 223.264C155.372 222.496 155.288 221.716 155.216 220.924C155.144 220.156 155.084 219.412 155.036 218.692C154.988 217.996 154.964 217.432 154.964 217H171.452V219.304C170.828 219.856 170.12 220.492 169.328 221.212C168.536 221.956 167.732 222.76 166.916 223.624C166.1 224.512 165.296 225.448 164.504 226.432C163.712 227.416 163.004 228.412 162.38 229.42C161.756 230.452 161.264 231.496 160.904 232.552C160.52 233.608 160.328 234.64 160.328 235.648C160.328 236.968 160.688 238.036 161.408 238.852C162.104 239.692 163.1 240.112 164.396 240.112C164.804 240.112 165.176 240.088 165.512 240.04C165.824 239.992 166.184 239.908 166.592 239.788L167.924 234.208Z" fill="#E70C02"/>
</svg>
