<svg width="188" height="263" viewBox="0 0 188 263" fill="none" xmlns="http://www.w3.org/2000/svg">
<rect width="188" height="263" rx="4" fill="#F5F0E8"/>
<rect x="6.5" y="6.5" width="175" height="250" rx="2.5" fill="#F5F0E8" stroke="#E70C02" stroke-linecap="round"/>
<rect x="8.5" y="8.5" width="171" height="246" rx="2.5" fill="#F5F0E8" stroke="#E70C02" stroke-linecap="round"/>
<path d="M64.5 44L54.8125 59.5L64.5 75L74.1875 59.5L64.5 44Z" fill="#E70C02"/>
<path d="M121.5 44L111.812 59.5L121.5 75L131.188 59.5L121.5 44Z" fill="#E70C02"/>
<path d="M64.5 189L54.8125 204.5L64.5 220L74.1875 204.5L64.5 189Z" fill="#E70C02"/>
<path d="M121.5 188L111.812 203.5L121.5 219L131.188 203.5L121.5 188Z" fill="#E70C02"/>
<path d="M25.5 53L18.9375 63.5L25.5 74L32.0625 63.5L25.5 53Z" fill="#E70C02"/>
<path d="M33.468 46H22.344V44.452C23.52 44.044 24.624 43.756 25.656 43.588V39.52H15V37.9L28.788 20.368H30.732V37.18H35.16V39.52H30.732V43.588C31.668 43.78 32.58 44.068 33.468 44.452V46ZM25.656 29.512L26.016 26.992H25.908L24.54 29.512L19.32 36.244L17.88 37.432L20.436 37.18H25.656V29.512Z" fill="#E70C02"/>
<path d="M162.5 189L155.938 199.5L162.5 210L169.062 199.5L162.5 189Z" fill="#E70C02"/>
<path d="M154.532 217H165.656V218.548C164.48 218.956 163.376 219.244 162.344 219.412V223.48H173V225.1L159.212 242.632H157.268V225.82H152.84V223.48H157.268V219.412C156.332 219.22 155.42 218.932 154.532 218.548V217ZM162.344 233.488L161.984 236.008H162.092L163.46 233.488L168.68 226.756L170.12 225.568L167.564 225.82H162.344V233.488Z" fill="#E70C02"/>
</svg>
