<svg width="188" height="263" viewBox="0 0 188 263" fill="none" xmlns="http://www.w3.org/2000/svg">
<rect width="188" height="263" rx="4" fill="#F5F0E8"/>
<rect x="6.5" y="6.5" width="175" height="250" rx="2.5" fill="#F5F0E8" stroke="#E70C02" stroke-linecap="round"/>
<rect x="8.5" y="8.5" width="171" height="246" rx="2.5" fill="#F5F0E8" stroke="#E70C02" stroke-linecap="round"/>
<path d="M64.5 44L54.8125 59.5L64.5 75L74.1875 59.5L64.5 44Z" fill="#E70C02"/>
<path d="M94.5 116L84.8125 131.5L94.5 147L104.188 131.5L94.5 116Z" fill="#E70C02"/>
<path d="M123.5 44L113.812 59.5L123.5 75L133.188 59.5L123.5 44Z" fill="#E70C02"/>
<path d="M123.5 187L113.812 202.5L123.5 218L133.188 202.5L123.5 187Z" fill="#E70C02"/>
<path d="M64.5 188L54.8125 203.5L64.5 219L74.1875 203.5L64.5 188Z" fill="#E70C02"/>
<path d="M25.5 53L18.9375 63.5L25.5 74L32.0625 63.5L25.5 53Z" fill="#E70C02"/>
<path d="M31.38 18.82H32.604C32.604 19.18 32.592 19.648 32.568 20.224C32.544 20.8 32.496 21.388 32.424 21.988C32.352 22.588 32.268 23.164 32.172 23.716C32.076 24.244 31.98 24.652 31.884 24.94H22.02L21.372 30.088H24.36C25.656 30.088 26.832 30.268 27.888 30.628C28.944 30.964 29.844 31.468 30.588 32.14C31.332 32.788 31.908 33.592 32.316 34.552C32.724 35.488 32.928 36.568 32.928 37.792C32.928 39.16 32.664 40.384 32.136 41.464C31.632 42.52 30.936 43.42 30.048 44.164C29.16 44.884 28.116 45.448 26.916 45.856C25.716 46.24 24.42 46.432 23.028 46.432C21.636 46.432 20.364 46.216 19.212 45.784C18.06 45.328 17.136 44.824 16.44 44.272L17.952 40.708H18.996C19.164 40.876 19.356 41.092 19.572 41.356C19.788 41.62 20.016 41.896 20.256 42.184C20.496 42.472 20.724 42.76 20.94 43.048C21.156 43.336 21.348 43.588 21.516 43.804C21.756 43.9 21.972 43.972 22.164 44.02C22.38 44.068 22.656 44.092 22.992 44.092C23.712 44.092 24.384 43.972 25.008 43.732C25.632 43.468 26.16 43.108 26.592 42.652C27.048 42.196 27.408 41.656 27.672 41.032C27.936 40.384 28.068 39.676 28.068 38.908C28.068 38.068 27.9 37.336 27.564 36.712C27.252 36.064 26.82 35.536 26.268 35.128C25.716 34.72 25.068 34.42 24.324 34.228C23.58 34.012 22.8 33.904 21.984 33.904L18.852 33.94L20.292 20.8H29.688L31.38 18.82Z" fill="#E70C02"/>
<path d="M162.5 189L155.938 199.5L162.5 210L169.062 199.5L162.5 189Z" fill="#E70C02"/>
<path d="M156.62 244.18H155.396C155.396 243.82 155.408 243.352 155.432 242.776C155.456 242.2 155.504 241.612 155.576 241.012C155.648 240.412 155.732 239.836 155.828 239.284C155.924 238.756 156.02 238.348 156.116 238.06H165.98L166.628 232.912H163.64C162.344 232.912 161.168 232.732 160.112 232.372C159.056 232.036 158.156 231.532 157.412 230.86C156.668 230.212 156.092 229.408 155.684 228.448C155.276 227.512 155.072 226.432 155.072 225.208C155.072 223.84 155.336 222.616 155.864 221.536C156.368 220.48 157.064 219.58 157.952 218.836C158.84 218.116 159.884 217.552 161.084 217.144C162.284 216.76 163.58 216.568 164.972 216.568C166.364 216.568 167.636 216.784 168.788 217.216C169.94 217.672 170.864 218.176 171.56 218.728L170.048 222.292H169.004C168.836 222.124 168.644 221.908 168.428 221.644C168.212 221.38 167.984 221.104 167.744 220.816C167.504 220.528 167.276 220.24 167.06 219.952C166.844 219.664 166.652 219.412 166.484 219.196C166.244 219.1 166.028 219.028 165.836 218.98C165.62 218.932 165.344 218.908 165.008 218.908C164.288 218.908 163.616 219.028 162.992 219.268C162.368 219.532 161.84 219.892 161.408 220.348C160.952 220.804 160.592 221.344 160.328 221.968C160.064 222.616 159.932 223.324 159.932 224.092C159.932 224.932 160.1 225.664 160.436 226.288C160.748 226.936 161.18 227.464 161.732 227.872C162.284 228.28 162.932 228.58 163.676 228.772C164.42 228.988 165.2 229.096 166.016 229.096L169.148 229.06L167.708 242.2H158.312L156.62 244.18Z" fill="#E70C02"/>
</svg>
