<svg width="188" height="263" viewBox="0 0 188 263" fill="none" xmlns="http://www.w3.org/2000/svg">
<rect width="188" height="263" rx="4" fill="#F5F0E8"/>
<rect x="6.5" y="6.5" width="175" height="250" rx="2.5" fill="#F5F0E8" stroke="#E70C02" stroke-linecap="round"/>
<rect x="8.5" y="8.5" width="171" height="246" rx="2.5" fill="#F5F0E8" stroke="#E70C02" stroke-linecap="round"/>
<path d="M64.5 44L54.8125 59.5L64.5 75L74.1875 59.5L64.5 44Z" fill="#E70C02"/>
<path d="M123.5 44L113.812 59.5L123.5 75L133.188 59.5L123.5 44Z" fill="#E70C02"/>
<path d="M64.5 188L54.8125 203.5L64.5 219L74.1875 203.5L64.5 188Z" fill="#E70C02"/>
<path d="M123.5 187L113.812 202.5L123.5 218L133.188 202.5L123.5 187Z" fill="#E70C02"/>
<path d="M123.5 116L113.812 131.5L123.5 147L133.188 131.5L123.5 116Z" fill="#E70C02"/>
<path d="M64.5 116L54.8125 131.5L64.5 147L74.1875 131.5L64.5 116Z" fill="#E70C02"/>
<path d="M25.5 53L18.9375 63.5L25.5 74L32.0625 63.5L25.5 53Z" fill="#E70C02"/>
<path d="M34.296 38.26C34.296 39.508 34.056 40.636 33.576 41.644C33.12 42.652 32.496 43.516 31.704 44.236C30.912 44.932 29.976 45.472 28.896 45.856C27.84 46.24 26.712 46.432 25.512 46.432C24.024 46.432 22.704 46.204 21.552 45.748C20.424 45.268 19.476 44.608 18.708 43.768C17.94 42.928 17.352 41.932 16.944 40.78C16.56 39.628 16.368 38.368 16.368 37C16.368 34.744 16.764 32.68 17.556 30.808C18.348 28.936 19.416 27.28 20.76 25.84C22.104 24.4 23.664 23.2 25.44 22.24C27.24 21.28 29.148 20.584 31.164 20.152L31.704 21.7C30.408 22.108 29.208 22.66 28.104 23.356C27 24.052 26.016 24.904 25.152 25.912C24.312 26.896 23.616 28.024 23.064 29.296C22.536 30.544 22.2 31.924 22.056 33.436C22.248 33.124 22.488 32.824 22.776 32.536C23.088 32.224 23.46 31.948 23.892 31.708C24.324 31.444 24.816 31.24 25.368 31.096C25.944 30.928 26.592 30.844 27.312 30.844C28.296 30.844 29.208 31 30.048 31.312C30.912 31.624 31.656 32.092 32.28 32.716C32.904 33.34 33.396 34.12 33.756 35.056C34.116 35.968 34.296 37.036 34.296 38.26ZM28.896 38.692C28.896 35.14 27.708 33.364 25.332 33.364C24.516 33.364 23.82 33.58 23.244 34.012C22.668 34.42 22.248 34.9 21.984 35.452C21.912 35.788 21.852 36.184 21.804 36.64C21.78 37.072 21.768 37.492 21.768 37.9C21.768 38.716 21.84 39.508 21.984 40.276C22.128 41.02 22.356 41.692 22.668 42.292C22.98 42.868 23.376 43.336 23.856 43.696C24.36 44.056 24.96 44.236 25.656 44.236C26.256 44.236 26.76 44.092 27.168 43.804C27.576 43.492 27.9 43.084 28.14 42.58C28.404 42.076 28.596 41.488 28.716 40.816C28.836 40.144 28.896 39.436 28.896 38.692Z" fill="#E70C02"/>
<path d="M162.5 189L155.938 199.5L162.5 210L169.062 199.5L162.5 189Z" fill="#E70C02"/>
<path d="M153.704 224.74C153.704 223.492 153.944 222.364 154.424 221.356C154.88 220.348 155.504 219.484 156.296 218.764C157.088 218.068 158.024 217.528 159.104 217.144C160.16 216.76 161.288 216.568 162.488 216.568C163.976 216.568 165.296 216.796 166.448 217.252C167.576 217.732 168.524 218.392 169.292 219.232C170.06 220.072 170.648 221.068 171.056 222.22C171.44 223.372 171.632 224.632 171.632 226C171.632 228.256 171.236 230.32 170.444 232.192C169.652 234.064 168.584 235.72 167.24 237.16C165.896 238.6 164.336 239.8 162.56 240.76C160.76 241.72 158.852 242.416 156.836 242.848L156.296 241.3C157.592 240.892 158.792 240.34 159.896 239.644C161 238.948 161.984 238.096 162.848 237.088C163.688 236.104 164.384 234.976 164.936 233.704C165.464 232.456 165.8 231.076 165.944 229.564C165.752 229.876 165.512 230.176 165.224 230.464C164.912 230.776 164.54 231.052 164.108 231.292C163.676 231.556 163.184 231.76 162.632 231.904C162.056 232.072 161.408 232.156 160.688 232.156C159.704 232.156 158.792 232 157.952 231.688C157.088 231.376 156.344 230.908 155.72 230.284C155.096 229.66 154.604 228.88 154.244 227.944C153.884 227.032 153.704 225.964 153.704 224.74ZM159.104 224.308C159.104 227.86 160.292 229.636 162.668 229.636C163.484 229.636 164.18 229.42 164.756 228.988C165.332 228.58 165.752 228.1 166.016 227.548C166.088 227.212 166.148 226.816 166.196 226.36C166.22 225.928 166.232 225.508 166.232 225.1C166.232 224.284 166.16 223.492 166.016 222.724C165.872 221.98 165.644 221.308 165.332 220.708C165.02 220.132 164.624 219.664 164.144 219.304C163.64 218.944 163.04 218.764 162.344 218.764C161.744 218.764 161.24 218.908 160.832 219.196C160.424 219.508 160.1 219.916 159.86 220.42C159.596 220.924 159.404 221.512 159.284 222.184C159.164 222.856 159.104 223.564 159.104 224.308Z" fill="#E70C02"/>
</svg>
