<svg width="188" height="263" viewBox="0 0 188 263" fill="none" xmlns="http://www.w3.org/2000/svg">
<rect width="188" height="263" rx="4" fill="#F5F0E8"/>
<rect x="6.5" y="6.5" width="175" height="250" rx="2.5" fill="#F5F0E8" stroke="#E70C02" stroke-linecap="round"/>
<rect x="8.5" y="8.5" width="171" height="246" rx="2.5" fill="#F5F0E8" stroke="#E70C02" stroke-linecap="round"/>
<path d="M38.22 42.36C37.86 42.74 37.47 43.1 37.05 43.44C36.65 43.8 36.22 44.12 35.76 44.4C35.32 44.68 34.85 44.9 34.35 45.06C33.85 45.22 33.33 45.3 32.79 45.3C31.87 45.3 30.94 45.13 30 44.79C29.08 44.47 28.11 44.09 27.09 43.65C26.09 43.23 25.03 42.82 23.91 42.42C22.81 42.02 21.61 41.74 20.31 41.58L21.06 40.26C22.02 40.08 22.96 40.03 23.88 40.11C24.82 40.21 25.74 40.36 26.64 40.56C27.56 40.78 28.47 41.02 29.37 41.28C30.29 41.54 31.21 41.75 32.13 41.91C33.05 42.07 33.99 42.14 34.95 42.12C35.91 42.12 36.9 41.95 37.92 41.61L38.22 42.36ZM16.17 28.5C16.17 26.94 16.39 25.5 16.83 24.18C17.27 22.84 17.92 21.69 18.78 20.73C19.64 19.75 20.7 18.99 21.96 18.45C23.22 17.91 24.67 17.64 26.31 17.64C27.95 17.64 29.4 17.91 30.66 18.45C31.92 18.99 32.97 19.75 33.81 20.73C34.67 21.69 35.32 22.84 35.76 24.18C36.2 25.5 36.42 26.94 36.42 28.5C36.42 30.06 36.2 31.51 35.76 32.85C35.32 34.17 34.67 35.32 33.81 36.3C32.97 37.26 31.92 38.01 30.66 38.55C29.4 39.09 27.95 39.36 26.31 39.36C24.67 39.36 23.22 39.09 21.96 38.55C20.7 38.01 19.64 37.26 18.78 36.3C17.92 35.32 17.27 34.17 16.83 32.85C16.39 31.51 16.17 30.06 16.17 28.5ZM21.27 28.5C21.27 29.78 21.37 30.97 21.57 32.07C21.77 33.15 22.08 34.09 22.5 34.89C22.94 35.67 23.49 36.29 24.15 36.75C24.83 37.19 25.64 37.41 26.58 37.41C27.44 37.41 28.17 37.19 28.77 36.75C29.37 36.29 29.86 35.67 30.24 34.89C30.62 34.09 30.89 33.15 31.05 32.07C31.23 30.97 31.32 29.78 31.32 28.5C31.32 27.22 31.22 26.04 31.02 24.96C30.84 23.86 30.54 22.92 30.12 22.14C29.72 21.34 29.18 20.72 28.5 20.28C27.84 19.82 27.03 19.59 26.07 19.59C25.15 19.59 24.38 19.82 23.76 20.28C23.14 20.72 22.64 21.34 22.26 22.14C21.9 22.92 21.64 23.86 21.48 24.96C21.34 26.04 21.27 27.22 21.27 28.5Z" fill="#E70C02"/>
<path d="M26.5 50L19.9375 60.5L26.5 71L33.0625 60.5L26.5 50Z" fill="#E70C02"/>
<path d="M149.78 220.64C150.14 220.26 150.53 219.9 150.95 219.56C151.35 219.2 151.78 218.88 152.24 218.6C152.68 218.32 153.15 218.1 153.65 217.94C154.15 217.78 154.67 217.7 155.21 217.7C156.13 217.7 157.06 217.87 158 218.21C158.92 218.53 159.89 218.91 160.91 219.35C161.91 219.77 162.97 220.18 164.09 220.58C165.19 220.98 166.39 221.26 167.69 221.42L166.94 222.74C165.98 222.92 165.04 222.97 164.12 222.89C163.18 222.79 162.26 222.64 161.36 222.44C160.44 222.22 159.53 221.98 158.63 221.72C157.71 221.46 156.79 221.25 155.87 221.09C154.95 220.93 154.01 220.86 153.05 220.88C152.09 220.88 151.1 221.05 150.08 221.39L149.78 220.64ZM171.83 234.5C171.83 236.06 171.61 237.5 171.17 238.82C170.73 240.16 170.08 241.31 169.22 242.27C168.36 243.25 167.3 244.01 166.04 244.55C164.78 245.09 163.33 245.36 161.69 245.36C160.05 245.36 158.6 245.09 157.34 244.55C156.08 244.01 155.03 243.25 154.19 242.27C153.33 241.31 152.68 240.16 152.24 238.82C151.8 237.5 151.58 236.06 151.58 234.5C151.58 232.94 151.8 231.49 152.24 230.15C152.68 228.83 153.33 227.68 154.19 226.7C155.03 225.74 156.08 224.99 157.34 224.45C158.6 223.91 160.05 223.64 161.69 223.64C163.33 223.64 164.78 223.91 166.04 224.45C167.3 224.99 168.36 225.74 169.22 226.7C170.08 227.68 170.73 228.83 171.17 230.15C171.61 231.49 171.83 232.94 171.83 234.5ZM166.73 234.5C166.73 233.22 166.63 232.03 166.43 230.93C166.23 229.85 165.92 228.91 165.5 228.11C165.06 227.33 164.51 226.71 163.85 226.25C163.17 225.81 162.36 225.59 161.42 225.59C160.56 225.59 159.83 225.81 159.23 226.25C158.63 226.71 158.14 227.33 157.76 228.11C157.38 228.91 157.11 229.85 156.95 230.93C156.77 232.03 156.68 233.22 156.68 234.5C156.68 235.78 156.78 236.96 156.98 238.04C157.16 239.14 157.46 240.08 157.88 240.86C158.28 241.66 158.82 242.28 159.5 242.72C160.16 243.18 160.97 243.41 161.93 243.41C162.85 243.41 163.62 243.18 164.24 242.72C164.86 242.28 165.36 241.66 165.74 240.86C166.1 240.08 166.36 239.14 166.52 238.04C166.66 236.96 166.73 235.78 166.73 234.5Z" fill="#E70C02"/>
<path d="M161.5 192L154.938 202.5L161.5 213L168.062 202.5L161.5 192Z" fill="#E70C02"/>
<path d="M109 53.5C110.326 53.5 111.598 54.0268 112.536 54.9645C113.473 55.9021 114 57.1739 114 58.5C114 60.525 112.75 62.25 111.075 63.05L106.5 78.875V91H81.5V78.875L76.925 63.05C75.25 62.25 74 60.525 74 58.5C74 57.1739 74.5268 55.9021 75.4645 54.9645C76.4021 54.0268 77.6739 53.5 79 53.5C80.3261 53.5 81.5979 54.0268 82.5355 54.9645C83.4732 55.9021 84 57.1739 84 58.5C84 59.75 83.55 60.875 82.75 61.75L89.75 69.375L91.075 60.05C89.825 59.15 89 57.675 89 56C89 54.6739 89.5268 53.4021 90.4645 52.4645C91.4021 51.5268 92.6739 51 94 51C95.3261 51 96.5979 51.5268 97.5355 52.4645C98.4732 53.4021 99 54.6739 99 56C99 57.675 98.175 59.15 96.925 60.05L98.25 69.375L105.175 61.725C104.415 60.8223 103.999 59.68 104 58.5C104 57.1739 104.527 55.9021 105.464 54.9645C106.402 54.0268 107.674 53.5 109 53.5V53.5ZM76.5 96H111.5V101H76.5V96Z" fill="#E70C02"/>
<path d="M113.7 155.6C113.1 156.233 112.45 156.833 111.75 157.4C111.083 158 110.367 158.533 109.6 159C108.867 159.467 108.083 159.833 107.25 160.1C106.417 160.367 105.55 160.5 104.65 160.5C103.117 160.5 101.567 160.217 100 159.65C98.4667 159.117 96.85 158.483 95.15 157.75C93.4833 157.05 91.7167 156.367 89.85 155.7C88.0167 155.033 86.0167 154.567 83.85 154.3L85.1 152.1C86.7 151.8 88.2667 151.717 89.8 151.85C91.3667 152.017 92.9 152.267 94.4 152.6C95.9333 152.967 97.45 153.367 98.95 153.8C100.483 154.233 102.017 154.583 103.55 154.85C105.083 155.117 106.65 155.233 108.25 155.2C109.85 155.2 111.5 154.917 113.2 154.35L113.7 155.6ZM76.95 132.5C76.95 129.9 77.3167 127.5 78.05 125.3C78.7833 123.067 79.8667 121.15 81.3 119.55C82.7333 117.917 84.5 116.65 86.6 115.75C88.7 114.85 91.1167 114.4 93.85 114.4C96.5833 114.4 99 114.85 101.1 115.75C103.2 116.65 104.95 117.917 106.35 119.55C107.783 121.15 108.867 123.067 109.6 125.3C110.333 127.5 110.7 129.9 110.7 132.5C110.7 135.1 110.333 137.517 109.6 139.75C108.867 141.95 107.783 143.867 106.35 145.5C104.95 147.1 103.2 148.35 101.1 149.25C99 150.15 96.5833 150.6 93.85 150.6C91.1167 150.6 88.7 150.15 86.6 149.25C84.5 148.35 82.7333 147.1 81.3 145.5C79.8667 143.867 78.7833 141.95 78.05 139.75C77.3167 137.517 76.95 135.1 76.95 132.5ZM85.45 132.5C85.45 134.633 85.6167 136.617 85.95 138.45C86.2833 140.25 86.8 141.817 87.5 143.15C88.2333 144.45 89.15 145.483 90.25 146.25C91.3833 146.983 92.7333 147.35 94.3 147.35C95.7333 147.35 96.95 146.983 97.95 146.25C98.95 145.483 99.7667 144.45 100.4 143.15C101.033 141.817 101.483 140.25 101.75 138.45C102.05 136.617 102.2 134.633 102.2 132.5C102.2 130.367 102.033 128.4 101.7 126.6C101.4 124.767 100.9 123.2 100.2 121.9C99.5333 120.567 98.6333 119.533 97.5 118.8C96.4 118.033 95.05 117.65 93.45 117.65C91.9167 117.65 90.6333 118.033 89.6 118.8C88.5667 119.533 87.7333 120.567 87.1 121.9C86.5 123.2 86.0667 124.767 85.8 126.6C85.5667 128.4 85.45 130.367 85.45 132.5Z" fill="#E70C02"/>
<path d="M94 170L79 194L94 218L109 194L94 170Z" fill="#E70C02"/>
</svg>
