<svg width="188" height="263" viewBox="0 0 188 263" fill="none" xmlns="http://www.w3.org/2000/svg">
<rect width="188" height="263" rx="4" fill="#F5F0E8"/>
<rect x="6.5" y="6.5" width="175" height="250" rx="2.5" fill="#F5F0E8" stroke="#E70C02" stroke-linecap="round"/>
<rect x="8.5" y="8.5" width="171" height="246" rx="2.5" fill="#F5F0E8" stroke="#E70C02" stroke-linecap="round"/>
<path d="M64.5 44L54.8125 59.5L64.5 75L74.1875 59.5L64.5 44Z" fill="#E70C02"/>
<path d="M123.5 44L113.812 59.5L123.5 75L133.188 59.5L123.5 44Z" fill="#E70C02"/>
<path d="M94.5 84L84.8125 99.5L94.5 115L104.188 99.5L94.5 84Z" fill="#E70C02"/>
<path d="M64.5 126L54.8125 141.5L64.5 157L74.1875 141.5L64.5 126Z" fill="#E70C02"/>
<path d="M123.5 126L113.812 141.5L123.5 157L133.188 141.5L123.5 126Z" fill="#E70C02"/>
<path d="M63.5 188L53.8125 203.5L63.5 219L73.1875 203.5L63.5 188Z" fill="#E70C02"/>
<path d="M123.5 188L113.812 203.5L123.5 219L133.188 203.5L123.5 188Z" fill="#E70C02"/>
<path d="M25.5 53L18.9375 63.5L25.5 74L32.0625 63.5L25.5 53Z" fill="#E70C02"/>
<path d="M19.212 28.684H17.988C17.868 28.18 17.748 27.568 17.628 26.848C17.508 26.104 17.388 25.36 17.268 24.616C17.172 23.872 17.088 23.164 17.016 22.492C16.944 21.796 16.908 21.232 16.908 20.8H33.756V22.492C32.46 24.508 31.368 26.404 30.48 28.18C29.592 29.956 28.848 31.756 28.248 33.58C27.648 35.404 27.144 37.312 26.736 39.304C26.352 41.296 26.016 43.528 25.728 46H20.616C21.48 42.52 22.596 39.208 23.964 36.064C25.332 32.92 26.952 29.752 28.824 26.56L30.156 24.832L28.356 25.012H20.616L19.212 28.684Z" fill="#E70C02"/>
<path d="M162.5 189L155.938 199.5L162.5 210L169.062 199.5L162.5 189Z" fill="#E70C02"/>
<path d="M168.788 234.316H170.012C170.132 234.82 170.252 235.432 170.372 236.152C170.492 236.896 170.612 237.64 170.732 238.384C170.828 239.128 170.912 239.836 170.984 240.508C171.056 241.204 171.092 241.768 171.092 242.2H154.244V240.508C155.54 238.492 156.632 236.596 157.52 234.82C158.408 233.044 159.152 231.244 159.752 229.42C160.352 227.596 160.856 225.688 161.264 223.696C161.648 221.704 161.984 219.472 162.272 217H167.384C166.52 220.48 165.404 223.792 164.036 226.936C162.668 230.08 161.048 233.248 159.176 236.44L157.844 238.168L159.644 237.988H167.384L168.788 234.316Z" fill="#E70C02"/>
</svg>
