<svg width="188" height="263" viewBox="0 0 188 263" fill="none" xmlns="http://www.w3.org/2000/svg">
<rect width="188" height="263" rx="4" fill="#F5F0E8"/>
<rect x="6.5" y="6.5" width="175" height="250" rx="2.5" fill="#F5F0E8" stroke="#E70C02" stroke-linecap="round"/>
<rect x="8.5" y="8.5" width="171" height="246" rx="2.5" fill="#F5F0E8" stroke="#E70C02" stroke-linecap="round"/>
<path d="M154.532 217H165.656V218.548C164.48 218.956 163.376 219.244 162.344 219.412V223.48H173V225.1L159.212 242.632H157.268V225.82H152.84V223.48H157.268V219.412C156.332 219.22 155.42 218.932 154.532 218.548V217ZM162.344 233.488L161.984 236.008H162.092L163.46 233.488L168.68 226.756L170.12 225.568L167.564 225.82H162.344V233.488Z" fill="#E70C02"/>
<path d="M167.25 212.688C164.626 212.688 162.5 210.384 162.5 207.543C162.5 210.384 160.374 212.688 157.75 212.688C155.126 212.688 153 210.384 153 207.543C153 203.26 156.84 201.749 162.035 194.932C162.092 194.857 162.163 194.797 162.243 194.756C162.324 194.714 162.411 194.693 162.5 194.693C162.589 194.693 162.676 194.714 162.757 194.756C162.837 194.797 162.908 194.857 162.965 194.932C168.16 201.749 172 203.26 172 207.543C172 210.384 169.874 212.688 167.25 212.688Z" fill="#E70C02"/>
<path d="M33.468 46H22.344V44.452C23.52 44.044 24.624 43.756 25.656 43.588V39.52H15V37.9L28.788 20.368H30.732V37.18H35.16V39.52H30.732V43.588C31.668 43.78 32.58 44.068 33.468 44.452V46ZM25.656 29.512L26.016 26.992H25.908L24.54 29.512L19.32 36.244L17.88 37.432L20.436 37.18H25.656V29.512Z" fill="#E70C02"/>
<path d="M20.75 50.3125C23.3744 50.3125 25.5 52.6159 25.5 55.4575C25.5 52.6159 27.6256 50.3125 30.25 50.3125C32.8744 50.3125 35 52.6159 35 55.4575C35 59.7402 31.1596 61.2509 25.9655 68.068C25.9083 68.1429 25.837 68.203 25.7566 68.2443C25.6762 68.2856 25.5887 68.307 25.5 68.307C25.4113 68.307 25.3238 68.2856 25.2434 68.2443C25.163 68.203 25.0917 68.1429 25.0345 68.068C19.8404 61.2509 16 59.7402 16 55.4575C16 52.6159 18.1256 50.3125 20.75 50.3125Z" fill="#E70C02"/>
<path d="M56.75 52.1136C61.0319 52.1136 64.5 55.8231 64.5 60.3991C64.5 55.8231 67.9681 52.1136 72.25 52.1136C76.5319 52.1136 80 55.8231 80 60.3991C80 67.2959 73.7341 69.7287 65.2595 80.7069C65.1662 80.8275 65.0499 80.9244 64.9187 80.9909C64.7875 81.0573 64.6446 81.0918 64.5 81.0918C64.3554 81.0918 64.2125 81.0573 64.0813 80.9909C63.9501 80.9244 63.8338 80.8275 63.7405 80.7069C55.2659 69.7287 49 67.2959 49 60.3991C49 55.8231 52.4681 52.1136 56.75 52.1136Z" fill="#E70C02"/>
<path d="M115.75 52.1136C120.032 52.1136 123.5 55.8231 123.5 60.3991C123.5 55.8231 126.968 52.1136 131.25 52.1136C135.532 52.1136 139 55.8231 139 60.3991C139 67.2959 132.734 69.7287 124.26 80.7069C124.166 80.8275 124.05 80.9244 123.919 80.9909C123.788 81.0573 123.645 81.0918 123.5 81.0918C123.355 81.0918 123.212 81.0573 123.081 80.9909C122.95 80.9244 122.834 80.8275 122.74 80.7069C114.266 69.7287 108 67.2959 108 60.3991C108 55.8231 111.468 52.1136 115.75 52.1136Z" fill="#E70C02"/>
<g clip-path="url(#clip0_8_274)">
<path d="M72.25 210.886C67.9681 210.886 64.5 207.177 64.5 202.601C64.5 207.177 61.0319 210.886 56.75 210.886C52.4681 210.886 49 207.177 49 202.601C49 195.704 55.2659 193.271 63.7405 182.293C63.8338 182.173 63.9501 182.076 64.0813 182.009C64.2125 181.943 64.3554 181.908 64.5 181.908C64.6446 181.908 64.7875 181.943 64.9187 182.009C65.0499 182.076 65.1662 182.173 65.2595 182.293C73.7341 193.271 80 195.704 80 202.601C80 207.177 76.5319 210.886 72.25 210.886Z" fill="#E70C02"/>
</g>
<path d="M131.25 210.886C126.968 210.886 123.5 207.177 123.5 202.601C123.5 207.177 120.032 210.886 115.75 210.886C111.468 210.886 108 207.177 108 202.601C108 195.704 114.266 193.271 122.74 182.293C122.834 182.173 122.95 182.076 123.081 182.009C123.212 181.943 123.355 181.908 123.5 181.908C123.645 181.908 123.788 181.943 123.919 182.009C124.05 182.076 124.166 182.173 124.26 182.293C132.734 193.271 139 195.704 139 202.601C139 207.177 135.532 210.886 131.25 210.886Z" fill="#E70C02"/>
<defs>
<clipPath id="clip0_8_274">
<rect width="31" height="33.8182" fill="white" transform="translate(80 213) rotate(-180)"/>
</clipPath>
</defs>
</svg>
