<svg width="188" height="263" viewBox="0 0 188 263" fill="none" xmlns="http://www.w3.org/2000/svg">
<rect width="188" height="263" rx="4" fill="#F5F0E8"/>
<rect x="6.5" y="6.5" width="175" height="250" rx="2.5" fill="#F5F0E8" stroke="#E70C02" stroke-linecap="round"/>
<rect x="8.5" y="8.5" width="171" height="246" rx="2.5" fill="#F5F0E8" stroke="#E70C02" stroke-linecap="round"/>
<path d="M92 97L71.375 132.5L92 168L112.625 132.5L92 97Z" fill="#E70C02"/>
<path d="M25.5 53L18.9375 64L25.5 75L32.0625 64L25.5 53Z" fill="#E70C02"/>
<path d="M31.776 46H19.32V44.452C19.92 44.188 20.52 43.96 21.12 43.768C21.744 43.552 22.368 43.372 22.992 43.228V26.704L23.136 24.58C22.464 24.796 21.768 24.94 21.048 25.012C20.328 25.084 19.584 25.108 18.816 25.084L18.636 23.752C19.908 23.416 21.288 22.96 22.776 22.384C24.288 21.808 25.68 21.136 26.952 20.368H28.176V43.228C28.776 43.372 29.376 43.552 29.976 43.768C30.576 43.96 31.176 44.188 31.776 44.452V46Z" fill="#E70C02"/>
<path d="M162.5 189L155.938 200L162.5 211L169.062 200L162.5 189Z" fill="#E70C02"/>
<path d="M156.224 217H168.68V218.548C168.08 218.812 167.48 219.04 166.88 219.232C166.256 219.448 165.632 219.628 165.008 219.772V236.296L164.864 238.42C165.536 238.204 166.232 238.06 166.952 237.988C167.672 237.916 168.416 237.892 169.184 237.916L169.364 239.248C168.092 239.584 166.712 240.04 165.224 240.616C163.712 241.192 162.32 241.864 161.048 242.632H159.824V219.772C159.224 219.628 158.624 219.448 158.024 219.232C157.424 219.04 156.824 218.812 156.224 218.548V217Z" fill="#E70C02"/>
</svg>
