<svg width="188" height="263" viewBox="0 0 188 263" fill="none" xmlns="http://www.w3.org/2000/svg">
<rect width="188" height="263" rx="4" fill="#F5F0E8"/>
<rect x="6.5" y="6.5" width="175" height="250" rx="2.5" fill="#F5F0E8" stroke="black" stroke-linecap="round"/>
<rect x="8.5" y="8.5" width="171" height="246" rx="2.5" fill="#F5F0E8" stroke="black" stroke-linecap="round"/>
<path d="M73.7516 54.54C67.8926 50.1845 65.8717 46.6989 64.5019 44C63.1302 46.6989 61.1113 50.1845 55.2523 54.54C45.2606 61.9664 54.6652 72.3301 62.9345 66.6261C62.3959 70.1659 60.5572 72.7467 58.6894 73.8588V75.0019H70.3144V73.8588C68.4467 72.7467 66.608 70.1659 66.0694 66.6261C74.3386 72.3301 83.7432 61.9664 73.7516 54.54Z" fill="black"/>
<path d="M132.752 54.54C126.893 50.1845 124.872 46.6989 123.502 44C122.13 46.6989 120.111 50.1845 114.252 54.54C104.261 61.9664 113.665 72.3301 121.934 66.6261C121.396 70.1659 119.557 72.7467 117.689 73.8588V75.0019H129.314V73.8588C127.447 72.7467 125.608 70.1659 125.069 66.6261C133.339 72.3301 142.743 61.9664 132.752 54.54Z" fill="black"/>
<path d="M55.2523 208.462C61.1113 212.817 63.1321 216.303 64.5019 219.002C65.8737 216.303 67.8926 212.817 73.7516 208.462C83.7433 201.036 74.3386 190.672 66.0694 196.376C66.608 192.836 68.4467 190.255 70.3144 189.143V188H58.6894V189.143C60.5572 190.255 62.3959 192.836 62.9345 196.376C54.6653 190.672 45.2606 201.036 55.2523 208.462Z" fill="black"/>
<path d="M114.248 208.46C120.107 212.815 122.128 216.301 123.498 219C124.87 216.301 126.889 212.815 132.748 208.46C142.739 201.034 133.335 190.67 125.066 196.374C125.604 192.834 127.443 190.253 129.311 189.141V187.998H117.686V189.141C119.553 190.253 121.392 192.834 121.931 196.374C113.661 190.67 104.257 201.034 114.248 208.46Z" fill="black"/>
<path d="M31.7672 60.14C27.7982 57.1895 26.4293 54.8283 25.5013 53C24.5721 54.8283 23.2044 57.1895 19.2354 60.14C12.4669 65.1708 18.8378 72.1914 24.4395 68.3274C24.0746 70.7253 22.8291 72.4736 21.5638 73.2269V74.0013H29.4388V73.2269C28.1736 72.4736 26.928 70.7253 26.5631 68.3274C32.1649 72.1914 38.5358 65.1708 31.7672 60.14Z" fill="black"/>
<path d="M33.468 46H22.344V44.452C23.52 44.044 24.624 43.756 25.656 43.588V39.52H15V37.9L28.788 20.368H30.732V37.18H35.16V39.52H30.732V43.588C31.668 43.78 32.58 44.068 33.468 44.452V46ZM25.656 29.512L26.016 26.992H25.908L24.54 29.512L19.32 36.244L17.88 37.432L20.436 37.18H25.656V29.512Z" fill="black"/>
<path d="M156.233 202.86C160.202 205.81 161.571 208.172 162.499 210C163.428 208.172 164.796 205.81 168.765 202.86C175.533 197.829 169.162 190.809 163.56 194.673C163.925 192.275 165.171 190.526 166.436 189.773V188.999H158.561V189.773C159.826 190.526 161.072 192.275 161.437 194.673C155.835 190.809 149.464 197.829 156.233 202.86Z" fill="black"/>
<path d="M154.532 217H165.656V218.548C164.48 218.956 163.376 219.244 162.344 219.412V223.48H173V225.1L159.212 242.632H157.268V225.82H152.84V223.48H157.268V219.412C156.332 219.22 155.42 218.932 154.532 218.548V217ZM162.344 233.488L161.984 236.008H162.092L163.46 233.488L168.68 226.756L170.12 225.568L167.564 225.82H162.344V233.488Z" fill="black"/>
</svg>
