<svg width="188" height="263" viewBox="0 0 188 263" fill="none" xmlns="http://www.w3.org/2000/svg">
<rect width="188" height="263" rx="4" fill="#F5F0E8"/>
<rect x="6.5" y="6.5" width="175" height="250" rx="2.5" fill="#F5F0E8" stroke="black" stroke-linecap="round"/>
<rect x="8.5" y="8.5" width="171" height="246" rx="2.5" fill="#F5F0E8" stroke="black" stroke-linecap="round"/>
<path d="M73.7516 54.54C67.8926 50.1845 65.8717 46.6989 64.5019 44C63.1302 46.6989 61.1113 50.1845 55.2523 54.54C45.2606 61.9664 54.6652 72.3301 62.9345 66.6261C62.3959 70.1659 60.5572 72.7467 58.6894 73.8588V75.0019H70.3144V73.8588C68.4467 72.7467 66.608 70.1659 66.0694 66.6261C74.3386 72.3301 83.7432 61.9664 73.7516 54.54Z" fill="black"/>
<path d="M103.752 126.54C97.8926 122.185 95.8717 118.699 94.5019 116C93.1302 118.699 91.1113 122.185 85.2523 126.54C75.2606 133.966 84.6652 144.33 92.9345 138.626C92.3959 142.166 90.5572 144.747 88.6894 145.859V147.002H100.314V145.859C98.4467 144.747 96.608 142.166 96.0694 138.626C104.339 144.33 113.743 133.966 103.752 126.54Z" fill="black"/>
<path d="M132.752 54.54C126.893 50.1845 124.872 46.6989 123.502 44C122.13 46.6989 120.111 50.1845 114.252 54.54C104.261 61.9664 113.665 72.3301 121.934 66.6261C121.396 70.1659 119.557 72.7467 117.689 73.8588V75.0019H129.314V73.8588C127.447 72.7467 125.608 70.1659 125.069 66.6261C133.339 72.3301 142.743 61.9664 132.752 54.54Z" fill="black"/>
<path d="M55.2523 208.462C61.1113 212.817 63.1321 216.303 64.5019 219.002C65.8737 216.303 67.8926 212.817 73.7516 208.462C83.7433 201.036 74.3386 190.672 66.0694 196.376C66.608 192.836 68.4467 190.255 70.3144 189.143V188H58.6894V189.143C60.5572 190.255 62.3959 192.836 62.9345 196.376C54.6653 190.672 45.2606 201.036 55.2523 208.462Z" fill="black"/>
<path d="M114.248 208.46C120.107 212.815 122.128 216.301 123.498 219C124.87 216.301 126.889 212.815 132.748 208.46C142.739 201.034 133.335 190.67 125.066 196.374C125.604 192.834 127.443 190.253 129.311 189.141V187.998H117.686V189.141C119.553 190.253 121.392 192.834 121.931 196.374C113.661 190.67 104.257 201.034 114.248 208.46Z" fill="black"/>
<path d="M31.7672 60.14C27.7982 57.1895 26.4293 54.8283 25.5013 53C24.5721 54.8283 23.2045 57.1895 19.2355 60.14C12.4669 65.1708 18.8378 72.1914 24.4395 68.3274C24.0746 70.7253 22.8291 72.4736 21.5638 73.2269V74.0013H29.4388V73.2269C28.1736 72.4736 26.928 70.7253 26.5631 68.3274C32.1649 72.1914 38.5358 65.1708 31.7672 60.14Z" fill="black"/>
<path d="M31.38 18.82H32.604C32.604 19.18 32.592 19.648 32.568 20.224C32.544 20.8 32.496 21.388 32.424 21.988C32.352 22.588 32.268 23.164 32.172 23.716C32.076 24.244 31.98 24.652 31.884 24.94H22.02L21.372 30.088H24.36C25.656 30.088 26.832 30.268 27.888 30.628C28.944 30.964 29.844 31.468 30.588 32.14C31.332 32.788 31.908 33.592 32.316 34.552C32.724 35.488 32.928 36.568 32.928 37.792C32.928 39.16 32.664 40.384 32.136 41.464C31.632 42.52 30.936 43.42 30.048 44.164C29.16 44.884 28.116 45.448 26.916 45.856C25.716 46.24 24.42 46.432 23.028 46.432C21.636 46.432 20.364 46.216 19.212 45.784C18.06 45.328 17.136 44.824 16.44 44.272L17.952 40.708H18.996C19.164 40.876 19.356 41.092 19.572 41.356C19.788 41.62 20.016 41.896 20.256 42.184C20.496 42.472 20.724 42.76 20.94 43.048C21.156 43.336 21.348 43.588 21.516 43.804C21.756 43.9 21.972 43.972 22.164 44.02C22.38 44.068 22.656 44.092 22.992 44.092C23.712 44.092 24.384 43.972 25.008 43.732C25.632 43.468 26.16 43.108 26.592 42.652C27.048 42.196 27.408 41.656 27.672 41.032C27.936 40.384 28.068 39.676 28.068 38.908C28.068 38.068 27.9 37.336 27.564 36.712C27.252 36.064 26.82 35.536 26.268 35.128C25.716 34.72 25.068 34.42 24.324 34.228C23.58 34.012 22.8 33.904 21.984 33.904L18.852 33.94L20.292 20.8H29.688L31.38 18.82Z" fill="black"/>
<path d="M156.233 202.86C160.202 205.81 161.571 208.172 162.499 210C163.428 208.172 164.796 205.81 168.765 202.86C175.533 197.829 169.162 190.809 163.56 194.673C163.925 192.275 165.171 190.526 166.436 189.773V188.999H158.561V189.773C159.826 190.526 161.072 192.275 161.437 194.673C155.835 190.809 149.464 197.829 156.233 202.86Z" fill="black"/>
<path d="M156.62 244.18H155.396C155.396 243.82 155.408 243.352 155.432 242.776C155.456 242.2 155.504 241.612 155.576 241.012C155.648 240.412 155.732 239.836 155.828 239.284C155.924 238.756 156.02 238.348 156.116 238.06H165.98L166.628 232.912H163.64C162.344 232.912 161.168 232.732 160.112 232.372C159.056 232.036 158.156 231.532 157.412 230.86C156.668 230.212 156.092 229.408 155.684 228.448C155.276 227.512 155.072 226.432 155.072 225.208C155.072 223.84 155.336 222.616 155.864 221.536C156.368 220.48 157.064 219.58 157.952 218.836C158.84 218.116 159.884 217.552 161.084 217.144C162.284 216.76 163.58 216.568 164.972 216.568C166.364 216.568 167.636 216.784 168.788 217.216C169.94 217.672 170.864 218.176 171.56 218.728L170.048 222.292H169.004C168.836 222.124 168.644 221.908 168.428 221.644C168.212 221.38 167.984 221.104 167.744 220.816C167.504 220.528 167.276 220.24 167.06 219.952C166.844 219.664 166.652 219.412 166.484 219.196C166.244 219.1 166.028 219.028 165.836 218.98C165.62 218.932 165.344 218.908 165.008 218.908C164.288 218.908 163.616 219.028 162.992 219.268C162.368 219.532 161.84 219.892 161.408 220.348C160.952 220.804 160.592 221.344 160.328 221.968C160.064 222.616 159.932 223.324 159.932 224.092C159.932 224.932 160.1 225.664 160.436 226.288C160.748 226.936 161.18 227.464 161.732 227.872C162.284 228.28 162.932 228.58 163.676 228.772C164.42 228.988 165.2 229.096 166.016 229.096L169.148 229.06L167.708 242.2H158.312L156.62 244.18Z" fill="black"/>
</svg>
