<svg width="188" height="263" viewBox="0 0 188 263" fill="none" xmlns="http://www.w3.org/2000/svg">
<rect width="188" height="263" rx="4" fill="#F5F0E8"/>
<rect x="6.5" y="6.5" width="175" height="250" rx="2.5" fill="#F5F0E8" stroke="black" stroke-linecap="round"/>
<rect x="8.5" y="8.5" width="171" height="246" rx="2.5" fill="#F5F0E8" stroke="black" stroke-linecap="round"/>
<path d="M21.8315 18H31.0715V19.14C30.7515 19.34 30.3915 19.52 29.9915 19.68C29.5915 19.84 29.1915 19.95 28.7915 20.01V35.37C28.7915 37.01 28.5415 38.35 28.0415 39.39C27.5615 40.45 26.9815 41.28 26.3015 41.88C25.6415 42.5 24.9615 42.95 24.2615 43.23C23.5615 43.51 22.9915 43.7 22.5515 43.8L21.9815 43.02C22.2815 42.78 22.5715 42.47 22.8515 42.09C23.1315 41.73 23.3715 41.26 23.5715 40.68C23.7915 40.1 23.9615 39.4 24.0815 38.58C24.2215 37.74 24.2915 36.73 24.2915 35.55V20.01C23.8515 19.91 23.4115 19.8 22.9715 19.68C22.5515 19.54 22.1715 19.36 21.8315 19.14V18Z" fill="black"/>
<path d="M32.7672 57.14C28.7982 54.1895 27.4293 51.8283 26.5014 50C25.5721 51.8283 24.2045 54.1895 20.2355 57.14C13.4669 62.1708 19.8378 69.1914 25.4396 65.3274C25.0747 67.7253 23.8291 69.4736 22.5639 70.2269V71.0013H30.4389V70.2269C29.1736 69.4736 27.9281 67.7253 27.5632 65.3274C33.1649 69.1914 39.5358 62.1708 32.7672 57.14V57.14Z" fill="black"/>
<path d="M167.169 245H157.929V243.86C158.249 243.66 158.609 243.48 159.009 243.32C159.409 243.16 159.809 243.05 160.209 242.99V227.63C160.209 225.99 160.459 224.65 160.959 223.61C161.439 222.55 162.019 221.72 162.699 221.12C163.359 220.5 164.039 220.05 164.739 219.77C165.439 219.49 166.009 219.3 166.449 219.2L167.019 219.98C166.719 220.22 166.429 220.53 166.149 220.91C165.869 221.27 165.629 221.74 165.429 222.32C165.209 222.9 165.039 223.6 164.919 224.42C164.779 225.26 164.709 226.27 164.709 227.45V242.99C165.149 243.09 165.589 243.2 166.029 243.32C166.449 243.46 166.829 243.64 167.169 243.86V245Z" fill="black"/>
<path d="M155.233 205.86C159.202 208.81 160.571 211.172 161.499 213C162.428 211.172 163.796 208.81 167.765 205.86C174.533 200.829 168.162 193.809 162.56 197.673C162.925 195.275 164.171 193.526 165.436 192.773V191.999H157.561V192.773C158.826 193.526 160.072 195.275 160.437 197.673C154.835 193.809 148.464 200.829 155.233 205.86V205.86Z" fill="black"/>
<path d="M86.7191 88H102.119V89.9C101.586 90.2333 100.986 90.5333 100.319 90.8C99.6525 91.0667 98.9858 91.25 98.3191 91.35V116.95C98.3191 119.683 97.9025 121.917 97.0691 123.65C96.2691 125.417 95.3025 126.8 94.1691 127.8C93.0691 128.833 91.9358 129.583 90.7691 130.05C89.6025 130.517 88.6525 130.833 87.9191 131L86.9691 129.7C87.4691 129.3 87.9525 128.783 88.4191 128.15C88.8858 127.55 89.2858 126.767 89.6191 125.8C89.9858 124.833 90.2691 123.667 90.4691 122.3C90.7025 120.9 90.8191 119.217 90.8191 117.25V91.35C90.0858 91.1833 89.3525 91 88.6191 90.8C87.9191 90.5667 87.2858 90.2667 86.7191 89.9V88Z" fill="black"/>
<path d="M108.325 159.32C99.253 152.576 96.124 147.179 94.003 143C91.879 147.179 88.753 152.576 79.681 159.32C64.21 170.819 78.772 186.866 91.576 178.034C90.742 183.515 87.895 187.511 85.003 189.233V191.003H103.003V189.233C100.111 187.511 97.264 183.515 96.43 178.034C109.234 186.866 123.796 170.819 108.325 159.32V159.32Z" fill="black"/>
</svg>
