<svg width="188" height="263" viewBox="0 0 188 263" fill="none" xmlns="http://www.w3.org/2000/svg">
<rect width="188" height="263" rx="4" fill="#F5F0E8"/>
<rect x="6.5" y="6.5" width="175" height="250" rx="2.5" fill="#F5F0E8" stroke="black" stroke-linecap="round"/>
<rect x="8.5" y="8.5" width="171" height="246" rx="2.5" fill="#F5F0E8" stroke="black" stroke-linecap="round"/>
<path d="M26.8206 18H34.8606V19.14C34.5206 19.36 34.1306 19.55 33.6906 19.71C33.2506 19.85 32.8506 19.95 32.4906 20.01L26.7906 27.24C27.2506 27.88 27.7906 28.61 28.4106 29.43C29.0306 30.23 29.6906 31.07 30.3906 31.95C31.0906 32.81 31.8106 33.69 32.5506 34.59C33.2906 35.47 34.0106 36.31 34.7106 37.11L36.1506 37.98V39H30.9306L29.7306 38.16C29.2506 37.56 28.7406 36.9 28.2006 36.18C27.6806 35.44 27.1606 34.68 26.6406 33.9C26.1206 33.1 25.6106 32.3 25.1106 31.5C24.6106 30.7 24.1406 29.92 23.7006 29.16H22.4106V36.99C22.8506 37.07 23.2506 37.19 23.6106 37.35C23.9706 37.51 24.2806 37.68 24.5406 37.86V39H15.4506V37.86C15.8506 37.66 16.2606 37.49 16.6806 37.35C17.1006 37.19 17.5106 37.07 17.9106 36.99V20.01C17.4506 19.95 17.0006 19.84 16.5606 19.68C16.1406 19.52 15.7706 19.34 15.4506 19.14V18H24.5406V19.14C24.2806 19.3 23.9606 19.46 23.5806 19.62C23.2206 19.78 22.8306 19.91 22.4106 20.01V27.63L24.1806 27.21L29.0106 20.01C28.6106 19.93 28.2106 19.81 27.8106 19.65C27.4306 19.47 27.1006 19.3 26.8206 19.14V18Z" fill="black"/>
<path d="M32.7672 57.14C28.7982 54.1895 27.4293 51.8283 26.5014 50C25.5721 51.8283 24.2045 54.1895 20.2355 57.14C13.4669 62.1708 19.8378 69.1914 25.4396 65.3274C25.0747 67.7253 23.8291 69.4736 22.5639 70.2269V71.0013H30.4389V70.2269C29.1736 69.4736 27.9281 67.7253 27.5632 65.3274C33.1649 69.1914 39.5358 62.1708 32.7672 57.14V57.14Z" fill="black"/>
<path d="M161.179 245H153.139V243.86C153.479 243.64 153.869 243.45 154.309 243.29C154.749 243.15 155.149 243.05 155.509 242.99L161.209 235.76C160.749 235.12 160.209 234.39 159.589 233.57C158.969 232.77 158.309 231.93 157.609 231.05C156.909 230.19 156.189 229.31 155.449 228.41C154.709 227.53 153.989 226.69 153.289 225.89L151.849 225.02V224H157.069L158.269 224.84C158.749 225.44 159.259 226.1 159.799 226.82C160.319 227.56 160.839 228.32 161.359 229.1C161.879 229.9 162.389 230.7 162.889 231.5C163.389 232.3 163.859 233.08 164.299 233.84H165.589V226.01C165.149 225.93 164.749 225.81 164.389 225.65C164.029 225.49 163.719 225.32 163.459 225.14V224H172.549V225.14C172.149 225.34 171.739 225.51 171.319 225.65C170.899 225.81 170.489 225.93 170.089 226.01V242.99C170.549 243.05 170.999 243.16 171.439 243.32C171.859 243.48 172.229 243.66 172.549 243.86V245H163.459V243.86C163.719 243.7 164.039 243.54 164.419 243.38C164.779 243.22 165.169 243.09 165.589 242.99V235.37L163.819 235.79L158.989 242.99C159.389 243.07 159.789 243.19 160.189 243.35C160.569 243.53 160.899 243.7 161.179 243.86V245Z" fill="black"/>
<path d="M155.233 205.86C159.202 208.81 160.571 211.172 161.499 213C162.428 211.172 163.796 208.81 167.765 205.86C174.533 200.829 168.162 193.809 162.56 197.673C162.925 195.275 164.171 193.526 165.436 192.773V191.999H157.561V192.773C158.826 193.526 160.072 195.275 160.437 197.673C154.835 193.809 148.464 200.829 155.233 205.86V205.86Z" fill="black"/>
<path d="M109 53.5C110.326 53.5 111.598 54.0268 112.536 54.9645C113.473 55.9021 114 57.1739 114 58.5C114 60.525 112.75 62.25 111.075 63.05L106.5 78.875V91H81.5V78.875L76.925 63.05C75.25 62.25 74 60.525 74 58.5C74 57.1739 74.5268 55.9021 75.4645 54.9645C76.4021 54.0268 77.6739 53.5 79 53.5C80.3261 53.5 81.5979 54.0268 82.5355 54.9645C83.4732 55.9021 84 57.1739 84 58.5C84 59.75 83.55 60.875 82.75 61.75L89.75 69.375L91.075 60.05C89.825 59.15 89 57.675 89 56C89 54.6739 89.5268 53.4021 90.4645 52.4645C91.4021 51.5268 92.6739 51 94 51C95.3261 51 96.5979 51.5268 97.5355 52.4645C98.4732 53.4021 99 54.6739 99 56C99 57.675 98.175 59.15 96.925 60.05L98.25 69.375L105.175 61.725C104.415 60.8223 103.999 59.68 104 58.5C104 57.1739 104.527 55.9021 105.464 54.9645C106.402 54.0268 107.674 53.5 109 53.5V53.5ZM76.5 96H111.5V101H76.5V96Z" fill="black"/>
<path d="M94.95 115H108.35V116.9C107.783 117.267 107.133 117.583 106.4 117.85C105.667 118.083 105 118.25 104.4 118.35L94.9 130.4C95.6667 131.467 96.5667 132.683 97.6 134.05C98.6333 135.383 99.7333 136.783 100.9 138.25C102.067 139.683 103.267 141.15 104.5 142.65C105.733 144.117 106.933 145.517 108.1 146.85L110.5 148.3V150H101.8L99.8 148.6C99 147.6 98.15 146.5 97.25 145.3C96.3833 144.067 95.5167 142.8 94.65 141.5C93.7833 140.167 92.9333 138.833 92.1 137.5C91.2667 136.167 90.4833 134.867 89.75 133.6H87.6V146.65C88.3333 146.783 89 146.983 89.6 147.25C90.2 147.517 90.7167 147.8 91.15 148.1V150H76V148.1C76.6667 147.767 77.35 147.483 78.05 147.25C78.75 146.983 79.4333 146.783 80.1 146.65V118.35C79.3333 118.25 78.5833 118.067 77.85 117.8C77.15 117.533 76.5333 117.233 76 116.9V115H91.15V116.9C90.7167 117.167 90.1833 117.433 89.55 117.7C88.95 117.967 88.3 118.183 87.6 118.35V131.05L90.55 130.35L98.6 118.35C97.9333 118.217 97.2667 118.017 96.6 117.75C95.9667 117.45 95.4167 117.167 94.95 116.9V115Z" fill="black"/>
<path d="M108.325 186.32C99.253 179.576 96.124 174.179 94.003 170C91.879 174.179 88.753 179.576 79.681 186.32C64.21 197.819 78.772 213.866 91.576 205.034C90.742 210.515 87.895 214.511 85.003 216.233V218.003H103.003V216.233C100.111 214.511 97.264 210.515 96.43 205.034C109.234 213.866 123.796 197.819 108.325 186.32V186.32Z" fill="black"/>
</svg>
