<svg width="188" height="263" viewBox="0 0 188 263" fill="none" xmlns="http://www.w3.org/2000/svg">
<rect width="188" height="263" rx="4" fill="#F5F0E8"/>
<rect x="6.5" y="6.5" width="175" height="250" rx="2.5" fill="#F5F0E8" stroke="black" stroke-linecap="round"/>
<rect x="8.5" y="8.5" width="171" height="246" rx="2.5" fill="#F5F0E8" stroke="black" stroke-linecap="round"/>
<path d="M73.7516 54.54C67.8926 50.1845 65.8717 46.6989 64.5019 44C63.1302 46.6989 61.1113 50.1845 55.2523 54.54C45.2606 61.9664 54.6652 72.3301 62.9345 66.6261C62.3959 70.1659 60.5572 72.7467 58.6894 73.8588V75.0019H70.3144V73.8588C68.4467 72.7467 66.608 70.1659 66.0694 66.6261C74.3386 72.3301 83.7432 61.9664 73.7516 54.54Z" fill="black"/>
<path d="M73.7516 136.54C67.8926 132.185 65.8717 128.699 64.5019 126C63.1302 128.699 61.1113 132.185 55.2523 136.54C45.2606 143.966 54.6652 154.33 62.9345 148.626C62.3959 152.166 60.5572 154.747 58.6894 155.859V157.002H70.3144V155.859C68.4467 154.747 66.608 152.166 66.0694 148.626C74.3386 154.33 83.7432 143.966 73.7516 136.54Z" fill="black"/>
<path d="M103.752 94.54C97.8926 90.1845 95.8717 86.6989 94.5019 84C93.1302 86.6989 91.1113 90.1845 85.2523 94.54C75.2606 101.966 84.6652 112.33 92.9345 106.626C92.3959 110.166 90.5572 112.747 88.6894 113.859V115.002H100.314V113.859C98.4467 112.747 96.608 110.166 96.0694 106.626C104.339 112.33 113.743 101.966 103.752 94.54Z" fill="black"/>
<path d="M132.752 136.54C126.893 132.185 124.872 128.699 123.502 126C122.13 128.699 120.111 132.185 114.252 136.54C104.261 143.966 113.665 154.33 121.934 148.626C121.396 152.166 119.557 154.747 117.689 155.859V157.002H129.314V155.859C127.447 154.747 125.608 152.166 125.069 148.626C133.339 154.33 142.743 143.966 132.752 136.54Z" fill="black"/>
<path d="M132.752 54.54C126.893 50.1845 124.872 46.6989 123.502 44C122.13 46.6989 120.111 50.1845 114.252 54.54C104.261 61.9664 113.665 72.3301 121.934 66.6261C121.396 70.1659 119.557 72.7467 117.689 73.8588V75.0019H129.314V73.8588C127.447 72.7467 125.608 70.1659 125.069 66.6261C133.339 72.3301 142.743 61.9664 132.752 54.54Z" fill="black"/>
<path d="M55.2523 208.462C61.1113 212.817 63.1321 216.303 64.5019 219.002C65.8737 216.303 67.8925 212.817 73.7515 208.462C83.7432 201.036 74.3386 190.672 66.0693 196.376C66.608 192.836 68.4467 190.255 70.3144 189.143V188H58.6894V189.143C60.5572 190.255 62.3958 192.836 62.9345 196.376C54.6652 190.672 45.2606 201.036 55.2523 208.462Z" fill="black"/>
<path d="M114.248 208.46C120.107 212.815 122.128 216.301 123.498 219C124.87 216.301 126.889 212.815 132.748 208.46C142.739 201.034 133.335 190.67 125.066 196.374C125.604 192.834 127.443 190.253 129.311 189.141V187.998H117.686V189.141C119.553 190.253 121.392 192.834 121.931 196.374C113.661 190.67 104.257 201.034 114.248 208.46Z" fill="black"/>
<path d="M31.7672 60.14C27.7982 57.1895 26.4292 54.8283 25.5013 53C24.5721 54.8283 23.2044 57.1895 19.2354 60.14C12.4669 65.1708 18.8377 72.1914 24.4395 68.3274C24.0746 70.7253 22.8291 72.4736 21.5638 73.2269V74.0013H29.4388V73.2269C28.1736 72.4736 26.928 70.7253 26.5631 68.3274C32.1649 72.1914 38.5357 65.1708 31.7672 60.14Z" fill="black"/>
<path d="M19.212 28.684H17.988C17.868 28.18 17.748 27.568 17.628 26.848C17.508 26.104 17.388 25.36 17.268 24.616C17.172 23.872 17.088 23.164 17.016 22.492C16.944 21.796 16.908 21.232 16.908 20.8H33.756V22.492C32.46 24.508 31.368 26.404 30.48 28.18C29.592 29.956 28.848 31.756 28.248 33.58C27.648 35.404 27.144 37.312 26.736 39.304C26.352 41.296 26.016 43.528 25.728 46H20.616C21.48 42.52 22.596 39.208 23.964 36.064C25.332 32.92 26.952 29.752 28.824 26.56L30.156 24.832L28.356 25.012H20.616L19.212 28.684Z" fill="black"/>
<path d="M156.233 202.86C160.202 205.81 161.571 208.172 162.499 210C163.428 208.172 164.796 205.81 168.765 202.86C175.533 197.829 169.162 190.809 163.561 194.673C163.925 192.275 165.171 190.526 166.436 189.773V188.999H158.561V189.773C159.826 190.526 161.072 192.275 161.437 194.673C155.835 190.809 149.464 197.829 156.233 202.86Z" fill="black"/>
<path d="M168.788 234.316H170.012C170.132 234.82 170.252 235.432 170.372 236.152C170.492 236.896 170.612 237.64 170.732 238.384C170.828 239.128 170.912 239.836 170.984 240.508C171.056 241.204 171.092 241.768 171.092 242.2H154.244V240.508C155.54 238.492 156.632 236.596 157.52 234.82C158.408 233.044 159.152 231.244 159.752 229.42C160.352 227.596 160.856 225.688 161.264 223.696C161.648 221.704 161.984 219.472 162.272 217H167.384C166.52 220.48 165.404 223.792 164.036 226.936C162.668 230.08 161.048 233.248 159.176 236.44L157.844 238.168L159.644 237.988H167.384L168.788 234.316Z" fill="black"/>
</svg>
