<svg width="188" height="263" viewBox="0 0 188 263" fill="none" xmlns="http://www.w3.org/2000/svg">
<rect width="188" height="263" rx="4" fill="#F5F0E8"/>
<rect x="6.5" y="6.5" width="175" height="250" rx="2.5" fill="#F5F0E8" stroke="#E70C02" stroke-linecap="round"/>
<rect x="8.5" y="8.5" width="171" height="246" rx="2.5" fill="#F5F0E8" stroke="#E70C02" stroke-linecap="round"/>
<path d="M156.62 244.18H155.396C155.396 243.82 155.408 243.352 155.432 242.776C155.456 242.2 155.504 241.612 155.576 241.012C155.648 240.412 155.732 239.836 155.828 239.284C155.924 238.756 156.02 238.348 156.116 238.06H165.98L166.628 232.912H163.64C162.344 232.912 161.168 232.732 160.112 232.372C159.056 232.036 158.156 231.532 157.412 230.86C156.668 230.212 156.092 229.408 155.684 228.448C155.276 227.512 155.072 226.432 155.072 225.208C155.072 223.84 155.336 222.616 155.864 221.536C156.368 220.48 157.064 219.58 157.952 218.836C158.84 218.116 159.884 217.552 161.084 217.144C162.284 216.76 163.58 216.568 164.972 216.568C166.364 216.568 167.636 216.784 168.788 217.216C169.94 217.672 170.864 218.176 171.56 218.728L170.048 222.292H169.004C168.836 222.124 168.644 221.908 168.428 221.644C168.212 221.38 167.984 221.104 167.744 220.816C167.504 220.528 167.276 220.24 167.06 219.952C166.844 219.664 166.652 219.412 166.484 219.196C166.244 219.1 166.028 219.028 165.836 218.98C165.62 218.932 165.344 218.908 165.008 218.908C164.288 218.908 163.616 219.028 162.992 219.268C162.368 219.532 161.84 219.892 161.408 220.348C160.952 220.804 160.592 221.344 160.328 221.968C160.064 222.616 159.932 223.324 159.932 224.092C159.932 224.932 160.1 225.664 160.436 226.288C160.748 226.936 161.18 227.464 161.732 227.872C162.284 228.28 162.932 228.58 163.676 228.772C164.42 228.988 165.2 229.096 166.016 229.096L169.148 229.06L167.708 242.2H158.312L156.62 244.18Z" fill="#E70C02"/>
<path d="M167.25 212.688C164.626 212.688 162.5 210.384 162.5 207.543C162.5 210.384 160.374 212.688 157.75 212.688C155.126 212.688 153 210.384 153 207.543C153 203.26 156.84 201.749 162.035 194.932C162.092 194.857 162.163 194.797 162.243 194.756C162.324 194.714 162.411 194.693 162.5 194.693C162.589 194.693 162.676 194.714 162.757 194.756C162.837 194.797 162.908 194.857 162.965 194.932C168.16 201.749 172 203.26 172 207.543C172 210.384 169.874 212.688 167.25 212.688Z" fill="#E70C02"/>
<path d="M31.38 18.82H32.604C32.604 19.18 32.592 19.648 32.568 20.224C32.544 20.8 32.496 21.388 32.424 21.988C32.352 22.588 32.268 23.164 32.172 23.716C32.076 24.244 31.98 24.652 31.884 24.94H22.02L21.372 30.088H24.36C25.656 30.088 26.832 30.268 27.888 30.628C28.944 30.964 29.844 31.468 30.588 32.14C31.332 32.788 31.908 33.592 32.316 34.552C32.724 35.488 32.928 36.568 32.928 37.792C32.928 39.16 32.664 40.384 32.136 41.464C31.632 42.52 30.936 43.42 30.048 44.164C29.16 44.884 28.116 45.448 26.916 45.856C25.716 46.24 24.42 46.432 23.028 46.432C21.636 46.432 20.364 46.216 19.212 45.784C18.06 45.328 17.136 44.824 16.44 44.272L17.952 40.708H18.996C19.164 40.876 19.356 41.092 19.572 41.356C19.788 41.62 20.016 41.896 20.256 42.184C20.496 42.472 20.724 42.76 20.94 43.048C21.156 43.336 21.348 43.588 21.516 43.804C21.756 43.9 21.972 43.972 22.164 44.02C22.38 44.068 22.656 44.092 22.992 44.092C23.712 44.092 24.384 43.972 25.008 43.732C25.632 43.468 26.16 43.108 26.592 42.652C27.048 42.196 27.408 41.656 27.672 41.032C27.936 40.384 28.068 39.676 28.068 38.908C28.068 38.068 27.9 37.336 27.564 36.712C27.252 36.064 26.82 35.536 26.268 35.128C25.716 34.72 25.068 34.42 24.324 34.228C23.58 34.012 22.8 33.904 21.984 33.904L18.852 33.94L20.292 20.8H29.688L31.38 18.82Z" fill="#E70C02"/>
<path d="M20.75 50.3125C23.3744 50.3125 25.5 52.6159 25.5 55.4575C25.5 52.6159 27.6256 50.3125 30.25 50.3125C32.8744 50.3125 35 52.6159 35 55.4575C35 59.7402 31.1596 61.2509 25.9655 68.068C25.9083 68.1429 25.837 68.203 25.7566 68.2443C25.6762 68.2856 25.5887 68.307 25.5 68.307C25.4113 68.307 25.3238 68.2856 25.2434 68.2443C25.163 68.203 25.0917 68.1429 25.0345 68.068C19.8404 61.2509 16 59.7402 16 55.4575C16 52.6159 18.1256 50.3125 20.75 50.3125Z" fill="#E70C02"/>
<path d="M56.75 52.1136C61.0319 52.1136 64.5 55.8231 64.5 60.3991C64.5 55.8231 67.9681 52.1136 72.25 52.1136C76.5319 52.1136 80 55.8231 80 60.3991C80 67.2959 73.7341 69.7287 65.2595 80.7069C65.1662 80.8275 65.0499 80.9244 64.9187 80.9909C64.7875 81.0573 64.6446 81.0918 64.5 81.0918C64.3554 81.0918 64.2125 81.0573 64.0813 80.9909C63.9501 80.9244 63.8338 80.8275 63.7405 80.7069C55.2659 69.7287 49 67.2959 49 60.3991C49 55.8231 52.4681 52.1136 56.75 52.1136Z" fill="#E70C02"/>
<path d="M86.75 117.114C91.0319 117.114 94.5 120.823 94.5 125.399C94.5 120.823 97.9681 117.114 102.25 117.114C106.532 117.114 110 120.823 110 125.399C110 132.296 103.734 134.729 95.2595 145.707C95.1662 145.827 95.0499 145.924 94.9187 145.991C94.7875 146.057 94.6446 146.092 94.5 146.092C94.3554 146.092 94.2125 146.057 94.0813 145.991C93.9501 145.924 93.8338 145.827 93.7405 145.707C85.2659 134.729 79 132.296 79 125.399C79 120.823 82.4681 117.114 86.75 117.114Z" fill="#E70C02"/>
<path d="M115.75 52.1136C120.032 52.1136 123.5 55.8231 123.5 60.3991C123.5 55.8231 126.968 52.1136 131.25 52.1136C135.532 52.1136 139 55.8231 139 60.3991C139 67.2959 132.734 69.7287 124.26 80.7069C124.166 80.8275 124.05 80.9244 123.919 80.9909C123.788 81.0573 123.645 81.0918 123.5 81.0918C123.355 81.0918 123.212 81.0573 123.081 80.9909C122.95 80.9244 122.834 80.8275 122.74 80.7069C114.266 69.7287 108 67.2959 108 60.3991C108 55.8231 111.468 52.1136 115.75 52.1136Z" fill="#E70C02"/>
<path d="M72.25 210.886C67.9681 210.886 64.5 207.177 64.5 202.601C64.5 207.177 61.0319 210.886 56.75 210.886C52.4681 210.886 49 207.177 49 202.601C49 195.704 55.2659 193.271 63.7405 182.293C63.8338 182.173 63.9501 182.076 64.0813 182.009C64.2125 181.943 64.3554 181.908 64.5 181.908C64.6446 181.908 64.7875 181.943 64.9187 182.009C65.0499 182.076 65.1662 182.173 65.2595 182.293C73.7341 193.271 80 195.704 80 202.601C80 207.177 76.5319 210.886 72.25 210.886Z" fill="#E70C02"/>
<path d="M131.25 210.886C126.968 210.886 123.5 207.177 123.5 202.601C123.5 207.177 120.032 210.886 115.75 210.886C111.468 210.886 108 207.177 108 202.601C108 195.704 114.266 193.271 122.74 182.293C122.834 182.173 122.95 182.076 123.081 182.009C123.212 181.943 123.355 181.908 123.5 181.908C123.645 181.908 123.788 181.943 123.919 182.009C124.05 182.076 124.166 182.173 124.26 182.293C132.734 193.271 139 195.704 139 202.601C139 207.177 135.532 210.886 131.25 210.886Z" fill="#E70C02"/>
</svg>
