<svg width="188" height="263" viewBox="0 0 188 263" fill="none" xmlns="http://www.w3.org/2000/svg">
<rect width="188" height="263" rx="4" fill="#F5F0E8"/>
<rect x="6.5" y="6.5" width="175" height="250" rx="2.5" fill="#F5F0E8" stroke="black" stroke-linecap="round"/>
<rect x="8.5" y="8.5" width="171" height="246" rx="2.5" fill="#F5F0E8" stroke="black" stroke-linecap="round"/>
<path d="M114.891 120.8C101.661 110.965 97.0974 103.094 94.0043 97C90.9068 103.094 86.348 110.965 73.1181 120.8C50.5562 137.569 71.7924 160.971 90.4649 148.091C89.2487 156.084 85.0968 161.912 80.8793 164.423V167.004H107.129V164.423C102.912 161.912 98.7599 156.084 97.5437 148.091C116.216 160.971 137.452 137.569 114.891 120.8Z" fill="black"/>
<path d="M31.7672 60.14C27.7982 57.1895 26.4292 54.8283 25.5013 53C24.5721 54.8283 23.2044 57.1895 19.2354 60.14C12.4669 65.1708 18.8377 72.1914 24.4395 68.3274C24.0746 70.7253 22.8291 72.4736 21.5638 73.2269V74.0013H29.4388V73.2269C28.1736 72.4736 26.928 70.7253 26.5631 68.3274C32.1649 72.1914 38.5357 65.1708 31.7672 60.14Z" fill="black"/>
<path d="M31.776 46H19.32V44.452C19.92 44.188 20.52 43.96 21.12 43.768C21.744 43.552 22.368 43.372 22.992 43.228V26.704L23.136 24.58C22.464 24.796 21.768 24.94 21.048 25.012C20.328 25.084 19.584 25.108 18.816 25.084L18.636 23.752C19.908 23.416 21.288 22.96 22.776 22.384C24.288 21.808 25.68 21.136 26.952 20.368H28.176V43.228C28.776 43.372 29.376 43.552 29.976 43.768C30.576 43.96 31.176 44.188 31.776 44.452V46Z" fill="black"/>
<path d="M156.233 202.86C160.202 205.81 161.571 208.172 162.499 210C163.428 208.172 164.796 205.81 168.765 202.86C175.533 197.829 169.162 190.809 163.56 194.673C163.925 192.275 165.171 190.526 166.436 189.773V188.999H158.561V189.773C159.826 190.526 161.072 192.275 161.437 194.673C155.835 190.809 149.464 197.829 156.233 202.86Z" fill="black"/>
<path d="M156.224 217H168.68V218.548C168.08 218.812 167.48 219.04 166.88 219.232C166.256 219.448 165.632 219.628 165.008 219.772V236.296L164.864 238.42C165.536 238.204 166.232 238.06 166.952 237.988C167.672 237.916 168.416 237.892 169.184 237.916L169.364 239.248C168.092 239.584 166.712 240.04 165.224 240.616C163.712 241.192 162.32 241.864 161.048 242.632H159.824V219.772C159.224 219.628 158.624 219.448 158.024 219.232C157.424 219.04 156.824 218.812 156.224 218.548V217Z" fill="black"/>
</svg>
