<svg width="188" height="263" viewBox="0 0 188 263" fill="none" xmlns="http://www.w3.org/2000/svg">
<rect width="188" height="263" rx="4" fill="#F5F0E8"/>
<rect x="6.5" y="6.5" width="175" height="250" rx="2.5" fill="#F5F0E8" stroke="#E70C02" stroke-linecap="round"/>
<rect x="8.5" y="8.5" width="171" height="246" rx="2.5" fill="#F5F0E8" stroke="#E70C02" stroke-linecap="round"/>
<path d="M153.704 224.74C153.704 223.492 153.944 222.364 154.424 221.356C154.88 220.348 155.504 219.484 156.296 218.764C157.088 218.068 158.024 217.528 159.104 217.144C160.16 216.76 161.288 216.568 162.488 216.568C163.976 216.568 165.296 216.796 166.448 217.252C167.576 217.732 168.524 218.392 169.292 219.232C170.06 220.072 170.648 221.068 171.056 222.22C171.44 223.372 171.632 224.632 171.632 226C171.632 228.256 171.236 230.32 170.444 232.192C169.652 234.064 168.584 235.72 167.24 237.16C165.896 238.6 164.336 239.8 162.56 240.76C160.76 241.72 158.852 242.416 156.836 242.848L156.296 241.3C157.592 240.892 158.792 240.34 159.896 239.644C161 238.948 161.984 238.096 162.848 237.088C163.688 236.104 164.384 234.976 164.936 233.704C165.464 232.456 165.8 231.076 165.944 229.564C165.752 229.876 165.512 230.176 165.224 230.464C164.912 230.776 164.54 231.052 164.108 231.292C163.676 231.556 163.184 231.76 162.632 231.904C162.056 232.072 161.408 232.156 160.688 232.156C159.704 232.156 158.792 232 157.952 231.688C157.088 231.376 156.344 230.908 155.72 230.284C155.096 229.66 154.604 228.88 154.244 227.944C153.884 227.032 153.704 225.964 153.704 224.74ZM159.104 224.308C159.104 227.86 160.292 229.636 162.668 229.636C163.484 229.636 164.18 229.42 164.756 228.988C165.332 228.58 165.752 228.1 166.016 227.548C166.088 227.212 166.148 226.816 166.196 226.36C166.22 225.928 166.232 225.508 166.232 225.1C166.232 224.284 166.16 223.492 166.016 222.724C165.872 221.98 165.644 221.308 165.332 220.708C165.02 220.132 164.624 219.664 164.144 219.304C163.64 218.944 163.04 218.764 162.344 218.764C161.744 218.764 161.24 218.908 160.832 219.196C160.424 219.508 160.1 219.916 159.86 220.42C159.596 220.924 159.404 221.512 159.284 222.184C159.164 222.856 159.104 223.564 159.104 224.308Z" fill="#E70C02"/>
<path d="M167.25 212.688C164.626 212.688 162.5 210.384 162.5 207.543C162.5 210.384 160.374 212.688 157.75 212.688C155.126 212.688 153 210.384 153 207.543C153 203.26 156.84 201.749 162.035 194.932C162.092 194.857 162.163 194.797 162.243 194.756C162.324 194.714 162.411 194.693 162.5 194.693C162.589 194.693 162.676 194.714 162.757 194.756C162.837 194.797 162.908 194.857 162.965 194.932C168.16 201.749 172 203.26 172 207.543C172 210.384 169.874 212.688 167.25 212.688Z" fill="#E70C02"/>
<path d="M34.296 38.26C34.296 39.508 34.056 40.636 33.576 41.644C33.12 42.652 32.496 43.516 31.704 44.236C30.912 44.932 29.976 45.472 28.896 45.856C27.84 46.24 26.712 46.432 25.512 46.432C24.024 46.432 22.704 46.204 21.552 45.748C20.424 45.268 19.476 44.608 18.708 43.768C17.94 42.928 17.352 41.932 16.944 40.78C16.56 39.628 16.368 38.368 16.368 37C16.368 34.744 16.764 32.68 17.556 30.808C18.348 28.936 19.416 27.28 20.76 25.84C22.104 24.4 23.664 23.2 25.44 22.24C27.24 21.28 29.148 20.584 31.164 20.152L31.704 21.7C30.408 22.108 29.208 22.66 28.104 23.356C27 24.052 26.016 24.904 25.152 25.912C24.312 26.896 23.616 28.024 23.064 29.296C22.536 30.544 22.2 31.924 22.056 33.436C22.248 33.124 22.488 32.824 22.776 32.536C23.088 32.224 23.46 31.948 23.892 31.708C24.324 31.444 24.816 31.24 25.368 31.096C25.944 30.928 26.592 30.844 27.312 30.844C28.296 30.844 29.208 31 30.048 31.312C30.912 31.624 31.656 32.092 32.28 32.716C32.904 33.34 33.396 34.12 33.756 35.056C34.116 35.968 34.296 37.036 34.296 38.26ZM28.896 38.692C28.896 35.14 27.708 33.364 25.332 33.364C24.516 33.364 23.82 33.58 23.244 34.012C22.668 34.42 22.248 34.9 21.984 35.452C21.912 35.788 21.852 36.184 21.804 36.64C21.78 37.072 21.768 37.492 21.768 37.9C21.768 38.716 21.84 39.508 21.984 40.276C22.128 41.02 22.356 41.692 22.668 42.292C22.98 42.868 23.376 43.336 23.856 43.696C24.36 44.056 24.96 44.236 25.656 44.236C26.256 44.236 26.76 44.092 27.168 43.804C27.576 43.492 27.9 43.084 28.14 42.58C28.404 42.076 28.596 41.488 28.716 40.816C28.836 40.144 28.896 39.436 28.896 38.692Z" fill="#E70C02"/>
<path d="M20.75 50.3125C23.3744 50.3125 25.5 52.6159 25.5 55.4575C25.5 52.6159 27.6256 50.3125 30.25 50.3125C32.8744 50.3125 35 52.6159 35 55.4575C35 59.7402 31.1596 61.2509 25.9655 68.068C25.9083 68.1429 25.837 68.203 25.7566 68.2443C25.6762 68.2856 25.5887 68.307 25.5 68.307C25.4113 68.307 25.3238 68.2856 25.2434 68.2443C25.163 68.203 25.0917 68.1429 25.0345 68.068C19.8404 61.2509 16 59.7402 16 55.4575C16 52.6159 18.1256 50.3125 20.75 50.3125Z" fill="#E70C02"/>
<path d="M56.75 52.1136C61.0319 52.1136 64.5 55.8231 64.5 60.3991C64.5 55.8231 67.9681 52.1136 72.25 52.1136C76.5319 52.1136 80 55.8231 80 60.3991C80 67.2959 73.7341 69.7287 65.2595 80.7069C65.1662 80.8275 65.0499 80.9244 64.9187 80.9909C64.7875 81.0573 64.6446 81.0918 64.5 81.0918C64.3554 81.0918 64.2125 81.0573 64.0813 80.9909C63.9501 80.9244 63.8338 80.8275 63.7405 80.7069C55.2659 69.7287 49 67.2959 49 60.3991C49 55.8231 52.4681 52.1136 56.75 52.1136Z" fill="#E70C02"/>
<path d="M56.75 117.114C61.0319 117.114 64.5 120.823 64.5 125.399C64.5 120.823 67.9681 117.114 72.25 117.114C76.5319 117.114 80 120.823 80 125.399C80 132.296 73.7341 134.729 65.2595 145.707C65.1662 145.827 65.0499 145.924 64.9187 145.991C64.7875 146.057 64.6446 146.092 64.5 146.092C64.3554 146.092 64.2125 146.057 64.0813 145.991C63.9501 145.924 63.8338 145.827 63.7405 145.707C55.2659 134.729 49 132.296 49 125.399C49 120.823 52.4681 117.114 56.75 117.114Z" fill="#E70C02"/>
<path d="M115.75 117.114C120.032 117.114 123.5 120.823 123.5 125.399C123.5 120.823 126.968 117.114 131.25 117.114C135.532 117.114 139 120.823 139 125.399C139 132.296 132.734 134.729 124.26 145.707C124.166 145.827 124.05 145.924 123.919 145.991C123.788 146.057 123.645 146.092 123.5 146.092C123.355 146.092 123.212 146.057 123.081 145.991C122.95 145.924 122.834 145.827 122.74 145.707C114.266 134.729 108 132.296 108 125.399C108 120.823 111.468 117.114 115.75 117.114Z" fill="#E70C02"/>
<path d="M115.75 52.1136C120.032 52.1136 123.5 55.8231 123.5 60.3991C123.5 55.8231 126.968 52.1136 131.25 52.1136C135.532 52.1136 139 55.8231 139 60.3991C139 67.2959 132.734 69.7287 124.26 80.7069C124.166 80.8275 124.05 80.9244 123.919 80.9909C123.788 81.0573 123.645 81.0918 123.5 81.0918C123.355 81.0918 123.212 81.0573 123.081 80.9909C122.95 80.9244 122.834 80.8275 122.74 80.7069C114.266 69.7287 108 67.2959 108 60.3991C108 55.8231 111.468 52.1136 115.75 52.1136Z" fill="#E70C02"/>
<path d="M72.25 210.886C67.9681 210.886 64.5 207.177 64.5 202.601C64.5 207.177 61.0319 210.886 56.75 210.886C52.4681 210.886 49 207.177 49 202.601C49 195.704 55.2659 193.271 63.7405 182.293C63.8338 182.173 63.9501 182.076 64.0813 182.009C64.2125 181.943 64.3554 181.908 64.5 181.908C64.6446 181.908 64.7875 181.943 64.9187 182.009C65.0499 182.076 65.1662 182.173 65.2595 182.293C73.7341 193.271 80 195.704 80 202.601C80 207.177 76.5319 210.886 72.25 210.886Z" fill="#E70C02"/>
<path d="M131.25 210.886C126.968 210.886 123.5 207.177 123.5 202.601C123.5 207.177 120.032 210.886 115.75 210.886C111.468 210.886 108 207.177 108 202.601C108 195.704 114.266 193.271 122.74 182.293C122.834 182.173 122.95 182.076 123.081 182.009C123.212 181.943 123.355 181.908 123.5 181.908C123.645 181.908 123.788 181.943 123.919 182.009C124.05 182.076 124.166 182.173 124.26 182.293C132.734 193.271 139 195.704 139 202.601C139 207.177 135.532 210.886 131.25 210.886Z" fill="#E70C02"/>
</svg>
