<svg width="188" height="263" viewBox="0 0 188 263" fill="none" xmlns="http://www.w3.org/2000/svg">
<rect width="188" height="263" rx="4" fill="#F5F0E8"/>
<rect x="6.5" y="6.5" width="175" height="250" rx="2.5" fill="#F5F0E8" stroke="#E70C02" stroke-linecap="round"/>
<rect x="8.5" y="8.5" width="171" height="246" rx="2.5" fill="#F5F0E8" stroke="#E70C02" stroke-linecap="round"/>
<path d="M167.169 245H157.929V243.86C158.249 243.66 158.609 243.48 159.009 243.32C159.409 243.16 159.809 243.05 160.209 242.99V227.63C160.209 225.99 160.459 224.65 160.959 223.61C161.439 222.55 162.019 221.72 162.699 221.12C163.359 220.5 164.039 220.05 164.739 219.77C165.439 219.49 166.009 219.3 166.449 219.2L167.019 219.98C166.719 220.22 166.429 220.53 166.149 220.91C165.869 221.27 165.629 221.74 165.429 222.32C165.209 222.9 165.039 223.6 164.919 224.42C164.779 225.26 164.709 226.27 164.709 227.45V242.99C165.149 243.09 165.589 243.2 166.029 243.32C166.449 243.46 166.829 243.64 167.169 243.86V245Z" fill="#E70C02"/>
<path d="M167.25 212.688C164.626 212.688 162.5 210.384 162.5 207.543C162.5 210.384 160.374 212.688 157.75 212.688C155.126 212.688 153 210.384 153 207.543C153 203.26 156.84 201.749 162.035 194.932C162.092 194.857 162.163 194.797 162.243 194.756C162.324 194.714 162.411 194.693 162.5 194.693C162.589 194.693 162.676 194.714 162.757 194.756C162.837 194.797 162.908 194.857 162.965 194.932C168.16 201.749 172 203.26 172 207.543C172 210.384 169.874 212.688 167.25 212.688Z" fill="#E70C02"/>
<path d="M20.8315 18H30.0715V19.14C29.7515 19.34 29.3915 19.52 28.9915 19.68C28.5915 19.84 28.1915 19.95 27.7915 20.01V35.37C27.7915 37.01 27.5415 38.35 27.0415 39.39C26.5615 40.45 25.9815 41.28 25.3015 41.88C24.6415 42.5 23.9615 42.95 23.2615 43.23C22.5615 43.51 21.9915 43.7 21.5515 43.8L20.9815 43.02C21.2815 42.78 21.5715 42.47 21.8515 42.09C22.1315 41.73 22.3715 41.26 22.5715 40.68C22.7915 40.1 22.9615 39.4 23.0815 38.58C23.2215 37.74 23.2915 36.73 23.2915 35.55V20.01C22.8515 19.91 22.4115 19.8 21.9715 19.68C21.5515 19.54 21.1715 19.36 20.8315 19.14V18Z" fill="#E70C02"/>
<path d="M20.75 50.3125C23.3744 50.3125 25.5 52.6159 25.5 55.4575C25.5 52.6159 27.6256 50.3125 30.25 50.3125C32.8744 50.3125 35 52.6159 35 55.4575C35 59.7402 31.1596 61.2509 25.9655 68.068C25.9083 68.1429 25.837 68.203 25.7566 68.2443C25.6762 68.2856 25.5887 68.307 25.5 68.307C25.4113 68.307 25.3238 68.2856 25.2434 68.2443C25.163 68.203 25.0917 68.1429 25.0345 68.068C19.8404 61.2509 16 59.7402 16 55.4575C16 52.6159 18.1256 50.3125 20.75 50.3125Z" fill="#E70C02"/>
<path d="M83.25 145.068C89.4656 145.068 94.5 150.453 94.5 157.095C94.5 150.453 99.5344 145.068 105.75 145.068C111.966 145.068 117 150.453 117 157.095C117 167.107 107.904 170.638 95.6025 186.575C95.4671 186.75 95.2982 186.89 95.1078 186.987C94.9174 187.083 94.71 187.133 94.5 187.133C94.29 187.133 94.0826 187.083 93.8922 186.987C93.7018 186.89 93.5329 186.75 93.3975 186.575C81.0956 170.638 72 167.107 72 157.095C72 150.453 77.0344 145.068 83.25 145.068Z" fill="#E70C02"/>
<path d="M86.35 89H101.75V90.9C101.217 91.2333 100.617 91.5333 99.95 91.8C99.2833 92.0667 98.6167 92.25 97.95 92.35V117.95C97.95 120.683 97.5333 122.917 96.7 124.65C95.9 126.417 94.9333 127.8 93.8 128.8C92.7 129.833 91.5667 130.583 90.4 131.05C89.2333 131.517 88.2833 131.833 87.55 132L86.6 130.7C87.1 130.3 87.5833 129.783 88.05 129.15C88.5167 128.55 88.9167 127.767 89.25 126.8C89.6167 125.833 89.9 124.667 90.1 123.3C90.3333 121.9 90.45 120.217 90.45 118.25V92.35C89.7167 92.1833 88.9833 92 88.25 91.8C87.55 91.5667 86.9167 91.2667 86.35 90.9V89Z" fill="#E70C02"/>
</svg>
