<svg width="188" height="263" viewBox="0 0 188 263" fill="none" xmlns="http://www.w3.org/2000/svg">
<rect width="188" height="263" rx="4" fill="#F5F0E8"/>
<rect x="6.5" y="6.5" width="175" height="250" rx="2.5" fill="#F5F0E8" stroke="#E70C02" stroke-linecap="round"/>
<rect x="8.5" y="8.5" width="171" height="246" rx="2.5" fill="#F5F0E8" stroke="#E70C02" stroke-linecap="round"/>
<path d="M161.03 245H152.99V243.86C153.33 243.64 153.72 243.45 154.16 243.29C154.6 243.15 155 243.05 155.36 242.99L161.06 235.76C160.6 235.12 160.06 234.39 159.44 233.57C158.82 232.77 158.16 231.93 157.46 231.05C156.76 230.19 156.04 229.31 155.3 228.41C154.56 227.53 153.84 226.69 153.14 225.89L151.7 225.02V224H156.92L158.12 224.84C158.6 225.44 159.11 226.1 159.65 226.82C160.17 227.56 160.69 228.32 161.21 229.1C161.73 229.9 162.24 230.7 162.74 231.5C163.24 232.3 163.71 233.08 164.15 233.84H165.44V226.01C165 225.93 164.6 225.81 164.24 225.65C163.88 225.49 163.57 225.32 163.31 225.14V224H172.4V225.14C172 225.34 171.59 225.51 171.17 225.65C170.75 225.81 170.34 225.93 169.94 226.01V242.99C170.4 243.05 170.85 243.16 171.29 243.32C171.71 243.48 172.08 243.66 172.4 243.86V245H163.31V243.86C163.57 243.7 163.89 243.54 164.27 243.38C164.63 243.22 165.02 243.09 165.44 242.99V235.37L163.67 235.79L158.84 242.99C159.24 243.07 159.64 243.19 160.04 243.35C160.42 243.53 160.75 243.7 161.03 243.86V245Z" fill="#E70C02"/>
<path d="M167.25 212.688C164.626 212.688 162.5 210.384 162.5 207.543C162.5 210.384 160.374 212.688 157.75 212.688C155.126 212.688 153 210.384 153 207.543C153 203.26 156.84 201.749 162.035 194.932C162.092 194.857 162.163 194.797 162.243 194.756C162.324 194.714 162.411 194.693 162.5 194.693C162.589 194.693 162.676 194.714 162.757 194.756C162.837 194.797 162.908 194.857 162.965 194.932C168.16 201.749 172 203.26 172 207.543C172 210.384 169.874 212.688 167.25 212.688Z" fill="#E70C02"/>
<path d="M26.97 18H35.01V19.14C34.67 19.36 34.28 19.55 33.84 19.71C33.4 19.85 33 19.95 32.64 20.01L26.94 27.24C27.4 27.88 27.94 28.61 28.56 29.43C29.18 30.23 29.84 31.07 30.54 31.95C31.24 32.81 31.96 33.69 32.7 34.59C33.44 35.47 34.16 36.31 34.86 37.11L36.3 37.98V39H31.08L29.88 38.16C29.4 37.56 28.89 36.9 28.35 36.18C27.83 35.44 27.31 34.68 26.79 33.9C26.27 33.1 25.76 32.3 25.26 31.5C24.76 30.7 24.29 29.92 23.85 29.16H22.56V36.99C23 37.07 23.4 37.19 23.76 37.35C24.12 37.51 24.43 37.68 24.69 37.86V39H15.6V37.86C16 37.66 16.41 37.49 16.83 37.35C17.25 37.19 17.66 37.07 18.06 36.99V20.01C17.6 19.95 17.15 19.84 16.71 19.68C16.29 19.52 15.92 19.34 15.6 19.14V18H24.69V19.14C24.43 19.3 24.11 19.46 23.73 19.62C23.37 19.78 22.98 19.91 22.56 20.01V27.63L24.33 27.21L29.16 20.01C28.76 19.93 28.36 19.81 27.96 19.65C27.58 19.47 27.25 19.3 26.97 19.14V18Z" fill="#E70C02"/>
<path d="M20.75 50.3125C23.3744 50.3125 25.5 52.6159 25.5 55.4575C25.5 52.6159 27.6256 50.3125 30.25 50.3125C32.8744 50.3125 35 52.6159 35 55.4575C35 59.7402 31.1596 61.2509 25.9655 68.068C25.9083 68.1429 25.837 68.203 25.7566 68.2443C25.6762 68.2856 25.5887 68.307 25.5 68.307C25.4113 68.307 25.3238 68.2856 25.2434 68.2443C25.163 68.203 25.0917 68.1429 25.0345 68.068C19.8404 61.2509 16 59.7402 16 55.4575C16 52.6159 18.1256 50.3125 20.75 50.3125Z" fill="#E70C02"/>
<path d="M83.25 171.068C89.4656 171.068 94.5 176.453 94.5 183.095C94.5 176.453 99.5344 171.068 105.75 171.068C111.966 171.068 117 176.453 117 183.095C117 193.107 107.904 196.638 95.6025 212.575C95.4671 212.75 95.2982 212.89 95.1078 212.987C94.9174 213.083 94.71 213.133 94.5 213.133C94.29 213.133 94.0826 213.083 93.8922 212.987C93.7018 212.89 93.5329 212.75 93.3975 212.575C81.0956 196.638 72 193.107 72 183.095C72 176.453 77.0344 171.068 83.25 171.068Z" fill="#E70C02"/>
<path d="M109 53.5C110.326 53.5 111.598 54.0268 112.536 54.9645C113.473 55.9021 114 57.1739 114 58.5C114 60.525 112.75 62.25 111.075 63.05L106.5 78.875V91H81.5V78.875L76.925 63.05C75.25 62.25 74 60.525 74 58.5C74 57.1739 74.5268 55.9021 75.4645 54.9645C76.4021 54.0268 77.6739 53.5 79 53.5C80.3261 53.5 81.5979 54.0268 82.5355 54.9645C83.4732 55.9021 84 57.1739 84 58.5C84 59.75 83.55 60.875 82.75 61.75L89.75 69.375L91.075 60.05C89.825 59.15 89 57.675 89 56C89 54.6739 89.5268 53.4021 90.4645 52.4645C91.4021 51.5268 92.6739 51 94 51C95.3261 51 96.5979 51.5268 97.5355 52.4645C98.4732 53.4021 99 54.6739 99 56C99 57.675 98.175 59.15 96.925 60.05L98.25 69.375L105.175 61.725C104.415 60.8223 103.999 59.68 104 58.5C104 57.1739 104.527 55.9021 105.464 54.9645C106.402 54.0268 107.674 53.5 109 53.5ZM76.5 96H111.5V101H76.5V96Z" fill="#E70C02"/>
<path d="M94.95 115H108.35V116.9C107.783 117.267 107.133 117.583 106.4 117.85C105.667 118.083 105 118.25 104.4 118.35L94.9 130.4C95.6667 131.467 96.5667 132.683 97.6 134.05C98.6333 135.383 99.7333 136.783 100.9 138.25C102.067 139.683 103.267 141.15 104.5 142.65C105.733 144.117 106.933 145.517 108.1 146.85L110.5 148.3V150H101.8L99.8 148.6C99 147.6 98.15 146.5 97.25 145.3C96.3833 144.067 95.5167 142.8 94.65 141.5C93.7833 140.167 92.9333 138.833 92.1 137.5C91.2667 136.167 90.4833 134.867 89.75 133.6H87.6V146.65C88.3333 146.783 89 146.983 89.6 147.25C90.2 147.517 90.7167 147.8 91.15 148.1V150H76V148.1C76.6667 147.767 77.35 147.483 78.05 147.25C78.75 146.983 79.4333 146.783 80.1 146.65V118.35C79.3333 118.25 78.5833 118.067 77.85 117.8C77.15 117.533 76.5333 117.233 76 116.9V115H91.15V116.9C90.7167 117.167 90.1833 117.433 89.55 117.7C88.95 117.967 88.3 118.183 87.6 118.35V131.05L90.55 130.35L98.6 118.35C97.9333 118.217 97.2667 118.017 96.6 117.75C95.9667 117.45 95.4167 117.167 94.95 116.9V115Z" fill="#E70C02"/>
</svg>
