<svg width="188" height="263" viewBox="0 0 188 263" fill="none" xmlns="http://www.w3.org/2000/svg">
<rect width="188" height="263" rx="4" fill="#F5F0E8"/>
<rect x="6.5" y="6.5" width="175" height="250" rx="2.5" fill="#F5F0E8" stroke="#E70C02" stroke-linecap="round"/>
<rect x="8.5" y="8.5" width="171" height="246" rx="2.5" fill="#F5F0E8" stroke="#E70C02" stroke-linecap="round"/>
<path d="M168.788 234.316H170.012C170.132 234.82 170.252 235.432 170.372 236.152C170.492 236.896 170.612 237.64 170.732 238.384C170.828 239.128 170.912 239.836 170.984 240.508C171.056 241.204 171.092 241.768 171.092 242.2H154.244V240.508C155.54 238.492 156.632 236.596 157.52 234.82C158.408 233.044 159.152 231.244 159.752 229.42C160.352 227.596 160.856 225.688 161.264 223.696C161.648 221.704 161.984 219.472 162.272 217H167.384C166.52 220.48 165.404 223.792 164.036 226.936C162.668 230.08 161.048 233.248 159.176 236.44L157.844 238.168L159.644 237.988H167.384L168.788 234.316Z" fill="#E70C02"/>
<path d="M167.25 212.688C164.626 212.688 162.5 210.384 162.5 207.543C162.5 210.384 160.374 212.688 157.75 212.688C155.126 212.688 153 210.384 153 207.543C153 203.26 156.84 201.749 162.035 194.932C162.092 194.857 162.163 194.797 162.243 194.756C162.324 194.714 162.411 194.693 162.5 194.693C162.589 194.693 162.676 194.714 162.757 194.756C162.837 194.797 162.908 194.857 162.965 194.932C168.16 201.749 172 203.26 172 207.543C172 210.384 169.874 212.688 167.25 212.688Z" fill="#E70C02"/>
<path d="M19.212 28.684H17.988C17.868 28.18 17.748 27.568 17.628 26.848C17.508 26.104 17.388 25.36 17.268 24.616C17.172 23.872 17.088 23.164 17.016 22.492C16.944 21.796 16.908 21.232 16.908 20.8H33.756V22.492C32.46 24.508 31.368 26.404 30.48 28.18C29.592 29.956 28.848 31.756 28.248 33.58C27.648 35.404 27.144 37.312 26.736 39.304C26.352 41.296 26.016 43.528 25.728 46H20.616C21.48 42.52 22.596 39.208 23.964 36.064C25.332 32.92 26.952 29.752 28.824 26.56L30.156 24.832L28.356 25.012H20.616L19.212 28.684Z" fill="#E70C02"/>
<path d="M20.75 50.3125C23.3744 50.3125 25.5 52.6159 25.5 55.4575C25.5 52.6159 27.6256 50.3125 30.25 50.3125C32.8744 50.3125 35 52.6159 35 55.4575C35 59.7402 31.1596 61.2509 25.9655 68.068C25.9083 68.1429 25.837 68.203 25.7566 68.2443C25.6762 68.2856 25.5887 68.307 25.5 68.307C25.4113 68.307 25.3238 68.2856 25.2434 68.2443C25.163 68.203 25.0917 68.1429 25.0345 68.068C19.8404 61.2509 16 59.7402 16 55.4575C16 52.6159 18.1256 50.3125 20.75 50.3125Z" fill="#E70C02"/>
<path d="M56.75 52.1136C61.0319 52.1136 64.5 55.8231 64.5 60.3991C64.5 55.8231 67.9681 52.1136 72.25 52.1136C76.5319 52.1136 80 55.8231 80 60.3991C80 67.2959 73.7341 69.7287 65.2595 80.7069C65.1662 80.8275 65.0499 80.9244 64.9187 80.9909C64.7875 81.0573 64.6446 81.0918 64.5 81.0918C64.3554 81.0918 64.2125 81.0573 64.0813 80.9909C63.9501 80.9244 63.8338 80.8275 63.7405 80.7069C55.2659 69.7287 49 67.2959 49 60.3991C49 55.8231 52.4681 52.1136 56.75 52.1136Z" fill="#E70C02"/>
<path d="M56.75 131.114C61.0319 131.114 64.5 134.823 64.5 139.399C64.5 134.823 67.9681 131.114 72.25 131.114C76.5319 131.114 80 134.823 80 139.399C80 146.296 73.7341 148.729 65.2595 159.707C65.1662 159.827 65.0499 159.924 64.9187 159.991C64.7875 160.057 64.6446 160.092 64.5 160.092C64.3554 160.092 64.2125 160.057 64.0813 159.991C63.9501 159.924 63.8338 159.827 63.7405 159.707C55.2659 148.729 49 146.296 49 139.399C49 134.823 52.4681 131.114 56.75 131.114Z" fill="#E70C02"/>
<path d="M86.75 91.1136C91.0319 91.1136 94.5 94.8231 94.5 99.3991C94.5 94.8231 97.9681 91.1136 102.25 91.1136C106.532 91.1136 110 94.8231 110 99.3991C110 106.296 103.734 108.729 95.2595 119.707C95.1662 119.827 95.0499 119.924 94.9187 119.991C94.7875 120.057 94.6446 120.092 94.5 120.092C94.3554 120.092 94.2125 120.057 94.0813 119.991C93.9501 119.924 93.8338 119.827 93.7405 119.707C85.2659 108.729 79 106.296 79 99.3991C79 94.8231 82.4681 91.1136 86.75 91.1136Z" fill="#E70C02"/>
<path d="M115.75 131.114C120.032 131.114 123.5 134.823 123.5 139.399C123.5 134.823 126.968 131.114 131.25 131.114C135.532 131.114 139 134.823 139 139.399C139 146.296 132.734 148.729 124.26 159.707C124.166 159.827 124.05 159.924 123.919 159.991C123.788 160.057 123.645 160.092 123.5 160.092C123.355 160.092 123.212 160.057 123.081 159.991C122.95 159.924 122.834 159.827 122.74 159.707C114.266 148.729 108 146.296 108 139.399C108 134.823 111.468 131.114 115.75 131.114Z" fill="#E70C02"/>
<path d="M115.75 52.1136C120.032 52.1136 123.5 55.8231 123.5 60.3991C123.5 55.8231 126.968 52.1136 131.25 52.1136C135.532 52.1136 139 55.8231 139 60.3991C139 67.2959 132.734 69.7287 124.26 80.7069C124.166 80.8275 124.05 80.9244 123.919 80.9909C123.788 81.0573 123.645 81.0918 123.5 81.0918C123.355 81.0918 123.212 81.0573 123.081 80.9909C122.95 80.9244 122.834 80.8275 122.74 80.7069C114.266 69.7287 108 67.2959 108 60.3991C108 55.8231 111.468 52.1136 115.75 52.1136Z" fill="#E70C02"/>
<path d="M72.25 210.886C67.9681 210.886 64.5 207.177 64.5 202.601C64.5 207.177 61.0319 210.886 56.75 210.886C52.4681 210.886 49 207.177 49 202.601C49 195.704 55.2659 193.271 63.7405 182.293C63.8338 182.173 63.9501 182.076 64.0813 182.009C64.2125 181.943 64.3554 181.908 64.5 181.908C64.6446 181.908 64.7875 181.943 64.9187 182.009C65.0499 182.076 65.1662 182.173 65.2595 182.293C73.7341 193.271 80 195.704 80 202.601C80 207.177 76.5319 210.886 72.25 210.886Z" fill="#E70C02"/>
<path d="M131.25 210.886C126.968 210.886 123.5 207.177 123.5 202.601C123.5 207.177 120.032 210.886 115.75 210.886C111.468 210.886 108 207.177 108 202.601C108 195.704 114.266 193.271 122.74 182.293C122.834 182.173 122.95 182.076 123.081 182.009C123.212 181.943 123.355 181.908 123.5 181.908C123.645 181.908 123.788 181.943 123.919 182.009C124.05 182.076 124.166 182.173 124.26 182.293C132.734 193.271 139 195.704 139 202.601C139 207.177 135.532 210.886 131.25 210.886Z" fill="#E70C02"/>
</svg>
