<svg width="188" height="263" viewBox="0 0 188 263" fill="none" xmlns="http://www.w3.org/2000/svg">
<rect width="188" height="263" rx="4" fill="#1B2447"/>
<rect x="6.5" y="6.5" width="175" height="250" rx="2.5" fill="#1B2447" stroke="#F5F0E7" stroke-linecap="round"/>
<rect x="8.5" y="8.5" width="171" height="246" rx="2.5" fill="#1B2447" stroke="#F5F0E7" stroke-linecap="round"/>
<path d="M41.3802 122V120.632C41.8362 120.368 42.3162 120.14 42.8202 119.948C43.3482 119.756 43.8522 119.636 44.3322 119.588V99.212C43.8522 99.116 43.3482 98.984 42.8202 98.816C42.2922 98.624 41.8122 98.408 41.3802 98.168V96.8H47.1762C48.0882 96.8 48.9522 96.764 49.7682 96.692C50.5842 96.62 51.5202 96.584 52.5762 96.584C53.7282 96.584 54.8442 96.668 55.9242 96.836C57.0042 97.004 57.9642 97.304 58.8042 97.736C59.6442 98.168 60.3162 98.78 60.8202 99.572C61.3242 100.34 61.5762 101.336 61.5762 102.56C61.5762 103.328 61.4322 104.048 61.1442 104.72C60.8802 105.368 60.4962 105.944 59.9922 106.448C59.5122 106.952 58.9362 107.372 58.2642 107.708C57.6162 108.044 56.9082 108.284 56.1402 108.428V108.572C56.9082 108.668 57.6762 108.848 58.4442 109.112C59.2362 109.376 59.9442 109.76 60.5682 110.264C61.1922 110.768 61.6962 111.404 62.0802 112.172C62.4882 112.916 62.6922 113.804 62.6922 114.836C62.6922 116.132 62.4042 117.248 61.8282 118.184C61.2522 119.12 60.4722 119.888 59.4882 120.488C58.5282 121.088 57.4242 121.532 56.1762 121.82C54.9282 122.084 53.6322 122.216 52.2882 122.216C51.7842 122.216 51.2322 122.204 50.6322 122.18C50.0322 122.156 49.4322 122.132 48.8322 122.108C48.2322 122.084 47.6442 122.06 47.0682 122.036C46.5162 122.012 46.0482 122 45.6642 122H41.3802ZM52.2522 119.876C53.7642 119.876 54.9522 119.432 55.8162 118.544C56.6802 117.632 57.1122 116.432 57.1122 114.944C57.1122 114.032 56.9682 113.288 56.6802 112.712C56.3922 112.112 55.9962 111.644 55.4922 111.308C54.9882 110.948 54.3882 110.708 53.6922 110.588C52.9962 110.444 52.2402 110.372 51.4242 110.372H49.5162V119.624C49.8522 119.696 50.2002 119.756 50.5602 119.804C50.9442 119.852 51.5082 119.876 52.2522 119.876ZM50.6682 108.032C51.0762 108.032 51.4842 108.02 51.8922 107.996C52.3002 107.948 52.6842 107.9 53.0442 107.852C53.9802 107.468 54.7362 106.88 55.3122 106.088C55.8882 105.272 56.1762 104.348 56.1762 103.316C56.1762 101.804 55.7802 100.7 54.9882 100.004C54.1962 99.284 53.1762 98.924 51.9282 98.924C51.4002 98.924 50.9442 98.936 50.5602 98.96C50.1762 98.984 49.8282 99.02 49.5162 99.068V108.032H50.6682ZM76.3511 122H65.1191V120.632C66.0791 120.104 67.0511 119.756 68.0351 119.588V99.212C67.5551 99.14 67.0511 99.008 66.5231 98.816C65.9951 98.624 65.5271 98.408 65.1191 98.168V96.8H76.3511V98.168C75.9191 98.432 75.4391 98.66 74.9111 98.852C74.4071 99.02 73.9151 99.14 73.4351 99.212V119.588C73.9151 119.684 74.4071 119.816 74.9111 119.984C75.4391 120.152 75.9191 120.368 76.3511 120.632V122ZM83.0856 119.012C83.3496 119.276 83.7216 119.528 84.2016 119.768C84.6816 119.984 85.3176 120.092 86.1096 120.092C87.4296 120.092 88.5216 119.756 89.3856 119.084C90.2736 118.388 90.7176 117.428 90.7176 116.204C90.7176 115.316 90.4296 114.572 89.8536 113.972C89.3016 113.372 88.5936 112.82 87.7296 112.316C86.8656 111.812 85.9416 111.32 84.9576 110.84C83.9736 110.336 83.0496 109.748 82.1856 109.076C81.3216 108.404 80.6016 107.612 80.0256 106.7C79.4736 105.764 79.1976 104.612 79.1976 103.244C79.1976 102.068 79.4136 101.048 79.8456 100.184C80.2776 99.32 80.8656 98.612 81.6096 98.06C82.3776 97.484 83.2776 97.064 84.3096 96.8C85.3416 96.512 86.4576 96.368 87.6576 96.368C89.1216 96.368 90.4776 96.476 91.7256 96.692C92.9976 96.884 94.1376 97.196 95.1456 97.628C95.1216 98.108 95.0736 98.66 95.0016 99.284C94.9536 99.908 94.8816 100.532 94.7856 101.156C94.6896 101.756 94.5816 102.332 94.4616 102.884C94.3656 103.412 94.2696 103.856 94.1736 104.216H92.6976L91.0416 99.284C90.7536 99.14 90.3216 99.008 89.7456 98.888C89.1936 98.768 88.6176 98.708 88.0176 98.708C87.0096 98.708 86.1576 98.972 85.4616 99.5C84.7656 100.028 84.4176 100.796 84.4176 101.804C84.4176 102.716 84.7056 103.496 85.2816 104.144C85.8576 104.768 86.5776 105.344 87.4416 105.872C88.3056 106.4 89.2416 106.928 90.2496 107.456C91.2816 107.96 92.2296 108.548 93.0936 109.22C93.9576 109.892 94.6776 110.684 95.2536 111.596C95.8296 112.484 96.1176 113.588 96.1176 114.908C96.1176 117.308 95.3016 119.168 93.6696 120.488C92.0616 121.784 89.6856 122.432 86.5416 122.432C85.7736 122.432 84.9936 122.384 84.2016 122.288C83.4336 122.192 82.7016 122.06 82.0056 121.892C81.3096 121.724 80.6856 121.544 80.1336 121.352C79.6056 121.16 79.2096 120.956 78.9456 120.74C78.9696 120.188 79.0296 119.6 79.1256 118.976C79.2216 118.328 79.3176 117.692 79.4136 117.068C79.5336 116.42 79.6536 115.808 79.7736 115.232C79.8936 114.656 80.0136 114.152 80.1336 113.72H81.6096L83.0856 119.012ZM116.948 114.44H118.424C118.52 114.824 118.604 115.292 118.676 115.844C118.772 116.372 118.844 116.948 118.892 117.572C118.964 118.172 119.012 118.772 119.036 119.372C119.06 119.972 119.072 120.512 119.072 120.992C118.232 121.52 117.176 121.892 115.904 122.108C114.656 122.324 113.372 122.432 112.052 122.432C110.06 122.432 108.248 122.192 106.616 121.712C105.008 121.208 103.628 120.428 102.476 119.372C101.348 118.292 100.472 116.936 99.8478 115.304C99.2238 113.648 98.9118 111.668 98.9118 109.364C98.9118 107.084 99.2478 105.128 99.9198 103.496C100.616 101.84 101.54 100.484 102.692 99.428C103.844 98.372 105.176 97.604 106.688 97.124C108.224 96.62 109.832 96.368 111.512 96.368C113.096 96.368 114.524 96.488 115.796 96.728C117.092 96.944 118.148 97.244 118.964 97.628C118.964 98.012 118.94 98.504 118.892 99.104C118.868 99.704 118.808 100.34 118.712 101.012C118.64 101.66 118.544 102.308 118.424 102.956C118.328 103.58 118.232 104.108 118.136 104.54H116.624L114.644 99.104C114.428 98.984 114.08 98.888 113.6 98.816C113.12 98.744 112.628 98.708 112.124 98.708C111.14 98.708 110.216 98.912 109.352 99.32C108.488 99.704 107.72 100.328 107.048 101.192C106.376 102.056 105.848 103.172 105.464 104.54C105.08 105.884 104.888 107.504 104.888 109.4C104.888 112.832 105.572 115.472 106.94 117.32C108.308 119.168 110.168 120.092 112.52 120.092C113.192 120.092 113.756 120.044 114.212 119.948C114.692 119.828 115.016 119.672 115.184 119.48L116.948 114.44ZM129.005 122H120.113V120.632C120.497 120.392 120.905 120.188 121.337 120.02C121.793 119.828 122.237 119.684 122.669 119.588L131.957 96.368H134.621L143.657 119.588C144.137 119.684 144.617 119.828 145.097 120.02C145.577 120.188 145.997 120.392 146.357 120.632V122H135.089V120.632C135.545 120.416 136.037 120.212 136.565 120.02C137.093 119.828 137.597 119.684 138.077 119.588L135.989 113.864H127.997L125.873 119.588C126.977 119.732 128.021 120.08 129.005 120.632V122ZM128.861 111.524H135.233L132.893 104.648L132.209 101.552H132.137L131.345 104.72L128.861 111.524ZM32.0638 170V168.632C32.5198 168.368 32.9998 168.14 33.5038 167.948C34.0318 167.756 34.5358 167.636 35.0158 167.588V147.212C34.5358 147.116 34.0318 146.984 33.5038 146.816C32.9758 146.624 32.4958 146.408 32.0638 146.168V144.8H37.8598C38.7718 144.8 39.6358 144.764 40.4518 144.692C41.2678 144.62 42.2038 144.584 43.2598 144.584C44.4118 144.584 45.5278 144.668 46.6078 144.836C47.6878 145.004 48.6478 145.304 49.4878 145.736C50.3278 146.168 50.9998 146.78 51.5038 147.572C52.0078 148.34 52.2598 149.336 52.2598 150.56C52.2598 151.328 52.1158 152.048 51.8278 152.72C51.5638 153.368 51.1798 153.944 50.6758 154.448C50.1958 154.952 49.6198 155.372 48.9478 155.708C48.2998 156.044 47.5918 156.284 46.8238 156.428V156.572C47.5918 156.668 48.3598 156.848 49.1278 157.112C49.9198 157.376 50.6278 157.76 51.2518 158.264C51.8758 158.768 52.3798 159.404 52.7638 160.172C53.1718 160.916 53.3758 161.804 53.3758 162.836C53.3758 164.132 53.0878 165.248 52.5117 166.184C51.9358 167.12 51.1558 167.888 50.1718 168.488C49.2118 169.088 48.1078 169.532 46.8598 169.82C45.6118 170.084 44.3158 170.216 42.9718 170.216C42.4678 170.216 41.9158 170.204 41.3158 170.18C40.7158 170.156 40.1158 170.132 39.5158 170.108C38.9158 170.084 38.3278 170.06 37.7518 170.036C37.1998 170.012 36.7318 170 36.3478 170H32.0638ZM42.9358 167.876C44.4478 167.876 45.6358 167.432 46.4998 166.544C47.3638 165.632 47.7958 164.432 47.7958 162.944C47.7958 162.032 47.6518 161.288 47.3638 160.712C47.0758 160.112 46.6798 159.644 46.1758 159.308C45.6718 158.948 45.0718 158.708 44.3758 158.588C43.6798 158.444 42.9238 158.372 42.1078 158.372H40.1998V167.624C40.5358 167.696 40.8838 167.756 41.2438 167.804C41.6278 167.852 42.1918 167.876 42.9358 167.876ZM41.3518 156.032C41.7598 156.032 42.1678 156.02 42.5758 155.996C42.9838 155.948 43.3678 155.9 43.7278 155.852C44.6638 155.468 45.4198 154.88 45.9958 154.088C46.5718 153.272 46.8598 152.348 46.8598 151.316C46.8598 149.804 46.4638 148.7 45.6718 148.004C44.8798 147.284 43.8598 146.924 42.6118 146.924C42.0838 146.924 41.6278 146.936 41.2438 146.96C40.8598 146.984 40.5118 147.02 40.1998 147.068V156.032H41.3518ZM63.7947 167.588C64.3467 167.708 64.8387 167.864 65.2707 168.056C65.7027 168.248 66.1227 168.44 66.5307 168.632V170H55.4427V168.632C55.9707 168.344 56.4747 168.128 56.9547 167.984C57.4347 167.816 57.9147 167.684 58.3947 167.588V147.212C57.1947 146.948 56.2107 146.6 55.4427 146.168V144.8H59.2587C59.7387 144.8 60.2787 144.788 60.8787 144.764C61.5027 144.74 62.1507 144.716 62.8227 144.692C63.4947 144.644 64.1787 144.608 64.8747 144.584C65.5707 144.536 66.2427 144.512 66.8907 144.512C68.2107 144.512 69.4227 144.668 70.5267 144.98C71.6547 145.268 72.6147 145.712 73.4067 146.312C74.2227 146.912 74.8467 147.668 75.2787 148.58C75.7347 149.468 75.9627 150.512 75.9627 151.712C75.9627 153.44 75.5427 154.856 74.7027 155.96C73.8627 157.064 72.7107 157.892 71.2467 158.444C72.2067 159.956 73.2267 161.504 74.3067 163.088C75.3867 164.648 76.5267 166.16 77.7267 167.624L79.4547 168.776V170H73.4427L71.8947 168.812C70.7907 167.492 69.8067 165.968 68.9427 164.24C68.1027 162.488 67.3587 160.772 66.7107 159.092H63.7947V167.588ZM65.5947 146.852C64.8507 146.852 64.2507 146.924 63.7947 147.068V157.112H65.9187C67.1427 157.112 68.1867 156.68 69.0507 155.816C69.9147 154.928 70.3467 153.62 70.3467 151.892C70.3467 151.004 70.2267 150.248 69.9867 149.624C69.7467 148.976 69.4107 148.448 68.9787 148.04C68.5467 147.632 68.0427 147.332 67.4667 147.14C66.8907 146.948 66.2667 146.852 65.5947 146.852ZM88.7162 170H79.8242V168.632C80.2082 168.392 80.6162 168.188 81.0482 168.02C81.5042 167.828 81.9482 167.684 82.3802 167.588L91.6682 144.368H94.3322L103.368 167.588C103.848 167.684 104.328 167.828 104.808 168.02C105.288 168.188 105.708 168.392 106.068 168.632V170H94.8002V168.632C95.2562 168.416 95.7482 168.212 96.2762 168.02C96.8042 167.828 97.3082 167.684 97.7882 167.588L95.7002 161.864H87.7082L85.5842 167.588C86.6882 167.732 87.7322 168.08 88.7162 168.632V170ZM88.5722 159.524H94.9442L92.6042 152.648L91.9202 149.552H91.8482L91.0562 152.72L88.5722 159.524ZM106.771 170V168.632C107.227 168.368 107.707 168.14 108.211 167.948C108.739 167.756 109.243 167.636 109.723 167.588V147.212C109.243 147.116 108.739 146.984 108.211 146.816C107.683 146.624 107.203 146.408 106.771 146.168V144.8H112.567C113.479 144.8 114.343 144.764 115.159 144.692C115.975 144.62 116.911 144.584 117.967 144.584C119.119 144.584 120.235 144.668 121.315 144.836C122.395 145.004 123.355 145.304 124.195 145.736C125.035 146.168 125.707 146.78 126.211 147.572C126.715 148.34 126.967 149.336 126.967 150.56C126.967 151.328 126.823 152.048 126.535 152.72C126.271 153.368 125.887 153.944 125.383 154.448C124.903 154.952 124.327 155.372 123.655 155.708C123.007 156.044 122.299 156.284 121.531 156.428V156.572C122.299 156.668 123.067 156.848 123.835 157.112C124.627 157.376 125.335 157.76 125.959 158.264C126.583 158.768 127.087 159.404 127.471 160.172C127.879 160.916 128.083 161.804 128.083 162.836C128.083 164.132 127.795 165.248 127.219 166.184C126.643 167.12 125.863 167.888 124.879 168.488C123.919 169.088 122.815 169.532 121.567 169.82C120.319 170.084 119.023 170.216 117.679 170.216C117.175 170.216 116.623 170.204 116.023 170.18C115.423 170.156 114.823 170.132 114.223 170.108C113.623 170.084 113.035 170.06 112.459 170.036C111.907 170.012 111.439 170 111.055 170H106.771ZM117.643 167.876C119.155 167.876 120.343 167.432 121.207 166.544C122.071 165.632 122.503 164.432 122.503 162.944C122.503 162.032 122.359 161.288 122.071 160.712C121.783 160.112 121.387 159.644 120.883 159.308C120.379 158.948 119.779 158.708 119.083 158.588C118.387 158.444 117.631 158.372 116.815 158.372H114.907V167.624C115.243 167.696 115.591 167.756 115.951 167.804C116.335 167.852 116.899 167.876 117.643 167.876ZM116.059 156.032C116.467 156.032 116.875 156.02 117.283 155.996C117.691 155.948 118.075 155.9 118.435 155.852C119.371 155.468 120.127 154.88 120.703 154.088C121.279 153.272 121.567 152.348 121.567 151.316C121.567 149.804 121.171 148.7 120.379 148.004C119.587 147.284 118.567 146.924 117.319 146.924C116.791 146.924 116.335 146.936 115.951 146.96C115.567 146.984 115.219 147.02 114.907 147.068V156.032H116.059ZM138.322 170H129.43V168.632C129.814 168.392 130.222 168.188 130.654 168.02C131.11 167.828 131.554 167.684 131.986 167.588L141.274 144.368H143.938L152.974 167.588C153.454 167.684 153.934 167.828 154.414 168.02C154.894 168.188 155.314 168.392 155.674 168.632V170H144.406V168.632C144.862 168.416 145.354 168.212 145.882 168.02C146.41 167.828 146.914 167.684 147.394 167.588L145.306 161.864H137.314L135.19 167.588C136.294 167.732 137.338 168.08 138.322 168.632V170ZM138.178 159.524H144.55L142.21 152.648L141.526 149.552H141.454L140.662 152.72L138.178 159.524Z" fill="#F5F0E7"/>
</svg>
